<?xml version="1.0" encoding="utf-8"?>
<svg xmlns="http://www.w3.org/2000/svg" xmlns:xlink="http://www.w3.org/1999/xlink" width="600" height="400" viewBox="0 0 2400 1600">
<defs>
  <clipPath id="clip520">
    <rect x="0" y="0" width="2400" height="1600"/>
  </clipPath>
</defs>
<path clip-path="url(#clip520)" d="M0 1600 L2400 1600 L2400 0 L0 0  Z" fill="#ffffff" fill-rule="evenodd" fill-opacity="1"/>
<defs>
  <clipPath id="clip521">
    <rect x="480" y="0" width="1681" height="1600"/>
  </clipPath>
</defs>
<path clip-path="url(#clip520)" d="M339.627 1410.9 L2352.76 1410.9 L2352.76 47.2441 L339.627 47.2441  Z" fill="#ffffff" fill-rule="evenodd" fill-opacity="1"/>
<defs>
  <clipPath id="clip522">
    <rect x="339" y="47" width="2014" height="1365"/>
  </clipPath>
</defs>
<polyline clip-path="url(#clip522)" style="stroke:#000000; stroke-linecap:round; stroke-linejoin:round; stroke-width:2; stroke-opacity:0.1; fill:none" points="643.863,1410.9 643.863,47.2441 "/>
<polyline clip-path="url(#clip522)" style="stroke:#000000; stroke-linecap:round; stroke-linejoin:round; stroke-width:2; stroke-opacity:0.1; fill:none" points="1102.89,1410.9 1102.89,47.2441 "/>
<polyline clip-path="url(#clip522)" style="stroke:#000000; stroke-linecap:round; stroke-linejoin:round; stroke-width:2; stroke-opacity:0.1; fill:none" points="1561.91,1410.9 1561.91,47.2441 "/>
<polyline clip-path="url(#clip522)" style="stroke:#000000; stroke-linecap:round; stroke-linejoin:round; stroke-width:2; stroke-opacity:0.1; fill:none" points="2020.94,1410.9 2020.94,47.2441 "/>
<polyline clip-path="url(#clip522)" style="stroke:#000000; stroke-linecap:round; stroke-linejoin:round; stroke-width:2; stroke-opacity:0.1; fill:none" points="339.627,1229.52 2352.76,1229.52 "/>
<polyline clip-path="url(#clip522)" style="stroke:#000000; stroke-linecap:round; stroke-linejoin:round; stroke-width:2; stroke-opacity:0.1; fill:none" points="339.627,855.677 2352.76,855.677 "/>
<polyline clip-path="url(#clip522)" style="stroke:#000000; stroke-linecap:round; stroke-linejoin:round; stroke-width:2; stroke-opacity:0.1; fill:none" points="339.627,481.838 2352.76,481.838 "/>
<polyline clip-path="url(#clip522)" style="stroke:#000000; stroke-linecap:round; stroke-linejoin:round; stroke-width:2; stroke-opacity:0.1; fill:none" points="339.627,107.999 2352.76,107.999 "/>
<polyline clip-path="url(#clip520)" style="stroke:#000000; stroke-linecap:round; stroke-linejoin:round; stroke-width:4; stroke-opacity:1; fill:none" points="339.627,1410.9 2352.76,1410.9 "/>
<polyline clip-path="url(#clip520)" style="stroke:#000000; stroke-linecap:round; stroke-linejoin:round; stroke-width:4; stroke-opacity:1; fill:none" points="643.863,1410.9 643.863,1392 "/>
<polyline clip-path="url(#clip520)" style="stroke:#000000; stroke-linecap:round; stroke-linejoin:round; stroke-width:4; stroke-opacity:1; fill:none" points="1102.89,1410.9 1102.89,1392 "/>
<polyline clip-path="url(#clip520)" style="stroke:#000000; stroke-linecap:round; stroke-linejoin:round; stroke-width:4; stroke-opacity:1; fill:none" points="1561.91,1410.9 1561.91,1392 "/>
<polyline clip-path="url(#clip520)" style="stroke:#000000; stroke-linecap:round; stroke-linejoin:round; stroke-width:4; stroke-opacity:1; fill:none" points="2020.94,1410.9 2020.94,1392 "/>
<path clip-path="url(#clip520)" d="M540.914 1485.02 L557.233 1485.02 L557.233 1488.96 L535.289 1488.96 L535.289 1485.02 Q537.951 1482.27 542.534 1477.64 Q547.141 1472.98 548.321 1471.64 Q550.567 1469.12 551.446 1467.38 Q552.349 1465.62 552.349 1463.93 Q552.349 1461.18 550.405 1459.44 Q548.483 1457.71 545.382 1457.71 Q543.182 1457.71 540.729 1458.47 Q538.298 1459.23 535.52 1460.79 L535.52 1456.06 Q538.345 1454.93 540.798 1454.35 Q543.252 1453.77 545.289 1453.77 Q550.659 1453.77 553.854 1456.46 Q557.048 1459.14 557.048 1463.63 Q557.048 1465.76 556.238 1467.68 Q555.451 1469.58 553.344 1472.17 Q552.766 1472.85 549.664 1476.06 Q546.562 1479.26 540.914 1485.02 Z" fill="#000000" fill-rule="nonzero" fill-opacity="1" /><path clip-path="url(#clip520)" d="M567.048 1483.08 L571.932 1483.08 L571.932 1488.96 L567.048 1488.96 L567.048 1483.08 Z" fill="#000000" fill-rule="nonzero" fill-opacity="1" /><path clip-path="url(#clip520)" d="M582.164 1454.4 L600.52 1454.4 L600.52 1458.33 L586.446 1458.33 L586.446 1466.8 Q587.465 1466.46 588.483 1466.29 Q589.502 1466.11 590.52 1466.11 Q596.307 1466.11 599.687 1469.28 Q603.066 1472.45 603.066 1477.87 Q603.066 1483.45 599.594 1486.55 Q596.122 1489.63 589.803 1489.63 Q587.627 1489.63 585.358 1489.26 Q583.113 1488.89 580.705 1488.15 L580.705 1483.45 Q582.789 1484.58 585.011 1485.14 Q587.233 1485.69 589.71 1485.69 Q593.715 1485.69 596.053 1483.59 Q598.39 1481.48 598.39 1477.87 Q598.39 1474.26 596.053 1472.15 Q593.715 1470.04 589.71 1470.04 Q587.835 1470.04 585.96 1470.46 Q584.108 1470.88 582.164 1471.76 L582.164 1454.4 Z" fill="#000000" fill-rule="nonzero" fill-opacity="1" /><path clip-path="url(#clip520)" d="M622.279 1457.48 Q618.668 1457.48 616.839 1461.04 Q615.034 1464.58 615.034 1471.71 Q615.034 1478.82 616.839 1482.38 Q618.668 1485.92 622.279 1485.92 Q625.913 1485.92 627.719 1482.38 Q629.548 1478.82 629.548 1471.71 Q629.548 1464.58 627.719 1461.04 Q625.913 1457.48 622.279 1457.48 M622.279 1453.77 Q628.089 1453.77 631.145 1458.38 Q634.224 1462.96 634.224 1471.71 Q634.224 1480.44 631.145 1485.04 Q628.089 1489.63 622.279 1489.63 Q616.469 1489.63 613.39 1485.04 Q610.335 1480.44 610.335 1471.71 Q610.335 1462.96 613.39 1458.38 Q616.469 1453.77 622.279 1453.77 Z" fill="#000000" fill-rule="nonzero" fill-opacity="1" /><path clip-path="url(#clip520)" d="M670.612 1463.49 L660.034 1474.12 L670.612 1484.7 L667.858 1487.5 L657.233 1476.87 L646.608 1487.5 L643.876 1484.7 L654.432 1474.12 L643.876 1463.49 L646.608 1460.69 L657.233 1471.32 L667.858 1460.69 L670.612 1463.49 Z" fill="#000000" fill-rule="nonzero" fill-opacity="1" /><path clip-path="url(#clip520)" d="M682.973 1485.02 L690.612 1485.02 L690.612 1458.66 L682.302 1460.32 L682.302 1456.06 L690.566 1454.4 L695.242 1454.4 L695.242 1485.02 L702.881 1485.02 L702.881 1488.96 L682.973 1488.96 L682.973 1485.02 Z" fill="#000000" fill-rule="nonzero" fill-opacity="1" /><path clip-path="url(#clip520)" d="M722.325 1457.48 Q718.714 1457.48 716.885 1461.04 Q715.08 1464.58 715.08 1471.71 Q715.08 1478.82 716.885 1482.38 Q718.714 1485.92 722.325 1485.92 Q725.959 1485.92 727.765 1482.38 Q729.593 1478.82 729.593 1471.71 Q729.593 1464.58 727.765 1461.04 Q725.959 1457.48 722.325 1457.48 M722.325 1453.77 Q728.135 1453.77 731.191 1458.38 Q734.269 1462.96 734.269 1471.71 Q734.269 1480.44 731.191 1485.04 Q728.135 1489.63 722.325 1489.63 Q716.515 1489.63 713.436 1485.04 Q710.381 1480.44 710.381 1471.71 Q710.381 1462.96 713.436 1458.38 Q716.515 1453.77 722.325 1453.77 Z" fill="#000000" fill-rule="nonzero" fill-opacity="1" /><path clip-path="url(#clip520)" d="M735.454 1433.47 L750.369 1433.47 L750.369 1436.66 L738.934 1436.66 L738.934 1443.55 Q739.761 1443.27 740.589 1443.13 Q741.416 1442.98 742.244 1442.98 Q746.946 1442.98 749.692 1445.56 Q752.438 1448.14 752.438 1452.54 Q752.438 1457.07 749.617 1459.59 Q746.795 1462.09 741.661 1462.09 Q739.893 1462.09 738.05 1461.79 Q736.225 1461.49 734.269 1460.89 L734.269 1457.07 Q735.962 1457.99 737.768 1458.44 Q739.573 1458.89 741.586 1458.89 Q744.839 1458.89 746.739 1457.18 Q748.639 1455.47 748.639 1452.54 Q748.639 1449.6 746.739 1447.89 Q744.839 1446.18 741.586 1446.18 Q740.062 1446.18 738.539 1446.52 Q737.034 1446.86 735.454 1447.57 L735.454 1433.47 Z" fill="#000000" fill-rule="nonzero" fill-opacity="1" /><path clip-path="url(#clip520)" d="M1010.01 1470.32 Q1013.37 1471.04 1015.24 1473.31 Q1017.14 1475.58 1017.14 1478.91 Q1017.14 1484.03 1013.62 1486.83 Q1010.1 1489.63 1003.62 1489.63 Q1001.44 1489.63 999.129 1489.19 Q996.838 1488.77 994.384 1487.91 L994.384 1483.4 Q996.328 1484.54 998.643 1485.11 Q1000.96 1485.69 1003.48 1485.69 Q1007.88 1485.69 1010.17 1483.96 Q1012.49 1482.22 1012.49 1478.91 Q1012.49 1475.85 1010.33 1474.14 Q1008.2 1472.41 1004.38 1472.41 L1000.36 1472.41 L1000.36 1468.56 L1004.57 1468.56 Q1008.02 1468.56 1009.85 1467.2 Q1011.68 1465.81 1011.68 1463.22 Q1011.68 1460.55 1009.78 1459.14 Q1007.9 1457.71 1004.38 1457.71 Q1002.46 1457.71 1000.26 1458.12 Q998.064 1458.54 995.426 1459.42 L995.426 1455.25 Q998.088 1454.51 1000.4 1454.14 Q1002.74 1453.77 1004.8 1453.77 Q1010.12 1453.77 1013.23 1456.2 Q1016.33 1458.61 1016.33 1462.73 Q1016.33 1465.6 1014.68 1467.59 Q1013.04 1469.56 1010.01 1470.32 Z" fill="#000000" fill-rule="nonzero" fill-opacity="1" /><path clip-path="url(#clip520)" d="M1026 1483.08 L1030.89 1483.08 L1030.89 1488.96 L1026 1488.96 L1026 1483.08 Z" fill="#000000" fill-rule="nonzero" fill-opacity="1" /><path clip-path="url(#clip520)" d="M1051.07 1457.48 Q1047.46 1457.48 1045.63 1461.04 Q1043.83 1464.58 1043.83 1471.71 Q1043.83 1478.82 1045.63 1482.38 Q1047.46 1485.92 1051.07 1485.92 Q1054.71 1485.92 1056.51 1482.38 Q1058.34 1478.82 1058.34 1471.71 Q1058.34 1464.58 1056.51 1461.04 Q1054.71 1457.48 1051.07 1457.48 M1051.07 1453.77 Q1056.88 1453.77 1059.94 1458.38 Q1063.02 1462.96 1063.02 1471.71 Q1063.02 1480.44 1059.94 1485.04 Q1056.88 1489.63 1051.07 1489.63 Q1045.26 1489.63 1042.18 1485.04 Q1039.13 1480.44 1039.13 1471.71 Q1039.13 1462.96 1042.18 1458.38 Q1045.26 1453.77 1051.07 1453.77 Z" fill="#000000" fill-rule="nonzero" fill-opacity="1" /><path clip-path="url(#clip520)" d="M1081.24 1457.48 Q1077.62 1457.48 1075.8 1461.04 Q1073.99 1464.58 1073.99 1471.71 Q1073.99 1478.82 1075.8 1482.38 Q1077.62 1485.92 1081.24 1485.92 Q1084.87 1485.92 1086.68 1482.38 Q1088.5 1478.82 1088.5 1471.71 Q1088.5 1464.58 1086.68 1461.04 Q1084.87 1457.48 1081.24 1457.48 M1081.24 1453.77 Q1087.05 1453.77 1090.1 1458.38 Q1093.18 1462.96 1093.18 1471.71 Q1093.18 1480.44 1090.1 1485.04 Q1087.05 1489.63 1081.24 1489.63 Q1075.43 1489.63 1072.35 1485.04 Q1069.29 1480.44 1069.29 1471.71 Q1069.29 1462.96 1072.35 1458.38 Q1075.43 1453.77 1081.24 1453.77 Z" fill="#000000" fill-rule="nonzero" fill-opacity="1" /><path clip-path="url(#clip520)" d="M1129.57 1463.49 L1118.99 1474.12 L1129.57 1484.7 L1126.81 1487.5 L1116.19 1476.87 L1105.56 1487.5 L1102.83 1484.7 L1113.39 1474.12 L1102.83 1463.49 L1105.56 1460.69 L1116.19 1471.32 L1126.81 1460.69 L1129.57 1463.49 Z" fill="#000000" fill-rule="nonzero" fill-opacity="1" /><path clip-path="url(#clip520)" d="M1141.93 1485.02 L1149.57 1485.02 L1149.57 1458.66 L1141.26 1460.32 L1141.26 1456.06 L1149.52 1454.4 L1154.2 1454.4 L1154.2 1485.02 L1161.84 1485.02 L1161.84 1488.96 L1141.93 1488.96 L1141.93 1485.02 Z" fill="#000000" fill-rule="nonzero" fill-opacity="1" /><path clip-path="url(#clip520)" d="M1181.28 1457.48 Q1177.67 1457.48 1175.84 1461.04 Q1174.04 1464.58 1174.04 1471.71 Q1174.04 1478.82 1175.84 1482.38 Q1177.67 1485.92 1181.28 1485.92 Q1184.92 1485.92 1186.72 1482.38 Q1188.55 1478.82 1188.55 1471.71 Q1188.55 1464.58 1186.72 1461.04 Q1184.92 1457.48 1181.28 1457.48 M1181.28 1453.77 Q1187.09 1453.77 1190.15 1458.38 Q1193.23 1462.96 1193.23 1471.71 Q1193.23 1480.44 1190.15 1485.04 Q1187.09 1489.63 1181.28 1489.63 Q1175.47 1489.63 1172.39 1485.04 Q1169.34 1480.44 1169.34 1471.71 Q1169.34 1462.96 1172.39 1458.38 Q1175.47 1453.77 1181.28 1453.77 Z" fill="#000000" fill-rule="nonzero" fill-opacity="1" /><path clip-path="url(#clip520)" d="M1194.41 1433.47 L1209.32 1433.47 L1209.32 1436.66 L1197.89 1436.66 L1197.89 1443.55 Q1198.72 1443.27 1199.54 1443.13 Q1200.37 1442.98 1201.2 1442.98 Q1205.9 1442.98 1208.65 1445.56 Q1211.39 1448.14 1211.39 1452.54 Q1211.39 1457.07 1208.57 1459.59 Q1205.75 1462.09 1200.62 1462.09 Q1198.85 1462.09 1197.01 1461.79 Q1195.18 1461.49 1193.23 1460.89 L1193.23 1457.07 Q1194.92 1457.99 1196.72 1458.44 Q1198.53 1458.89 1200.54 1458.89 Q1203.8 1458.89 1205.69 1457.18 Q1207.59 1455.47 1207.59 1452.54 Q1207.59 1449.6 1205.69 1447.89 Q1203.8 1446.18 1200.54 1446.18 Q1199.02 1446.18 1197.49 1446.52 Q1195.99 1446.86 1194.41 1447.57 L1194.41 1433.47 Z" fill="#000000" fill-rule="nonzero" fill-opacity="1" /><path clip-path="url(#clip520)" d="M1469.03 1470.32 Q1472.39 1471.04 1474.27 1473.31 Q1476.16 1475.58 1476.16 1478.91 Q1476.16 1484.03 1472.65 1486.83 Q1469.13 1489.63 1462.65 1489.63 Q1460.47 1489.63 1458.15 1489.19 Q1455.86 1488.77 1453.41 1487.91 L1453.41 1483.4 Q1455.35 1484.54 1457.67 1485.11 Q1459.98 1485.69 1462.51 1485.69 Q1466.9 1485.69 1469.2 1483.96 Q1471.51 1482.22 1471.51 1478.91 Q1471.51 1475.85 1469.36 1474.14 Q1467.23 1472.41 1463.41 1472.41 L1459.38 1472.41 L1459.38 1468.56 L1463.59 1468.56 Q1467.04 1468.56 1468.87 1467.2 Q1470.7 1465.81 1470.7 1463.22 Q1470.7 1460.55 1468.8 1459.14 Q1466.93 1457.71 1463.41 1457.71 Q1461.49 1457.71 1459.29 1458.12 Q1457.09 1458.54 1454.45 1459.42 L1454.45 1455.25 Q1457.11 1454.51 1459.43 1454.14 Q1461.77 1453.77 1463.83 1453.77 Q1469.15 1453.77 1472.25 1456.2 Q1475.35 1458.61 1475.35 1462.73 Q1475.35 1465.6 1473.71 1467.59 Q1472.07 1469.56 1469.03 1470.32 Z" fill="#000000" fill-rule="nonzero" fill-opacity="1" /><path clip-path="url(#clip520)" d="M1485.03 1483.08 L1489.91 1483.08 L1489.91 1488.96 L1485.03 1488.96 L1485.03 1483.08 Z" fill="#000000" fill-rule="nonzero" fill-opacity="1" /><path clip-path="url(#clip520)" d="M1500.15 1454.4 L1518.5 1454.4 L1518.5 1458.33 L1504.43 1458.33 L1504.43 1466.8 Q1505.45 1466.46 1506.46 1466.29 Q1507.48 1466.11 1508.5 1466.11 Q1514.29 1466.11 1517.67 1469.28 Q1521.05 1472.45 1521.05 1477.87 Q1521.05 1483.45 1517.58 1486.55 Q1514.1 1489.63 1507.78 1489.63 Q1505.61 1489.63 1503.34 1489.26 Q1501.09 1488.89 1498.69 1488.15 L1498.69 1483.45 Q1500.77 1484.58 1502.99 1485.14 Q1505.21 1485.69 1507.69 1485.69 Q1511.7 1485.69 1514.03 1483.59 Q1516.37 1481.48 1516.37 1477.87 Q1516.37 1474.26 1514.03 1472.15 Q1511.7 1470.04 1507.69 1470.04 Q1505.82 1470.04 1503.94 1470.46 Q1502.09 1470.88 1500.15 1471.76 L1500.15 1454.4 Z" fill="#000000" fill-rule="nonzero" fill-opacity="1" /><path clip-path="url(#clip520)" d="M1540.26 1457.48 Q1536.65 1457.48 1534.82 1461.04 Q1533.02 1464.58 1533.02 1471.71 Q1533.02 1478.82 1534.82 1482.38 Q1536.65 1485.92 1540.26 1485.92 Q1543.89 1485.92 1545.7 1482.38 Q1547.53 1478.82 1547.53 1471.71 Q1547.53 1464.58 1545.7 1461.04 Q1543.89 1457.48 1540.26 1457.48 M1540.26 1453.77 Q1546.07 1453.77 1549.13 1458.38 Q1552.21 1462.96 1552.21 1471.71 Q1552.21 1480.44 1549.13 1485.04 Q1546.07 1489.63 1540.26 1489.63 Q1534.45 1489.63 1531.37 1485.04 Q1528.32 1480.44 1528.32 1471.71 Q1528.32 1462.96 1531.37 1458.38 Q1534.45 1453.77 1540.26 1453.77 Z" fill="#000000" fill-rule="nonzero" fill-opacity="1" /><path clip-path="url(#clip520)" d="M1588.59 1463.49 L1578.02 1474.12 L1588.59 1484.7 L1585.84 1487.5 L1575.21 1476.87 L1564.59 1487.5 L1561.86 1484.7 L1572.41 1474.12 L1561.86 1463.49 L1564.59 1460.69 L1575.21 1471.32 L1585.84 1460.69 L1588.59 1463.49 Z" fill="#000000" fill-rule="nonzero" fill-opacity="1" /><path clip-path="url(#clip520)" d="M1600.95 1485.02 L1608.59 1485.02 L1608.59 1458.66 L1600.28 1460.32 L1600.28 1456.06 L1608.55 1454.4 L1613.22 1454.4 L1613.22 1485.02 L1620.86 1485.02 L1620.86 1488.96 L1600.95 1488.96 L1600.95 1485.02 Z" fill="#000000" fill-rule="nonzero" fill-opacity="1" /><path clip-path="url(#clip520)" d="M1640.31 1457.48 Q1636.7 1457.48 1634.87 1461.04 Q1633.06 1464.58 1633.06 1471.71 Q1633.06 1478.82 1634.87 1482.38 Q1636.7 1485.92 1640.31 1485.92 Q1643.94 1485.92 1645.75 1482.38 Q1647.57 1478.82 1647.57 1471.71 Q1647.57 1464.58 1645.75 1461.04 Q1643.94 1457.48 1640.31 1457.48 M1640.31 1453.77 Q1646.12 1453.77 1649.17 1458.38 Q1652.25 1462.96 1652.25 1471.71 Q1652.25 1480.44 1649.17 1485.04 Q1646.12 1489.63 1640.31 1489.63 Q1634.5 1489.63 1631.42 1485.04 Q1628.36 1480.44 1628.36 1471.71 Q1628.36 1462.96 1631.42 1458.38 Q1634.5 1453.77 1640.31 1453.77 Z" fill="#000000" fill-rule="nonzero" fill-opacity="1" /><path clip-path="url(#clip520)" d="M1653.44 1433.47 L1668.35 1433.47 L1668.35 1436.66 L1656.92 1436.66 L1656.92 1443.55 Q1657.74 1443.27 1658.57 1443.13 Q1659.4 1442.98 1660.23 1442.98 Q1664.93 1442.98 1667.67 1445.56 Q1670.42 1448.14 1670.42 1452.54 Q1670.42 1457.07 1667.6 1459.59 Q1664.78 1462.09 1659.64 1462.09 Q1657.87 1462.09 1656.03 1461.79 Q1654.21 1461.49 1652.25 1460.89 L1652.25 1457.07 Q1653.94 1457.99 1655.75 1458.44 Q1657.55 1458.89 1659.57 1458.89 Q1662.82 1458.89 1664.72 1457.18 Q1666.62 1455.47 1666.62 1452.54 Q1666.62 1449.6 1664.72 1447.89 Q1662.82 1446.18 1659.57 1446.18 Q1658.04 1446.18 1656.52 1446.52 Q1655.02 1446.86 1653.44 1447.57 L1653.44 1433.47 Z" fill="#000000" fill-rule="nonzero" fill-opacity="1" /><path clip-path="url(#clip520)" d="M1927.39 1458.47 L1915.58 1476.92 L1927.39 1476.92 L1927.39 1458.47 M1926.16 1454.4 L1932.04 1454.4 L1932.04 1476.92 L1936.97 1476.92 L1936.97 1480.81 L1932.04 1480.81 L1932.04 1488.96 L1927.39 1488.96 L1927.39 1480.81 L1911.79 1480.81 L1911.79 1476.29 L1926.16 1454.4 Z" fill="#000000" fill-rule="nonzero" fill-opacity="1" /><path clip-path="url(#clip520)" d="M1944.7 1483.08 L1949.59 1483.08 L1949.59 1488.96 L1944.7 1488.96 L1944.7 1483.08 Z" fill="#000000" fill-rule="nonzero" fill-opacity="1" /><path clip-path="url(#clip520)" d="M1969.77 1457.48 Q1966.16 1457.48 1964.33 1461.04 Q1962.53 1464.58 1962.53 1471.71 Q1962.53 1478.82 1964.33 1482.38 Q1966.16 1485.92 1969.77 1485.92 Q1973.41 1485.92 1975.21 1482.38 Q1977.04 1478.82 1977.04 1471.71 Q1977.04 1464.58 1975.21 1461.04 Q1973.41 1457.48 1969.77 1457.48 M1969.77 1453.77 Q1975.58 1453.77 1978.64 1458.38 Q1981.72 1462.96 1981.72 1471.71 Q1981.72 1480.44 1978.64 1485.04 Q1975.58 1489.63 1969.77 1489.63 Q1963.96 1489.63 1960.88 1485.04 Q1957.83 1480.44 1957.83 1471.71 Q1957.83 1462.96 1960.88 1458.38 Q1963.96 1453.77 1969.77 1453.77 Z" fill="#000000" fill-rule="nonzero" fill-opacity="1" /><path clip-path="url(#clip520)" d="M1999.93 1457.48 Q1996.32 1457.48 1994.49 1461.04 Q1992.69 1464.58 1992.69 1471.71 Q1992.69 1478.82 1994.49 1482.38 Q1996.32 1485.92 1999.93 1485.92 Q2003.57 1485.92 2005.37 1482.38 Q2007.2 1478.82 2007.2 1471.71 Q2007.2 1464.58 2005.37 1461.04 Q2003.57 1457.48 1999.93 1457.48 M1999.93 1453.77 Q2005.74 1453.77 2008.8 1458.38 Q2011.88 1462.96 2011.88 1471.71 Q2011.88 1480.44 2008.8 1485.04 Q2005.74 1489.63 1999.93 1489.63 Q1994.12 1489.63 1991.05 1485.04 Q1987.99 1480.44 1987.99 1471.71 Q1987.99 1462.96 1991.05 1458.38 Q1994.12 1453.77 1999.93 1453.77 Z" fill="#000000" fill-rule="nonzero" fill-opacity="1" /><path clip-path="url(#clip520)" d="M2048.27 1463.49 L2037.69 1474.12 L2048.27 1484.7 L2045.51 1487.5 L2034.89 1476.87 L2024.26 1487.5 L2021.53 1484.7 L2032.09 1474.12 L2021.53 1463.49 L2024.26 1460.69 L2034.89 1471.32 L2045.51 1460.69 L2048.27 1463.49 Z" fill="#000000" fill-rule="nonzero" fill-opacity="1" /><path clip-path="url(#clip520)" d="M2060.63 1485.02 L2068.27 1485.02 L2068.27 1458.66 L2059.96 1460.32 L2059.96 1456.06 L2068.22 1454.4 L2072.9 1454.4 L2072.9 1485.02 L2080.54 1485.02 L2080.54 1488.96 L2060.63 1488.96 L2060.63 1485.02 Z" fill="#000000" fill-rule="nonzero" fill-opacity="1" /><path clip-path="url(#clip520)" d="M2099.98 1457.48 Q2096.37 1457.48 2094.54 1461.04 Q2092.73 1464.58 2092.73 1471.71 Q2092.73 1478.82 2094.54 1482.38 Q2096.37 1485.92 2099.98 1485.92 Q2103.61 1485.92 2105.42 1482.38 Q2107.25 1478.82 2107.25 1471.71 Q2107.25 1464.58 2105.42 1461.04 Q2103.61 1457.48 2099.98 1457.48 M2099.98 1453.77 Q2105.79 1453.77 2108.85 1458.38 Q2111.92 1462.96 2111.92 1471.71 Q2111.92 1480.44 2108.85 1485.04 Q2105.79 1489.63 2099.98 1489.63 Q2094.17 1489.63 2091.09 1485.04 Q2088.04 1480.44 2088.04 1471.71 Q2088.04 1462.96 2091.09 1458.38 Q2094.17 1453.77 2099.98 1453.77 Z" fill="#000000" fill-rule="nonzero" fill-opacity="1" /><path clip-path="url(#clip520)" d="M2113.11 1433.47 L2128.02 1433.47 L2128.02 1436.66 L2116.59 1436.66 L2116.59 1443.55 Q2117.42 1443.27 2118.24 1443.13 Q2119.07 1442.98 2119.9 1442.98 Q2124.6 1442.98 2127.35 1445.56 Q2130.09 1448.14 2130.09 1452.54 Q2130.09 1457.07 2127.27 1459.59 Q2124.45 1462.09 2119.32 1462.09 Q2117.55 1462.09 2115.7 1461.79 Q2113.88 1461.49 2111.92 1460.89 L2111.92 1457.07 Q2113.62 1457.99 2115.42 1458.44 Q2117.23 1458.89 2119.24 1458.89 Q2122.49 1458.89 2124.39 1457.18 Q2126.29 1455.47 2126.29 1452.54 Q2126.29 1449.6 2124.39 1447.89 Q2122.49 1446.18 2119.24 1446.18 Q2117.72 1446.18 2116.19 1446.52 Q2114.69 1446.86 2113.11 1447.57 L2113.11 1433.47 Z" fill="#000000" fill-rule="nonzero" fill-opacity="1" /><path clip-path="url(#clip520)" d="M1112.55 1526.67 L1142.6 1526.67 L1142.6 1532.08 L1118.98 1532.08 L1118.98 1546.14 L1141.61 1546.14 L1141.61 1551.56 L1118.98 1551.56 L1118.98 1568.77 L1143.17 1568.77 L1143.17 1574.19 L1112.55 1574.19 L1112.55 1526.67 Z" fill="#000000" fill-rule="nonzero" fill-opacity="1" /><path clip-path="url(#clip520)" d="M1183.12 1552.67 L1183.12 1574.19 L1177.26 1574.19 L1177.26 1552.86 Q1177.26 1547.8 1175.29 1545.29 Q1173.31 1542.77 1169.37 1542.77 Q1164.63 1542.77 1161.89 1545.79 Q1159.15 1548.82 1159.15 1554.04 L1159.15 1574.19 L1153.26 1574.19 L1153.26 1538.54 L1159.15 1538.54 L1159.15 1544.08 Q1161.25 1540.86 1164.08 1539.27 Q1166.95 1537.68 1170.67 1537.68 Q1176.82 1537.68 1179.97 1541.5 Q1183.12 1545.29 1183.12 1552.67 Z" fill="#000000" fill-rule="nonzero" fill-opacity="1" /><path clip-path="url(#clip520)" d="M1200.59 1528.42 L1200.59 1538.54 L1212.65 1538.54 L1212.65 1543.09 L1200.59 1543.09 L1200.59 1562.44 Q1200.59 1566.8 1201.77 1568.04 Q1202.98 1569.28 1206.64 1569.28 L1212.65 1569.28 L1212.65 1574.19 L1206.64 1574.19 Q1199.86 1574.19 1197.28 1571.67 Q1194.7 1569.12 1194.7 1562.44 L1194.7 1543.09 L1190.41 1543.09 L1190.41 1538.54 L1194.7 1538.54 L1194.7 1528.42 L1200.59 1528.42 Z" fill="#000000" fill-rule="nonzero" fill-opacity="1" /><path clip-path="url(#clip520)" d="M1249.99 1552.67 L1249.99 1574.19 L1244.13 1574.19 L1244.13 1552.86 Q1244.13 1547.8 1242.16 1545.29 Q1240.19 1542.77 1236.24 1542.77 Q1231.5 1542.77 1228.76 1545.79 Q1226.02 1548.82 1226.02 1554.04 L1226.02 1574.19 L1220.13 1574.19 L1220.13 1524.66 L1226.02 1524.66 L1226.02 1544.08 Q1228.12 1540.86 1230.96 1539.27 Q1233.82 1537.68 1237.54 1537.68 Q1243.69 1537.68 1246.84 1541.5 Q1249.99 1545.29 1249.99 1552.67 Z" fill="#000000" fill-rule="nonzero" fill-opacity="1" /><path clip-path="url(#clip520)" d="M1277.87 1556.27 Q1270.77 1556.27 1268.04 1557.89 Q1265.3 1559.51 1265.3 1563.43 Q1265.3 1566.55 1267.34 1568.39 Q1269.41 1570.21 1272.94 1570.21 Q1277.81 1570.21 1280.74 1566.77 Q1283.7 1563.3 1283.7 1557.57 L1283.7 1556.27 L1277.87 1556.27 M1289.55 1553.85 L1289.55 1574.19 L1283.7 1574.19 L1283.7 1568.77 Q1281.69 1572.02 1278.7 1573.58 Q1275.71 1575.11 1271.38 1575.11 Q1265.9 1575.11 1262.66 1572.05 Q1259.44 1568.97 1259.44 1563.81 Q1259.44 1557.79 1263.45 1554.74 Q1267.5 1551.68 1275.48 1551.68 L1283.7 1551.68 L1283.7 1551.11 Q1283.7 1547.07 1281.02 1544.87 Q1278.38 1542.64 1273.57 1542.64 Q1270.52 1542.64 1267.62 1543.38 Q1264.73 1544.11 1262.05 1545.57 L1262.05 1540.16 Q1265.27 1538.92 1268.29 1538.31 Q1271.31 1537.68 1274.18 1537.68 Q1281.91 1537.68 1285.73 1541.69 Q1289.55 1545.7 1289.55 1553.85 Z" fill="#000000" fill-rule="nonzero" fill-opacity="1" /><path clip-path="url(#clip520)" d="M1301.62 1524.66 L1307.47 1524.66 L1307.47 1574.19 L1301.62 1574.19 L1301.62 1524.66 Z" fill="#000000" fill-rule="nonzero" fill-opacity="1" /><path clip-path="url(#clip520)" d="M1325.39 1568.84 L1325.39 1587.74 L1319.5 1587.74 L1319.5 1538.54 L1325.39 1538.54 L1325.39 1543.95 Q1327.24 1540.77 1330.04 1539.24 Q1332.87 1537.68 1336.79 1537.68 Q1343.28 1537.68 1347.32 1542.83 Q1351.4 1547.99 1351.4 1556.39 Q1351.4 1564.8 1347.32 1569.95 Q1343.28 1575.11 1336.79 1575.11 Q1332.87 1575.11 1330.04 1573.58 Q1327.24 1572.02 1325.39 1568.84 M1345.32 1556.39 Q1345.32 1549.93 1342.64 1546.27 Q1340 1542.58 1335.35 1542.58 Q1330.71 1542.58 1328.03 1546.27 Q1325.39 1549.93 1325.39 1556.39 Q1325.39 1562.85 1328.03 1566.55 Q1330.71 1570.21 1335.35 1570.21 Q1340 1570.21 1342.64 1566.55 Q1345.32 1562.85 1345.32 1556.39 Z" fill="#000000" fill-rule="nonzero" fill-opacity="1" /><path clip-path="url(#clip520)" d="M1375.94 1577.5 Q1373.45 1583.86 1371.1 1585.8 Q1368.74 1587.74 1364.8 1587.74 L1360.12 1587.74 L1360.12 1582.84 L1363.55 1582.84 Q1365.97 1582.84 1367.31 1581.7 Q1368.65 1580.55 1370.27 1576.29 L1371.32 1573.61 L1356.9 1538.54 L1363.11 1538.54 L1374.25 1566.42 L1385.39 1538.54 L1391.59 1538.54 L1375.94 1577.5 Z" fill="#000000" fill-rule="nonzero" fill-opacity="1" /><path clip-path="url(#clip520)" d="M1434.47 1524.72 Q1430.2 1532.04 1428.13 1539.21 Q1426.07 1546.37 1426.07 1553.72 Q1426.07 1561.07 1428.13 1568.3 Q1430.23 1575.49 1434.47 1582.78 L1429.38 1582.78 Q1424.6 1575.3 1422.21 1568.07 Q1419.86 1560.85 1419.86 1553.72 Q1419.86 1546.62 1422.21 1539.43 Q1424.57 1532.24 1429.38 1524.72 L1434.47 1524.72 Z" fill="#000000" fill-rule="nonzero" fill-opacity="1" /><path clip-path="url(#clip520)" d="M1446.09 1526.67 L1452.51 1526.67 L1452.51 1570.88 Q1452.51 1579.47 1449.24 1583.35 Q1445.99 1587.24 1438.76 1587.24 L1436.31 1587.24 L1436.31 1581.82 L1438.32 1581.82 Q1442.58 1581.82 1444.33 1579.44 Q1446.09 1577.05 1446.09 1570.88 L1446.09 1526.67 Z" fill="#000000" fill-rule="nonzero" fill-opacity="1" /><path clip-path="url(#clip520)" d="M1475.46 1526.67 L1480.87 1526.67 L1464.32 1580.23 L1458.91 1580.23 L1475.46 1526.67 Z" fill="#000000" fill-rule="nonzero" fill-opacity="1" /><path clip-path="url(#clip520)" d="M1486.79 1524.66 L1492.68 1524.66 L1492.68 1553.91 L1510.16 1538.54 L1517.64 1538.54 L1498.73 1555.22 L1518.43 1574.19 L1510.79 1574.19 L1492.68 1556.78 L1492.68 1574.19 L1486.79 1574.19 L1486.79 1524.66 Z" fill="#000000" fill-rule="nonzero" fill-opacity="1" /><path clip-path="url(#clip520)" d="M1548.22 1555.95 Q1548.22 1549.58 1545.58 1546.08 Q1542.97 1542.58 1538.23 1542.58 Q1533.52 1542.58 1530.88 1546.08 Q1528.27 1549.58 1528.27 1555.95 Q1528.27 1562.28 1530.88 1565.78 Q1533.52 1569.28 1538.23 1569.28 Q1542.97 1569.28 1545.58 1565.78 Q1548.22 1562.28 1548.22 1555.95 M1554.08 1569.76 Q1554.08 1578.86 1550.04 1583.29 Q1546 1587.74 1537.66 1587.74 Q1534.57 1587.74 1531.83 1587.27 Q1529.09 1586.82 1526.52 1585.87 L1526.52 1580.17 Q1529.09 1581.57 1531.61 1582.24 Q1534.12 1582.91 1536.73 1582.91 Q1542.49 1582.91 1545.36 1579.88 Q1548.22 1576.89 1548.22 1570.81 L1548.22 1567.92 Q1546.41 1571.07 1543.58 1572.63 Q1540.74 1574.19 1536.8 1574.19 Q1530.24 1574.19 1526.23 1569.19 Q1522.22 1564.19 1522.22 1555.95 Q1522.22 1547.67 1526.23 1542.68 Q1530.24 1537.68 1536.8 1537.68 Q1540.74 1537.68 1543.58 1539.24 Q1546.41 1540.8 1548.22 1543.95 L1548.22 1538.54 L1554.08 1538.54 L1554.08 1569.76 Z" fill="#000000" fill-rule="nonzero" fill-opacity="1" /><path clip-path="url(#clip520)" d="M1565.22 1524.72 L1570.31 1524.72 Q1575.09 1532.24 1577.44 1539.43 Q1579.83 1546.62 1579.83 1553.72 Q1579.83 1560.85 1577.44 1568.07 Q1575.09 1575.3 1570.31 1582.78 L1565.22 1582.78 Q1569.45 1575.49 1571.52 1568.3 Q1573.62 1561.07 1573.62 1553.72 Q1573.62 1546.37 1571.52 1539.21 Q1569.45 1532.04 1565.22 1524.72 Z" fill="#000000" fill-rule="nonzero" fill-opacity="1" /><polyline clip-path="url(#clip520)" style="stroke:#000000; stroke-linecap:round; stroke-linejoin:round; stroke-width:4; stroke-opacity:1; fill:none" points="339.627,1410.9 339.627,47.2441 "/>
<polyline clip-path="url(#clip520)" style="stroke:#000000; stroke-linecap:round; stroke-linejoin:round; stroke-width:4; stroke-opacity:1; fill:none" points="339.627,1229.52 358.525,1229.52 "/>
<polyline clip-path="url(#clip520)" style="stroke:#000000; stroke-linecap:round; stroke-linejoin:round; stroke-width:4; stroke-opacity:1; fill:none" points="339.627,855.677 358.525,855.677 "/>
<polyline clip-path="url(#clip520)" style="stroke:#000000; stroke-linecap:round; stroke-linejoin:round; stroke-width:4; stroke-opacity:1; fill:none" points="339.627,481.838 358.525,481.838 "/>
<polyline clip-path="url(#clip520)" style="stroke:#000000; stroke-linecap:round; stroke-linejoin:round; stroke-width:4; stroke-opacity:1; fill:none" points="339.627,107.999 358.525,107.999 "/>
<path clip-path="url(#clip520)" d="M117.825 1249.31 L125.464 1249.31 L125.464 1222.94 L117.154 1224.61 L117.154 1220.35 L125.418 1218.68 L130.093 1218.68 L130.093 1249.31 L137.732 1249.31 L137.732 1253.24 L117.825 1253.24 L117.825 1249.31 Z" fill="#000000" fill-rule="nonzero" fill-opacity="1" /><path clip-path="url(#clip520)" d="M147.177 1247.36 L152.061 1247.36 L152.061 1253.24 L147.177 1253.24 L147.177 1247.36 Z" fill="#000000" fill-rule="nonzero" fill-opacity="1" /><path clip-path="url(#clip520)" d="M172.246 1221.76 Q168.635 1221.76 166.806 1225.33 Q165.001 1228.87 165.001 1236 Q165.001 1243.1 166.806 1246.67 Q168.635 1250.21 172.246 1250.21 Q175.88 1250.21 177.686 1246.67 Q179.514 1243.1 179.514 1236 Q179.514 1228.87 177.686 1225.33 Q175.88 1221.76 172.246 1221.76 M172.246 1218.06 Q178.056 1218.06 181.112 1222.66 Q184.19 1227.25 184.19 1236 Q184.19 1244.72 181.112 1249.33 Q178.056 1253.91 172.246 1253.91 Q166.436 1253.91 163.357 1249.33 Q160.302 1244.72 160.302 1236 Q160.302 1227.25 163.357 1222.66 Q166.436 1218.06 172.246 1218.06 Z" fill="#000000" fill-rule="nonzero" fill-opacity="1" /><path clip-path="url(#clip520)" d="M220.579 1227.78 L210 1238.41 L220.579 1248.98 L217.824 1251.78 L207.199 1241.16 L196.575 1251.78 L193.843 1248.98 L204.399 1238.41 L193.843 1227.78 L196.575 1224.98 L207.199 1235.6 L217.824 1224.98 L220.579 1227.78 Z" fill="#000000" fill-rule="nonzero" fill-opacity="1" /><path clip-path="url(#clip520)" d="M232.94 1249.31 L240.579 1249.31 L240.579 1222.94 L232.269 1224.61 L232.269 1220.35 L240.533 1218.68 L245.209 1218.68 L245.209 1249.31 L252.847 1249.31 L252.847 1253.24 L232.94 1253.24 L232.94 1249.31 Z" fill="#000000" fill-rule="nonzero" fill-opacity="1" /><path clip-path="url(#clip520)" d="M272.292 1221.76 Q268.681 1221.76 266.852 1225.33 Q265.046 1228.87 265.046 1236 Q265.046 1243.1 266.852 1246.67 Q268.681 1250.21 272.292 1250.21 Q275.926 1250.21 277.732 1246.67 Q279.56 1243.1 279.56 1236 Q279.56 1228.87 277.732 1225.33 Q275.926 1221.76 272.292 1221.76 M272.292 1218.06 Q278.102 1218.06 281.157 1222.66 Q284.236 1227.25 284.236 1236 Q284.236 1244.72 281.157 1249.33 Q278.102 1253.91 272.292 1253.91 Q266.482 1253.91 263.403 1249.33 Q260.347 1244.72 260.347 1236 Q260.347 1227.25 263.403 1222.66 Q266.482 1218.06 272.292 1218.06 Z" fill="#000000" fill-rule="nonzero" fill-opacity="1" /><path clip-path="url(#clip520)" d="M294.261 1210.28 Q291.703 1210.28 290.198 1212.03 Q288.712 1213.78 288.712 1216.82 Q288.712 1219.85 290.198 1221.62 Q291.703 1223.37 294.261 1223.37 Q296.818 1223.37 298.304 1221.62 Q299.809 1219.85 299.809 1216.82 Q299.809 1213.78 298.304 1212.03 Q296.818 1210.28 294.261 1210.28 M301.803 1198.37 L301.803 1201.83 Q300.373 1201.16 298.906 1200.8 Q297.458 1200.44 296.029 1200.44 Q292.267 1200.44 290.273 1202.98 Q288.299 1205.52 288.016 1210.65 Q289.126 1209.02 290.8 1208.15 Q292.474 1207.27 294.486 1207.27 Q298.718 1207.27 301.163 1209.85 Q303.627 1212.4 303.627 1216.82 Q303.627 1221.15 301.069 1223.76 Q298.511 1226.38 294.261 1226.38 Q289.389 1226.38 286.813 1222.65 Q284.236 1218.91 284.236 1211.82 Q284.236 1205.16 287.396 1201.21 Q290.556 1197.24 295.878 1197.24 Q297.307 1197.24 298.756 1197.53 Q300.223 1197.81 301.803 1198.37 Z" fill="#000000" fill-rule="nonzero" fill-opacity="1" /><path clip-path="url(#clip520)" d="M121.043 875.469 L137.362 875.469 L137.362 879.404 L115.418 879.404 L115.418 875.469 Q118.08 872.715 122.663 868.085 Q127.269 863.432 128.45 862.09 Q130.695 859.566 131.575 857.83 Q132.478 856.071 132.478 854.381 Q132.478 851.627 130.533 849.891 Q128.612 848.155 125.51 848.155 Q123.311 848.155 120.857 848.918 Q118.427 849.682 115.649 851.233 L115.649 846.511 Q118.473 845.377 120.927 844.798 Q123.38 844.219 125.418 844.219 Q130.788 844.219 133.982 846.905 Q137.177 849.59 137.177 854.08 Q137.177 856.21 136.367 858.131 Q135.579 860.029 133.473 862.622 Q132.894 863.293 129.792 866.511 Q126.691 869.705 121.043 875.469 Z" fill="#000000" fill-rule="nonzero" fill-opacity="1" /><path clip-path="url(#clip520)" d="M147.177 873.525 L152.061 873.525 L152.061 879.404 L147.177 879.404 L147.177 873.525 Z" fill="#000000" fill-rule="nonzero" fill-opacity="1" /><path clip-path="url(#clip520)" d="M172.246 847.923 Q168.635 847.923 166.806 851.488 Q165.001 855.029 165.001 862.159 Q165.001 869.266 166.806 872.83 Q168.635 876.372 172.246 876.372 Q175.88 876.372 177.686 872.83 Q179.514 869.266 179.514 862.159 Q179.514 855.029 177.686 851.488 Q175.88 847.923 172.246 847.923 M172.246 844.219 Q178.056 844.219 181.112 848.826 Q184.19 853.409 184.19 862.159 Q184.19 870.886 181.112 875.492 Q178.056 880.076 172.246 880.076 Q166.436 880.076 163.357 875.492 Q160.302 870.886 160.302 862.159 Q160.302 853.409 163.357 848.826 Q166.436 844.219 172.246 844.219 Z" fill="#000000" fill-rule="nonzero" fill-opacity="1" /><path clip-path="url(#clip520)" d="M220.579 853.942 L210 864.566 L220.579 875.145 L217.824 877.946 L207.199 867.321 L196.575 877.946 L193.843 875.145 L204.399 864.566 L193.843 853.942 L196.575 851.141 L207.199 861.766 L217.824 851.141 L220.579 853.942 Z" fill="#000000" fill-rule="nonzero" fill-opacity="1" /><path clip-path="url(#clip520)" d="M232.94 875.469 L240.579 875.469 L240.579 849.104 L232.269 850.77 L232.269 846.511 L240.533 844.844 L245.209 844.844 L245.209 875.469 L252.847 875.469 L252.847 879.404 L232.94 879.404 L232.94 875.469 Z" fill="#000000" fill-rule="nonzero" fill-opacity="1" /><path clip-path="url(#clip520)" d="M272.292 847.923 Q268.681 847.923 266.852 851.488 Q265.046 855.029 265.046 862.159 Q265.046 869.266 266.852 872.83 Q268.681 876.372 272.292 876.372 Q275.926 876.372 277.732 872.83 Q279.56 869.266 279.56 862.159 Q279.56 855.029 277.732 851.488 Q275.926 847.923 272.292 847.923 M272.292 844.219 Q278.102 844.219 281.157 848.826 Q284.236 853.409 284.236 862.159 Q284.236 870.886 281.157 875.492 Q278.102 880.076 272.292 880.076 Q266.482 880.076 263.403 875.492 Q260.347 870.886 260.347 862.159 Q260.347 853.409 263.403 848.826 Q266.482 844.219 272.292 844.219 Z" fill="#000000" fill-rule="nonzero" fill-opacity="1" /><path clip-path="url(#clip520)" d="M294.261 836.44 Q291.703 836.44 290.198 838.189 Q288.712 839.938 288.712 842.985 Q288.712 846.013 290.198 847.781 Q291.703 849.53 294.261 849.53 Q296.818 849.53 298.304 847.781 Q299.809 846.013 299.809 842.985 Q299.809 839.938 298.304 838.189 Q296.818 836.44 294.261 836.44 M301.803 824.535 L301.803 827.995 Q300.373 827.318 298.906 826.961 Q297.458 826.603 296.029 826.603 Q292.267 826.603 290.273 829.143 Q288.299 831.682 288.016 836.816 Q289.126 835.18 290.8 834.315 Q292.474 833.431 294.486 833.431 Q298.718 833.431 301.163 836.007 Q303.627 838.565 303.627 842.985 Q303.627 847.311 301.069 849.925 Q298.511 852.539 294.261 852.539 Q289.389 852.539 286.813 848.815 Q284.236 845.073 284.236 837.982 Q284.236 831.324 287.396 827.375 Q290.556 823.406 295.878 823.406 Q297.307 823.406 298.756 823.688 Q300.223 823.97 301.803 824.535 Z" fill="#000000" fill-rule="nonzero" fill-opacity="1" /><path clip-path="url(#clip520)" d="M131.181 486.931 Q134.538 487.649 136.413 489.918 Q138.311 492.186 138.311 495.519 Q138.311 500.635 134.792 503.436 Q131.274 506.237 124.793 506.237 Q122.617 506.237 120.302 505.797 Q118.01 505.38 115.556 504.524 L115.556 500.01 Q117.501 501.144 119.816 501.723 Q122.13 502.302 124.654 502.302 Q129.052 502.302 131.343 500.566 Q133.658 498.829 133.658 495.519 Q133.658 492.464 131.505 490.751 Q129.376 489.015 125.556 489.015 L121.529 489.015 L121.529 485.172 L125.742 485.172 Q129.191 485.172 131.019 483.806 Q132.848 482.418 132.848 479.825 Q132.848 477.163 130.95 475.751 Q129.075 474.316 125.556 474.316 Q123.635 474.316 121.436 474.732 Q119.237 475.149 116.598 476.029 L116.598 471.862 Q119.26 471.121 121.575 470.751 Q123.913 470.381 125.973 470.381 Q131.297 470.381 134.399 472.811 Q137.501 475.219 137.501 479.339 Q137.501 482.209 135.857 484.2 Q134.214 486.168 131.181 486.931 Z" fill="#000000" fill-rule="nonzero" fill-opacity="1" /><path clip-path="url(#clip520)" d="M147.177 499.686 L152.061 499.686 L152.061 505.566 L147.177 505.566 L147.177 499.686 Z" fill="#000000" fill-rule="nonzero" fill-opacity="1" /><path clip-path="url(#clip520)" d="M172.246 474.084 Q168.635 474.084 166.806 477.649 Q165.001 481.191 165.001 488.32 Q165.001 495.427 166.806 498.992 Q168.635 502.533 172.246 502.533 Q175.88 502.533 177.686 498.992 Q179.514 495.427 179.514 488.32 Q179.514 481.191 177.686 477.649 Q175.88 474.084 172.246 474.084 M172.246 470.381 Q178.056 470.381 181.112 474.987 Q184.19 479.57 184.19 488.32 Q184.19 497.047 181.112 501.654 Q178.056 506.237 172.246 506.237 Q166.436 506.237 163.357 501.654 Q160.302 497.047 160.302 488.32 Q160.302 479.57 163.357 474.987 Q166.436 470.381 172.246 470.381 Z" fill="#000000" fill-rule="nonzero" fill-opacity="1" /><path clip-path="url(#clip520)" d="M220.579 480.103 L210 490.728 L220.579 501.306 L217.824 504.107 L207.199 493.482 L196.575 504.107 L193.843 501.306 L204.399 490.728 L193.843 480.103 L196.575 477.302 L207.199 487.927 L217.824 477.302 L220.579 480.103 Z" fill="#000000" fill-rule="nonzero" fill-opacity="1" /><path clip-path="url(#clip520)" d="M232.94 501.63 L240.579 501.63 L240.579 475.265 L232.269 476.931 L232.269 472.672 L240.533 471.006 L245.209 471.006 L245.209 501.63 L252.847 501.63 L252.847 505.566 L232.94 505.566 L232.94 501.63 Z" fill="#000000" fill-rule="nonzero" fill-opacity="1" /><path clip-path="url(#clip520)" d="M272.292 474.084 Q268.681 474.084 266.852 477.649 Q265.046 481.191 265.046 488.32 Q265.046 495.427 266.852 498.992 Q268.681 502.533 272.292 502.533 Q275.926 502.533 277.732 498.992 Q279.56 495.427 279.56 488.32 Q279.56 481.191 277.732 477.649 Q275.926 474.084 272.292 474.084 M272.292 470.381 Q278.102 470.381 281.157 474.987 Q284.236 479.57 284.236 488.32 Q284.236 497.047 281.157 501.654 Q278.102 506.237 272.292 506.237 Q266.482 506.237 263.403 501.654 Q260.347 497.047 260.347 488.32 Q260.347 479.57 263.403 474.987 Q266.482 470.381 272.292 470.381 Z" fill="#000000" fill-rule="nonzero" fill-opacity="1" /><path clip-path="url(#clip520)" d="M294.261 462.601 Q291.703 462.601 290.198 464.35 Q288.712 466.099 288.712 469.146 Q288.712 472.174 290.198 473.942 Q291.703 475.691 294.261 475.691 Q296.818 475.691 298.304 473.942 Q299.809 472.174 299.809 469.146 Q299.809 466.099 298.304 464.35 Q296.818 462.601 294.261 462.601 M301.803 450.696 L301.803 454.156 Q300.373 453.479 298.906 453.122 Q297.458 452.765 296.029 452.765 Q292.267 452.765 290.273 455.304 Q288.299 457.843 288.016 462.977 Q289.126 461.341 290.8 460.476 Q292.474 459.592 294.486 459.592 Q298.718 459.592 301.163 462.169 Q303.627 464.726 303.627 469.146 Q303.627 473.472 301.069 476.086 Q298.511 478.701 294.261 478.701 Q289.389 478.701 286.813 474.977 Q284.236 471.234 284.236 464.143 Q284.236 457.485 287.396 453.536 Q290.556 449.567 295.878 449.567 Q297.307 449.567 298.756 449.849 Q300.223 450.132 301.803 450.696 Z" fill="#000000" fill-rule="nonzero" fill-opacity="1" /><path clip-path="url(#clip520)" d="M129.862 101.241 L118.056 119.69 L129.862 119.69 L129.862 101.241 M128.635 97.1668 L134.515 97.1668 L134.515 119.69 L139.445 119.69 L139.445 123.579 L134.515 123.579 L134.515 131.727 L129.862 131.727 L129.862 123.579 L114.26 123.579 L114.26 119.065 L128.635 97.1668 Z" fill="#000000" fill-rule="nonzero" fill-opacity="1" /><path clip-path="url(#clip520)" d="M147.177 125.847 L152.061 125.847 L152.061 131.727 L147.177 131.727 L147.177 125.847 Z" fill="#000000" fill-rule="nonzero" fill-opacity="1" /><path clip-path="url(#clip520)" d="M172.246 100.245 Q168.635 100.245 166.806 103.81 Q165.001 107.352 165.001 114.482 Q165.001 121.588 166.806 125.153 Q168.635 128.694 172.246 128.694 Q175.88 128.694 177.686 125.153 Q179.514 121.588 179.514 114.482 Q179.514 107.352 177.686 103.81 Q175.88 100.245 172.246 100.245 M172.246 96.5418 Q178.056 96.5418 181.112 101.148 Q184.19 105.732 184.19 114.482 Q184.19 123.208 181.112 127.815 Q178.056 132.398 172.246 132.398 Q166.436 132.398 163.357 127.815 Q160.302 123.208 160.302 114.482 Q160.302 105.732 163.357 101.148 Q166.436 96.5418 172.246 96.5418 Z" fill="#000000" fill-rule="nonzero" fill-opacity="1" /><path clip-path="url(#clip520)" d="M220.579 106.264 L210 116.889 L220.579 127.468 L217.824 130.268 L207.199 119.644 L196.575 130.268 L193.843 127.468 L204.399 116.889 L193.843 106.264 L196.575 103.463 L207.199 114.088 L217.824 103.463 L220.579 106.264 Z" fill="#000000" fill-rule="nonzero" fill-opacity="1" /><path clip-path="url(#clip520)" d="M232.94 127.792 L240.579 127.792 L240.579 101.426 L232.269 103.093 L232.269 98.8335 L240.533 97.1668 L245.209 97.1668 L245.209 127.792 L252.847 127.792 L252.847 131.727 L232.94 131.727 L232.94 127.792 Z" fill="#000000" fill-rule="nonzero" fill-opacity="1" /><path clip-path="url(#clip520)" d="M272.292 100.245 Q268.681 100.245 266.852 103.81 Q265.046 107.352 265.046 114.482 Q265.046 121.588 266.852 125.153 Q268.681 128.694 272.292 128.694 Q275.926 128.694 277.732 125.153 Q279.56 121.588 279.56 114.482 Q279.56 107.352 277.732 103.81 Q275.926 100.245 272.292 100.245 M272.292 96.5418 Q278.102 96.5418 281.157 101.148 Q284.236 105.732 284.236 114.482 Q284.236 123.208 281.157 127.815 Q278.102 132.398 272.292 132.398 Q266.482 132.398 263.403 127.815 Q260.347 123.208 260.347 114.482 Q260.347 105.732 263.403 101.148 Q266.482 96.5418 272.292 96.5418 Z" fill="#000000" fill-rule="nonzero" fill-opacity="1" /><path clip-path="url(#clip520)" d="M294.261 88.7624 Q291.703 88.7624 290.198 90.5115 Q288.712 92.2606 288.712 95.3075 Q288.712 98.3355 290.198 100.103 Q291.703 101.853 294.261 101.853 Q296.818 101.853 298.304 100.103 Q299.809 98.3355 299.809 95.3075 Q299.809 92.2606 298.304 90.5115 Q296.818 88.7624 294.261 88.7624 M301.803 76.8571 L301.803 80.3177 Q300.373 79.6406 298.906 79.2833 Q297.458 78.9259 296.029 78.9259 Q292.267 78.9259 290.273 81.465 Q288.299 84.004 288.016 89.1385 Q289.126 87.5023 290.8 86.6371 Q292.474 85.7531 294.486 85.7531 Q298.718 85.7531 301.163 88.3298 Q303.627 90.8876 303.627 95.3075 Q303.627 99.6333 301.069 102.248 Q298.511 104.862 294.261 104.862 Q289.389 104.862 286.813 101.138 Q284.236 97.3951 284.236 90.3046 Q284.236 83.6467 287.396 79.697 Q290.556 75.7286 295.878 75.7286 Q297.307 75.7286 298.756 76.0107 Q300.223 76.2928 301.803 76.8571 Z" fill="#000000" fill-rule="nonzero" fill-opacity="1" /><path clip-path="url(#clip520)" d="M21.7677 929.765 L39.6235 929.765 L39.6235 921.681 Q39.6235 917.193 37.3 914.742 Q34.9765 912.291 30.6797 912.291 Q26.4147 912.291 24.0912 914.742 Q21.7677 917.193 21.7677 921.681 L21.7677 929.765 M16.4842 936.195 L16.4842 921.681 Q16.4842 913.692 20.1126 909.618 Q23.7092 905.512 30.6797 905.512 Q37.7138 905.512 41.3104 909.618 Q44.907 913.692 44.907 921.681 L44.907 929.765 L64.0042 929.765 L64.0042 936.195 L16.4842 936.195 Z" fill="#000000" fill-rule="nonzero" fill-opacity="1" /><path clip-path="url(#clip520)" d="M33.8307 877.63 Q33.2578 878.617 33.0032 879.794 Q32.7167 880.94 32.7167 882.341 Q32.7167 887.306 35.9632 889.98 Q39.1779 892.621 45.2253 892.621 L64.0042 892.621 L64.0042 898.51 L28.3562 898.51 L28.3562 892.621 L33.8944 892.621 Q30.6479 890.775 29.0883 887.815 Q27.4968 884.855 27.4968 880.622 Q27.4968 880.017 27.5923 879.285 Q27.656 878.553 27.8151 877.662 L33.8307 877.63 Z" fill="#000000" fill-rule="nonzero" fill-opacity="1" /><path clip-path="url(#clip520)" d="M44.7161 842.428 L47.5806 842.428 L47.5806 869.355 Q53.6281 868.973 56.8109 865.726 Q59.9619 862.448 59.9619 856.623 Q59.9619 853.249 59.1344 850.098 Q58.3069 846.916 56.6518 843.796 L62.1899 843.796 Q63.5267 846.947 64.227 850.258 Q64.9272 853.568 64.9272 856.973 Q64.9272 865.503 59.9619 870.5 Q54.9967 875.466 46.5303 875.466 Q37.7774 875.466 32.6531 870.755 Q27.4968 866.013 27.4968 857.992 Q27.4968 850.799 32.1438 846.629 Q36.7589 842.428 44.7161 842.428 M42.9973 848.284 Q38.1912 848.348 35.3266 850.99 Q32.4621 853.6 32.4621 857.928 Q32.4621 862.83 35.2312 865.79 Q38.0002 868.718 43.0292 869.164 L42.9973 848.284 Z" fill="#000000" fill-rule="nonzero" fill-opacity="1" /><path clip-path="url(#clip520)" d="M29.4065 810.09 L34.9447 810.09 Q33.6716 812.573 33.035 815.246 Q32.3984 817.92 32.3984 820.784 Q32.3984 825.145 33.7352 827.341 Q35.072 829.505 37.7456 829.505 Q39.7826 829.505 40.9603 827.946 Q42.1061 826.386 43.1565 821.675 L43.6021 819.67 Q44.9389 813.432 47.3897 810.822 Q49.8086 808.18 54.1691 808.18 Q59.1344 808.18 62.0308 812.127 Q64.9272 816.042 64.9272 822.917 Q64.9272 825.781 64.3543 828.901 Q63.8132 831.988 62.6992 835.425 L56.6518 835.425 Q58.3387 832.179 59.198 829.028 Q60.0256 825.877 60.0256 822.789 Q60.0256 818.652 58.6251 816.424 Q57.1929 814.196 54.6147 814.196 Q52.2276 814.196 50.9545 815.819 Q49.6813 817.41 48.5037 822.853 L48.0262 824.89 Q46.8804 830.333 44.5251 832.752 Q42.138 835.171 38.0002 835.171 Q32.9713 835.171 30.2341 831.606 Q27.4968 828.041 27.4968 821.485 Q27.4968 818.238 27.9743 815.373 Q28.4517 812.509 29.4065 810.09 Z" fill="#000000" fill-rule="nonzero" fill-opacity="1" /><path clip-path="url(#clip520)" d="M29.4065 776.129 L34.9447 776.129 Q33.6716 778.611 33.035 781.285 Q32.3984 783.959 32.3984 786.823 Q32.3984 791.184 33.7352 793.38 Q35.072 795.544 37.7456 795.544 Q39.7826 795.544 40.9603 793.985 Q42.1061 792.425 43.1565 787.714 L43.6021 785.709 Q44.9389 779.471 47.3897 776.861 Q49.8086 774.219 54.1691 774.219 Q59.1344 774.219 62.0308 778.166 Q64.9272 782.081 64.9272 788.956 Q64.9272 791.82 64.3543 794.94 Q63.8132 798.027 62.6992 801.464 L56.6518 801.464 Q58.3387 798.218 59.198 795.067 Q60.0256 791.916 60.0256 788.828 Q60.0256 784.691 58.6251 782.463 Q57.1929 780.235 54.6147 780.235 Q52.2276 780.235 50.9545 781.858 Q49.6813 783.449 48.5037 788.892 L48.0262 790.929 Q46.8804 796.372 44.5251 798.791 Q42.138 801.21 38.0002 801.21 Q32.9713 801.21 30.2341 797.645 Q27.4968 794.08 27.4968 787.523 Q27.4968 784.277 27.9743 781.412 Q28.4517 778.548 29.4065 776.129 Z" fill="#000000" fill-rule="nonzero" fill-opacity="1" /><path clip-path="url(#clip520)" d="M49.9359 765.498 L28.3562 765.498 L28.3562 759.642 L49.7131 759.642 Q54.7739 759.642 57.3202 757.668 Q59.8346 755.695 59.8346 751.748 Q59.8346 747.006 56.8109 744.268 Q53.7872 741.499 48.5673 741.499 L28.3562 741.499 L28.3562 735.643 L64.0042 735.643 L64.0042 741.499 L58.5296 741.499 Q61.7762 743.632 63.3676 746.465 Q64.9272 749.266 64.9272 752.99 Q64.9272 759.132 61.1078 762.315 Q57.2883 765.498 49.9359 765.498 M27.4968 750.762 L27.4968 750.762 Z" fill="#000000" fill-rule="nonzero" fill-opacity="1" /><path clip-path="url(#clip520)" d="M33.8307 702.923 Q33.2578 703.91 33.0032 705.088 Q32.7167 706.233 32.7167 707.634 Q32.7167 712.599 35.9632 715.273 Q39.1779 717.914 45.2253 717.914 L64.0042 717.914 L64.0042 723.803 L28.3562 723.803 L28.3562 717.914 L33.8944 717.914 Q30.6479 716.068 29.0883 713.108 Q27.4968 710.148 27.4968 705.915 Q27.4968 705.31 27.5923 704.578 Q27.656 703.846 27.8151 702.955 L33.8307 702.923 Z" fill="#000000" fill-rule="nonzero" fill-opacity="1" /><path clip-path="url(#clip520)" d="M44.7161 667.721 L47.5806 667.721 L47.5806 694.648 Q53.6281 694.266 56.8109 691.019 Q59.9619 687.741 59.9619 681.916 Q59.9619 678.543 59.1344 675.392 Q58.3069 672.209 56.6518 669.089 L62.1899 669.089 Q63.5267 672.241 64.227 675.551 Q64.9272 678.861 64.9272 682.267 Q64.9272 690.797 59.9619 695.794 Q54.9967 700.759 46.5303 700.759 Q37.7774 700.759 32.6531 696.048 Q27.4968 691.306 27.4968 683.285 Q27.4968 676.092 32.1438 671.922 Q36.7589 667.721 44.7161 667.721 M42.9973 673.577 Q38.1912 673.641 35.3266 676.283 Q32.4621 678.893 32.4621 683.221 Q32.4621 688.123 35.2312 691.083 Q38.0002 694.011 43.0292 694.457 L42.9973 673.577 Z" fill="#000000" fill-rule="nonzero" fill-opacity="1" /><path clip-path="url(#clip520)" d="M14.5426 623.32 Q21.8632 627.585 29.0246 629.654 Q36.186 631.723 43.5384 631.723 Q50.8908 631.723 58.1159 629.654 Q65.3091 627.553 72.5979 623.32 L72.5979 628.413 Q65.1182 633.187 57.8931 635.574 Q50.668 637.929 43.5384 637.929 Q36.4406 637.929 29.2474 635.574 Q22.0542 633.219 14.5426 628.413 L14.5426 623.32 Z" fill="#000000" fill-rule="nonzero" fill-opacity="1" /><path clip-path="url(#clip520)" d="M21.7677 605.273 L39.6235 605.273 L39.6235 597.189 Q39.6235 592.701 37.3 590.25 Q34.9765 587.799 30.6797 587.799 Q26.4147 587.799 24.0912 590.25 Q21.7677 592.701 21.7677 597.189 L21.7677 605.273 M16.4842 611.703 L16.4842 597.189 Q16.4842 589.2 20.1126 585.126 Q23.7092 581.02 30.6797 581.02 Q37.7138 581.02 41.3104 585.126 Q44.907 589.2 44.907 597.189 L44.907 605.273 L64.0042 605.273 L64.0042 611.703 L16.4842 611.703 Z" fill="#000000" fill-rule="nonzero" fill-opacity="1" /><path clip-path="url(#clip520)" d="M46.0847 559.377 Q46.0847 566.474 47.7079 569.212 Q49.3312 571.949 53.2461 571.949 Q56.3653 571.949 58.2114 569.912 Q60.0256 567.843 60.0256 564.31 Q60.0256 559.44 56.5881 556.512 Q53.1188 553.552 47.3897 553.552 L46.0847 553.552 L46.0847 559.377 M43.6657 547.695 L64.0042 547.695 L64.0042 553.552 L58.5933 553.552 Q61.8398 555.557 63.3994 558.549 Q64.9272 561.541 64.9272 565.87 Q64.9272 571.344 61.8716 574.591 Q58.7843 577.805 53.6281 577.805 Q47.6125 577.805 44.5569 573.795 Q41.5014 569.753 41.5014 561.764 L41.5014 553.552 L40.9285 553.552 Q36.8862 553.552 34.6901 556.226 Q32.4621 558.867 32.4621 563.673 Q32.4621 566.729 33.1941 569.625 Q33.9262 572.522 35.3903 575.195 L29.9795 575.195 Q28.7381 571.981 28.1334 568.957 Q27.4968 565.933 27.4968 563.069 Q27.4968 555.334 31.5072 551.515 Q35.5176 547.695 43.6657 547.695 Z" fill="#000000" fill-rule="nonzero" fill-opacity="1" /><path clip-path="url(#clip520)" d="M14.5426 536.555 L14.5426 531.463 Q22.0542 526.689 29.2474 524.333 Q36.4406 521.946 43.5384 521.946 Q50.668 521.946 57.8931 524.333 Q65.1182 526.689 72.5979 531.463 L72.5979 536.555 Q65.3091 532.322 58.1159 530.253 Q50.8908 528.153 43.5384 528.153 Q36.186 528.153 29.0246 530.253 Q21.8632 532.322 14.5426 536.555 Z" fill="#000000" fill-rule="nonzero" fill-opacity="1" /><polyline clip-path="url(#clip522)" style="stroke:#009af9; stroke-linecap:round; stroke-linejoin:round; stroke-width:4; stroke-opacity:1; fill:none" points="469.976,1372.3 493.636,1359.31 516.475,1346.31 538.564,1333.32 559.967,1320.32 580.741,1307.33 600.932,1294.34 620.586,1281.34 639.739,1268.35 658.427,1255.35 676.68,1242.36 694.526,1229.36 711.991,1216.37 729.098,1203.37 745.867,1190.38 762.318,1177.38 778.469,1164.39 794.334,1151.39 809.931,1138.4 825.272,1125.41 840.37,1112.41 855.238,1099.42 869.886,1086.42 884.324,1073.43 898.564,1060.43 912.613,1047.44 926.48,1034.44 940.173,1021.45 953.701,1008.45 967.069,995.46 980.286,982.465 993.357,969.47 1006.29,956.476 1019.09,943.481 1031.76,930.487 1044.3,917.492 1056.73,904.497 1069.05,891.503 1081.26,878.508 1093.36,865.514 1105.37,852.519 1117.28,839.524 1129.09,826.53 1140.83,813.535 1152.47,800.541 1164.04,787.546 1175.53,774.551 1186.95,761.557 1198.3,748.562 1209.59,735.568 1220.81,722.573 1231.97,709.578 1243.08,696.584 1254.13,683.589 1265.14,670.595 1276.1,657.6 1287.01,644.606 1297.89,631.611 1308.73,618.616 1319.54,605.622 1330.31,592.627 1341.06,579.633 1351.79,566.638 1362.5,553.643 1373.19,540.649 1383.87,527.654 1394.54,514.66 1405.21,501.665 1415.88,488.67 1426.56,475.676 1437.24,462.681 1447.94,449.687 1458.66,436.692 1469.41,423.697 1480.19,410.703 1491.01,397.708 1501.88,384.714 1512.81,371.719 1523.8,358.724 1534.87,345.73 1546.02,332.735 1557.28,319.741 1568.65,306.746 1580.16,293.752 1591.82,280.757 1603.66,267.762 1615.71,254.768 1628,241.773 1640.57,228.779 1653.49,215.784 1666.81,202.789 1680.63,189.795 1695.08,176.8 1710.33,163.806 1726.64,150.811 1744.45,137.816 1764.5,124.822 1788.39,111.827 1858.84,98.8326 1925.82,85.838 "/>
<polyline clip-path="url(#clip522)" style="stroke:#e26f46; stroke-linecap:round; stroke-linejoin:round; stroke-width:4; stroke-opacity:1; fill:none" points="2122.63,1372.3 2131.19,1359.31 2139.3,1346.31 2147,1333.32 2154.32,1320.32 2161.28,1307.33 2167.92,1294.34 2174.26,1281.34 2180.31,1268.35 2186.09,1255.35 2191.62,1242.36 2196.92,1229.36 2201.99,1216.37 2206.84,1203.37 2211.5,1190.38 2215.96,1177.38 2220.23,1164.39 2224.33,1151.39 2228.26,1138.4 2232.02,1125.41 2235.63,1112.41 2239.09,1099.42 2242.4,1086.42 2245.57,1073.43 2248.6,1060.43 2251.49,1047.44 2254.26,1034.44 2256.9,1021.45 2259.42,1008.45 2261.82,995.46 2264.1,982.465 2266.26,969.47 2268.31,956.476 2270.25,943.481 2272.08,930.487 2273.8,917.492 2275.42,904.497 2276.93,891.503 2278.34,878.508 2279.64,865.514 2280.85,852.519 2281.95,839.524 2282.96,826.53 2283.86,813.535 2284.66,800.541 2285.37,787.546 2285.98,774.551 2286.48,761.557 2286.89,748.562 2287.21,735.568 2287.42,722.573 2287.53,709.578 2287.54,696.584 2287.45,683.589 2287.26,670.595 2286.96,657.6 2286.56,644.606 2286.06,631.611 2285.45,618.616 2284.72,605.622 2283.89,592.627 2282.95,579.633 2281.89,566.638 2280.71,553.643 2279.41,540.649 2277.99,527.654 2276.44,514.66 2274.75,501.665 2272.94,488.67 2270.98,475.676 2268.88,462.681 2266.62,449.687 2264.21,436.692 2261.64,423.697 2258.89,410.703 2255.96,397.708 2252.84,384.714 2249.52,371.719 2245.99,358.724 2242.23,345.73 2238.23,332.735 2233.97,319.741 2229.42,306.746 2224.57,293.752 2219.39,280.757 2213.83,267.762 2207.87,254.768 2201.45,241.773 2194.51,228.779 2186.98,215.784 2178.75,202.789 2169.71,189.795 2159.68,176.8 2148.42,163.806 2135.56,150.811 2120.53,137.816 2102.33,124.822 2078.87,111.827 1858.93,98.8326 1925.82,85.838 "/>
<circle clip-path="url(#clip522)" cx="396.602" cy="1372.3" r="14.4" fill="#3da44d" fill-rule="evenodd" fill-opacity="1" stroke="#000000" stroke-opacity="1" stroke-width="3.2"/>
<circle clip-path="url(#clip522)" cx="413.454" cy="947.123" r="14.4" fill="#3da44d" fill-rule="evenodd" fill-opacity="1" stroke="#000000" stroke-opacity="1" stroke-width="3.2"/>
<circle clip-path="url(#clip522)" cx="2295.78" cy="947.123" r="14.4" fill="#3da44d" fill-rule="evenodd" fill-opacity="1" stroke="#000000" stroke-opacity="1" stroke-width="3.2"/>
<circle clip-path="url(#clip522)" cx="2199.32" cy="1372.3" r="14.4" fill="#3da44d" fill-rule="evenodd" fill-opacity="1" stroke="#000000" stroke-opacity="1" stroke-width="3.2"/>
<polyline clip-path="url(#clip522)" style="stroke:#c271d2; stroke-linecap:round; stroke-linejoin:round; stroke-width:4; stroke-opacity:1; fill:none" points="396.602,1372.3 396.772,1368.01 396.943,1363.71 397.113,1359.42 397.283,1355.12 397.453,1350.83 397.624,1346.53 397.794,1342.24 397.964,1337.94 398.134,1333.65 398.304,1329.36 398.475,1325.06 398.645,1320.77 398.815,1316.47 398.985,1312.18 399.156,1307.88 399.326,1303.59 399.496,1299.29 399.666,1295 399.836,1290.7 400.007,1286.41 400.177,1282.11 400.347,1277.82 400.517,1273.52 400.688,1269.23 400.858,1264.93 401.028,1260.64 401.198,1256.34 401.368,1252.05 401.539,1247.76 401.709,1243.46 401.879,1239.17 402.049,1234.87 402.22,1230.58 402.39,1226.28 402.56,1221.99 402.73,1217.69 402.9,1213.4 403.071,1209.1 403.241,1204.81 403.411,1200.51 403.581,1196.22 403.752,1191.92 403.922,1187.63 404.092,1183.33 404.262,1179.04 404.432,1174.74 404.603,1170.45 404.773,1166.15 404.943,1161.86 405.113,1157.57 405.284,1153.27 405.454,1148.98 405.624,1144.68 405.794,1140.39 405.964,1136.09 406.135,1131.8 406.305,1127.5 406.475,1123.21 406.645,1118.91 406.816,1114.62 406.986,1110.32 407.156,1106.03 407.326,1101.73 407.496,1097.44 407.667,1093.14 407.837,1088.85 408.007,1084.55 408.177,1080.26 408.348,1075.97 408.518,1071.67 408.688,1067.38 408.858,1063.08 409.028,1058.79 409.199,1054.49 409.369,1050.2 409.539,1045.9 409.709,1041.61 409.879,1037.31 410.05,1033.02 410.22,1028.72 410.39,1024.43 410.56,1020.13 410.731,1015.84 410.901,1011.54 411.071,1007.25 411.241,1002.95 411.411,998.66 411.582,994.365 411.752,990.07 411.922,985.776 412.092,981.481 412.263,977.186 412.433,972.891 412.603,968.597 412.773,964.302 412.943,960.007 413.114,955.712 413.284,951.418 413.454,947.123 432.468,947.123 451.481,947.123 470.494,947.123 489.508,947.123 508.521,947.123 527.535,947.123 546.548,947.123 565.561,947.123 584.575,947.123 603.588,947.123 622.602,947.123 641.615,947.123 660.628,947.123 679.642,947.123 698.655,947.123 717.669,947.123 736.682,947.123 755.695,947.123 774.709,947.123 793.722,947.123 812.735,947.123 831.749,947.123 850.762,947.123 869.776,947.123 888.789,947.123 907.802,947.123 926.816,947.123 945.829,947.123 964.843,947.123 983.856,947.123 1002.87,947.123 1021.88,947.123 1040.9,947.123 1059.91,947.123 1078.92,947.123 1097.94,947.123 1116.95,947.123 1135.96,947.123 1154.98,947.123 1173.99,947.123 1193,947.123 1212.02,947.123 1231.03,947.123 1250.04,947.123 1269.06,947.123 1288.07,947.123 1307.08,947.123 1326.1,947.123 1345.11,947.123 1364.12,947.123 1383.14,947.123 1402.15,947.123 1421.16,947.123 1440.18,947.123 1459.19,947.123 1478.2,947.123 1497.22,947.123 1516.23,947.123 1535.24,947.123 1554.26,947.123 1573.27,947.123 1592.28,947.123 1611.3,947.123 1630.31,947.123 1649.33,947.123 1668.34,947.123 1687.35,947.123 1706.37,947.123 1725.38,947.123 1744.39,947.123 1763.41,947.123 1782.42,947.123 1801.43,947.123 1820.45,947.123 1839.46,947.123 1858.47,947.123 1877.49,947.123 1896.5,947.123 1915.51,947.123 1934.53,947.123 1953.54,947.123 1972.55,947.123 1991.57,947.123 2010.58,947.123 2029.59,947.123 2048.61,947.123 2067.62,947.123 2086.63,947.123 2105.65,947.123 2124.66,947.123 2143.67,947.123 2162.69,947.123 2181.7,947.123 2200.71,947.123 2219.73,947.123 2238.74,947.123 2257.75,947.123 2276.77,947.123 2295.78,947.123 2294.81,951.418 2293.83,955.712 2292.86,960.007 2291.88,964.302 2290.91,968.597 2289.93,972.891 2288.96,977.186 2287.99,981.481 2287.01,985.776 2286.04,990.07 2285.06,994.365 2284.09,998.66 2283.11,1002.95 2282.14,1007.25 2281.16,1011.54 2280.19,1015.84 2279.22,1020.13 2278.24,1024.43 2277.27,1028.72 2276.29,1033.02 2275.32,1037.31 2274.34,1041.61 2273.37,1045.9 2272.4,1050.2 2271.42,1054.49 2270.45,1058.79 2269.47,1063.08 2268.5,1067.38 2267.52,1071.67 2266.55,1075.97 2265.57,1080.26 2264.6,1084.55 2263.63,1088.85 2262.65,1093.14 2261.68,1097.44 2260.7,1101.73 2259.73,1106.03 2258.75,1110.32 2257.78,1114.62 2256.81,1118.91 2255.83,1123.21 2254.86,1127.5 2253.88,1131.8 2252.91,1136.09 2251.93,1140.39 2250.96,1144.68 2249.98,1148.98 2249.01,1153.27 2248.04,1157.57 2247.06,1161.86 2246.09,1166.15 2245.11,1170.45 2244.14,1174.74 2243.16,1179.04 2242.19,1183.33 2241.21,1187.63 2240.24,1191.92 2239.27,1196.22 2238.29,1200.51 2237.32,1204.81 2236.34,1209.1 2235.37,1213.4 2234.39,1217.69 2233.42,1221.99 2232.45,1226.28 2231.47,1230.58 2230.5,1234.87 2229.52,1239.17 2228.55,1243.46 2227.57,1247.76 2226.6,1252.05 2225.62,1256.34 2224.65,1260.64 2223.68,1264.93 2222.7,1269.23 2221.73,1273.52 2220.75,1277.82 2219.78,1282.11 2218.8,1286.41 2217.83,1290.7 2216.86,1295 2215.88,1299.29 2214.91,1303.59 2213.93,1307.88 2212.96,1312.18 2211.98,1316.47 2211.01,1320.77 2210.03,1325.06 2209.06,1329.36 2208.09,1333.65 2207.11,1337.94 2206.14,1342.24 2205.16,1346.53 2204.19,1350.83 2203.21,1355.12 2202.24,1359.42 2201.27,1363.71 2200.29,1368.01 2199.32,1372.3 2181.11,1372.3 2162.9,1372.3 2144.69,1372.3 2126.48,1372.3 2108.27,1372.3 2090.06,1372.3 2071.85,1372.3 2053.64,1372.3 2035.43,1372.3 2017.22,1372.3 1999.01,1372.3 1980.81,1372.3 1962.6,1372.3 1944.39,1372.3 1926.18,1372.3 1907.97,1372.3 1889.76,1372.3 1871.55,1372.3 1853.34,1372.3 1835.13,1372.3 1816.92,1372.3 1798.71,1372.3 1780.5,1372.3 1762.29,1372.3 1744.09,1372.3 1725.88,1372.3 1707.67,1372.3 1689.46,1372.3 1671.25,1372.3 1653.04,1372.3 1634.83,1372.3 1616.62,1372.3 1598.41,1372.3 1580.2,1372.3 1561.99,1372.3 1543.78,1372.3 1525.57,1372.3 1507.37,1372.3 1489.16,1372.3 1470.95,1372.3 1452.74,1372.3 1434.53,1372.3 1416.32,1372.3 1398.11,1372.3 1379.9,1372.3 1361.69,1372.3 1343.48,1372.3 1325.27,1372.3 1307.06,1372.3 1288.85,1372.3 1270.65,1372.3 1252.44,1372.3 1234.23,1372.3 1216.02,1372.3 1197.81,1372.3 1179.6,1372.3 1161.39,1372.3 1143.18,1372.3 1124.97,1372.3 1106.76,1372.3 1088.55,1372.3 1070.34,1372.3 1052.13,1372.3 1033.93,1372.3 1015.72,1372.3 997.507,1372.3 979.298,1372.3 961.089,1372.3 942.879,1372.3 924.67,1372.3 906.461,1372.3 888.252,1372.3 870.042,1372.3 851.833,1372.3 833.624,1372.3 815.415,1372.3 797.205,1372.3 778.996,1372.3 760.787,1372.3 742.578,1372.3 724.368,1372.3 706.159,1372.3 687.95,1372.3 669.741,1372.3 651.532,1372.3 633.322,1372.3 615.113,1372.3 596.904,1372.3 578.695,1372.3 560.485,1372.3 542.276,1372.3 524.067,1372.3 505.858,1372.3 487.648,1372.3 469.439,1372.3 451.23,1372.3 433.021,1372.3 414.811,1372.3 396.602,1372.3 "/>
<path clip-path="url(#clip520)" d="M406.731 351.899 L1147.49 351.899 L1147.49 92.6992 L406.731 92.6992  Z" fill="#ffffff" fill-rule="evenodd" fill-opacity="1"/>
<polyline clip-path="url(#clip520)" style="stroke:#000000; stroke-linecap:round; stroke-linejoin:round; stroke-width:4; stroke-opacity:1; fill:none" points="406.731,351.899 1147.49,351.899 1147.49,92.6992 406.731,92.6992 406.731,351.899 "/>
<polyline clip-path="url(#clip520)" style="stroke:#009af9; stroke-linecap:round; stroke-linejoin:round; stroke-width:4; stroke-opacity:1; fill:none" points="429.099,144.539 563.308,144.539 "/>
<path clip-path="url(#clip520)" d="M607.921 128.393 L607.921 132.954 Q605.259 131.68 602.898 131.055 Q600.537 130.43 598.338 130.43 Q594.519 130.43 592.435 131.912 Q590.375 133.393 590.375 136.125 Q590.375 138.417 591.741 139.597 Q593.13 140.754 596.972 141.472 L599.796 142.051 Q605.028 143.046 607.505 145.569 Q610.005 148.069 610.005 152.282 Q610.005 157.305 606.625 159.898 Q603.269 162.49 596.764 162.49 Q594.31 162.49 591.532 161.935 Q588.778 161.379 585.815 160.291 L585.815 155.477 Q588.662 157.074 591.394 157.884 Q594.125 158.694 596.764 158.694 Q600.769 158.694 602.944 157.12 Q605.12 155.546 605.12 152.629 Q605.12 150.083 603.546 148.648 Q601.995 147.213 598.431 146.495 L595.583 145.94 Q590.352 144.898 588.014 142.676 Q585.676 140.454 585.676 136.495 Q585.676 131.912 588.894 129.273 Q592.134 126.634 597.806 126.634 Q600.236 126.634 602.759 127.074 Q605.282 127.514 607.921 128.393 Z" fill="#000000" fill-rule="nonzero" fill-opacity="1" /><path clip-path="url(#clip520)" d="M628.893 148.787 Q623.731 148.787 621.741 149.967 Q619.75 151.148 619.75 153.995 Q619.75 156.264 621.231 157.606 Q622.736 158.926 625.305 158.926 Q628.847 158.926 630.977 156.426 Q633.129 153.903 633.129 149.736 L633.129 148.787 L628.893 148.787 M637.389 147.028 L637.389 161.819 L633.129 161.819 L633.129 157.884 Q631.671 160.245 629.495 161.379 Q627.319 162.49 624.171 162.49 Q620.19 162.49 617.829 160.268 Q615.491 158.023 615.491 154.273 Q615.491 149.898 618.407 147.676 Q621.347 145.454 627.157 145.454 L633.129 145.454 L633.129 145.037 Q633.129 142.097 631.185 140.5 Q629.264 138.879 625.768 138.879 Q623.546 138.879 621.44 139.412 Q619.333 139.944 617.389 141.009 L617.389 137.074 Q619.727 136.171 621.926 135.731 Q624.125 135.268 626.208 135.268 Q631.833 135.268 634.611 138.185 Q637.389 141.102 637.389 147.028 Z" fill="#000000" fill-rule="nonzero" fill-opacity="1" /><path clip-path="url(#clip520)" d="M650.375 128.532 L650.375 135.893 L659.148 135.893 L659.148 139.204 L650.375 139.204 L650.375 153.278 Q650.375 156.449 651.231 157.352 Q652.111 158.254 654.773 158.254 L659.148 158.254 L659.148 161.819 L654.773 161.819 Q649.842 161.819 647.967 159.99 Q646.092 158.139 646.092 153.278 L646.092 139.204 L642.967 139.204 L642.967 135.893 L646.092 135.893 L646.092 128.532 L650.375 128.532 Z" fill="#000000" fill-rule="nonzero" fill-opacity="1" /><path clip-path="url(#clip520)" d="M664.31 151.588 L664.31 135.893 L668.569 135.893 L668.569 151.426 Q668.569 155.106 670.004 156.958 Q671.439 158.787 674.31 158.787 Q677.759 158.787 679.75 156.588 Q681.763 154.389 681.763 150.592 L681.763 135.893 L686.023 135.893 L686.023 161.819 L681.763 161.819 L681.763 157.838 Q680.213 160.199 678.152 161.356 Q676.115 162.49 673.407 162.49 Q668.939 162.49 666.625 159.713 Q664.31 156.935 664.31 151.588 M675.027 135.268 L675.027 135.268 Z" fill="#000000" fill-rule="nonzero" fill-opacity="1" /><path clip-path="url(#clip520)" d="M709.819 139.875 Q709.101 139.458 708.245 139.273 Q707.411 139.065 706.393 139.065 Q702.782 139.065 700.837 141.426 Q698.916 143.764 698.916 148.162 L698.916 161.819 L694.634 161.819 L694.634 135.893 L698.916 135.893 L698.916 139.921 Q700.259 137.56 702.411 136.426 Q704.564 135.268 707.643 135.268 Q708.083 135.268 708.615 135.338 Q709.148 135.384 709.796 135.5 L709.819 139.875 Z" fill="#000000" fill-rule="nonzero" fill-opacity="1" /><path clip-path="url(#clip520)" d="M726.069 148.787 Q720.907 148.787 718.916 149.967 Q716.925 151.148 716.925 153.995 Q716.925 156.264 718.407 157.606 Q719.911 158.926 722.481 158.926 Q726.022 158.926 728.152 156.426 Q730.305 153.903 730.305 149.736 L730.305 148.787 L726.069 148.787 M734.564 147.028 L734.564 161.819 L730.305 161.819 L730.305 157.884 Q728.847 160.245 726.671 161.379 Q724.495 162.49 721.347 162.49 Q717.365 162.49 715.004 160.268 Q712.666 158.023 712.666 154.273 Q712.666 149.898 715.583 147.676 Q718.523 145.454 724.333 145.454 L730.305 145.454 L730.305 145.037 Q730.305 142.097 728.36 140.5 Q726.439 138.879 722.944 138.879 Q720.722 138.879 718.615 139.412 Q716.509 139.944 714.564 141.009 L714.564 137.074 Q716.902 136.171 719.101 135.731 Q721.3 135.268 723.384 135.268 Q729.009 135.268 731.786 138.185 Q734.564 141.102 734.564 147.028 Z" fill="#000000" fill-rule="nonzero" fill-opacity="1" /><path clip-path="url(#clip520)" d="M747.55 128.532 L747.55 135.893 L756.323 135.893 L756.323 139.204 L747.55 139.204 L747.55 153.278 Q747.55 156.449 748.407 157.352 Q749.286 158.254 751.948 158.254 L756.323 158.254 L756.323 161.819 L751.948 161.819 Q747.018 161.819 745.143 159.99 Q743.268 158.139 743.268 153.278 L743.268 139.204 L740.143 139.204 L740.143 135.893 L743.268 135.893 L743.268 128.532 L747.55 128.532 Z" fill="#000000" fill-rule="nonzero" fill-opacity="1" /><path clip-path="url(#clip520)" d="M761.925 135.893 L766.184 135.893 L766.184 161.819 L761.925 161.819 L761.925 135.893 M761.925 125.801 L766.184 125.801 L766.184 131.194 L761.925 131.194 L761.925 125.801 Z" fill="#000000" fill-rule="nonzero" fill-opacity="1" /><path clip-path="url(#clip520)" d="M785.143 138.879 Q781.717 138.879 779.726 141.565 Q777.735 144.227 777.735 148.879 Q777.735 153.532 779.703 156.217 Q781.693 158.879 785.143 158.879 Q788.545 158.879 790.536 156.194 Q792.527 153.509 792.527 148.879 Q792.527 144.273 790.536 141.588 Q788.545 138.879 785.143 138.879 M785.143 135.268 Q790.698 135.268 793.869 138.879 Q797.041 142.491 797.041 148.879 Q797.041 155.245 793.869 158.879 Q790.698 162.49 785.143 162.49 Q779.564 162.49 776.393 158.879 Q773.244 155.245 773.244 148.879 Q773.244 142.491 776.393 138.879 Q779.564 135.268 785.143 135.268 Z" fill="#000000" fill-rule="nonzero" fill-opacity="1" /><path clip-path="url(#clip520)" d="M825.652 146.171 L825.652 161.819 L821.392 161.819 L821.392 146.31 Q821.392 142.629 819.957 140.801 Q818.522 138.972 815.652 138.972 Q812.203 138.972 810.212 141.171 Q808.221 143.37 808.221 147.166 L808.221 161.819 L803.939 161.819 L803.939 135.893 L808.221 135.893 L808.221 139.921 Q809.749 137.583 811.809 136.426 Q813.892 135.268 816.601 135.268 Q821.068 135.268 823.36 138.046 Q825.652 140.801 825.652 146.171 Z" fill="#000000" fill-rule="nonzero" fill-opacity="1" /><path clip-path="url(#clip520)" d="M875.281 129.921 L875.281 134.852 Q872.92 132.653 870.235 131.565 Q867.573 130.477 864.563 130.477 Q858.638 130.477 855.489 134.111 Q852.341 137.722 852.341 144.574 Q852.341 151.403 855.489 155.037 Q858.638 158.648 864.563 158.648 Q867.573 158.648 870.235 157.56 Q872.92 156.472 875.281 154.273 L875.281 159.157 Q872.827 160.824 870.073 161.657 Q867.341 162.49 864.286 162.49 Q856.438 162.49 851.925 157.699 Q847.411 152.884 847.411 144.574 Q847.411 136.241 851.925 131.449 Q856.438 126.634 864.286 126.634 Q867.387 126.634 870.119 127.468 Q872.874 128.278 875.281 129.921 Z" fill="#000000" fill-rule="nonzero" fill-opacity="1" /><path clip-path="url(#clip520)" d="M881.878 151.588 L881.878 135.893 L886.137 135.893 L886.137 151.426 Q886.137 155.106 887.573 156.958 Q889.008 158.787 891.878 158.787 Q895.327 158.787 897.318 156.588 Q899.332 154.389 899.332 150.592 L899.332 135.893 L903.591 135.893 L903.591 161.819 L899.332 161.819 L899.332 157.838 Q897.781 160.199 895.721 161.356 Q893.684 162.49 890.975 162.49 Q886.508 162.49 884.193 159.713 Q881.878 156.935 881.878 151.588 M892.596 135.268 L892.596 135.268 Z" fill="#000000" fill-rule="nonzero" fill-opacity="1" /><path clip-path="url(#clip520)" d="M927.387 139.875 Q926.67 139.458 925.813 139.273 Q924.98 139.065 923.961 139.065 Q920.35 139.065 918.406 141.426 Q916.484 143.764 916.484 148.162 L916.484 161.819 L912.202 161.819 L912.202 135.893 L916.484 135.893 L916.484 139.921 Q917.827 137.56 919.98 136.426 Q922.133 135.268 925.211 135.268 Q925.651 135.268 926.183 135.338 Q926.716 135.384 927.364 135.5 L927.387 139.875 Z" fill="#000000" fill-rule="nonzero" fill-opacity="1" /><path clip-path="url(#clip520)" d="M928.799 135.893 L933.313 135.893 L941.415 157.653 L949.517 135.893 L954.031 135.893 L944.308 161.819 L938.521 161.819 L928.799 135.893 Z" fill="#000000" fill-rule="nonzero" fill-opacity="1" /><path clip-path="url(#clip520)" d="M982.086 147.791 L982.086 149.875 L962.503 149.875 Q962.78 154.273 965.142 156.588 Q967.526 158.879 971.762 158.879 Q974.216 158.879 976.507 158.278 Q978.822 157.676 981.091 156.472 L981.091 160.5 Q978.799 161.472 976.392 161.981 Q973.984 162.49 971.507 162.49 Q965.304 162.49 961.669 158.879 Q958.058 155.268 958.058 149.111 Q958.058 142.745 961.484 139.018 Q964.933 135.268 970.767 135.268 Q975.998 135.268 979.03 138.648 Q982.086 142.004 982.086 147.791 M977.827 146.541 Q977.78 143.046 975.859 140.963 Q973.961 138.879 970.813 138.879 Q967.248 138.879 965.095 140.893 Q962.966 142.907 962.642 146.565 L977.827 146.541 Z" fill="#000000" fill-rule="nonzero" fill-opacity="1" /><path clip-path="url(#clip520)" d="M1004.15 125.801 L1008.41 125.801 L1008.41 161.819 L1004.15 161.819 L1004.15 125.801 Z" fill="#000000" fill-rule="nonzero" fill-opacity="1" /><path clip-path="url(#clip520)" d="M1017.32 135.893 L1021.58 135.893 L1021.58 161.819 L1017.32 161.819 L1017.32 135.893 M1017.32 125.801 L1021.58 125.801 L1021.58 131.194 L1017.32 131.194 L1017.32 125.801 Z" fill="#000000" fill-rule="nonzero" fill-opacity="1" /><path clip-path="url(#clip520)" d="M1033.03 148.879 Q1033.03 153.578 1034.96 156.264 Q1036.9 158.926 1040.28 158.926 Q1043.66 158.926 1045.6 156.264 Q1047.55 153.578 1047.55 148.879 Q1047.55 144.18 1045.6 141.518 Q1043.66 138.833 1040.28 138.833 Q1036.9 138.833 1034.96 141.518 Q1033.03 144.18 1033.03 148.879 M1047.55 157.93 Q1046.21 160.245 1044.15 161.379 Q1042.11 162.49 1039.24 162.49 Q1034.54 162.49 1031.58 158.74 Q1028.64 154.991 1028.64 148.879 Q1028.64 142.768 1031.58 139.018 Q1034.54 135.268 1039.24 135.268 Q1042.11 135.268 1044.15 136.403 Q1046.21 137.514 1047.55 139.829 L1047.55 135.893 L1051.81 135.893 L1051.81 171.68 L1047.55 171.68 L1047.55 157.93 Z" fill="#000000" fill-rule="nonzero" fill-opacity="1" /><path clip-path="url(#clip520)" d="M1060.14 151.588 L1060.14 135.893 L1064.4 135.893 L1064.4 151.426 Q1064.4 155.106 1065.84 156.958 Q1067.27 158.787 1070.14 158.787 Q1073.59 158.787 1075.58 156.588 Q1077.59 154.389 1077.59 150.592 L1077.59 135.893 L1081.85 135.893 L1081.85 161.819 L1077.59 161.819 L1077.59 157.838 Q1076.04 160.199 1073.98 161.356 Q1071.95 162.49 1069.24 162.49 Q1064.77 162.49 1062.46 159.713 Q1060.14 156.935 1060.14 151.588 M1070.86 135.268 L1070.86 135.268 Z" fill="#000000" fill-rule="nonzero" fill-opacity="1" /><path clip-path="url(#clip520)" d="M1090.63 135.893 L1094.89 135.893 L1094.89 161.819 L1090.63 161.819 L1090.63 135.893 M1090.63 125.801 L1094.89 125.801 L1094.89 131.194 L1090.63 131.194 L1090.63 125.801 Z" fill="#000000" fill-rule="nonzero" fill-opacity="1" /><path clip-path="url(#clip520)" d="M1120.86 139.829 L1120.86 125.801 L1125.12 125.801 L1125.12 161.819 L1120.86 161.819 L1120.86 157.93 Q1119.52 160.245 1117.46 161.379 Q1115.42 162.49 1112.55 162.49 Q1107.85 162.49 1104.89 158.74 Q1101.95 154.991 1101.95 148.879 Q1101.95 142.768 1104.89 139.018 Q1107.85 135.268 1112.55 135.268 Q1115.42 135.268 1117.46 136.403 Q1119.52 137.514 1120.86 139.829 M1106.34 148.879 Q1106.34 153.578 1108.27 156.264 Q1110.21 158.926 1113.59 158.926 Q1116.97 158.926 1118.91 156.264 Q1120.86 153.578 1120.86 148.879 Q1120.86 144.18 1118.91 141.518 Q1116.97 138.833 1113.59 138.833 Q1110.21 138.833 1108.27 141.518 Q1106.34 144.18 1106.34 148.879 Z" fill="#000000" fill-rule="nonzero" fill-opacity="1" /><polyline clip-path="url(#clip520)" style="stroke:#e26f46; stroke-linecap:round; stroke-linejoin:round; stroke-width:4; stroke-opacity:1; fill:none" points="429.099,196.379 563.308,196.379 "/>
<path clip-path="url(#clip520)" d="M607.921 180.233 L607.921 184.794 Q605.259 183.52 602.898 182.895 Q600.537 182.27 598.338 182.27 Q594.519 182.27 592.435 183.752 Q590.375 185.233 590.375 187.965 Q590.375 190.257 591.741 191.437 Q593.13 192.594 596.972 193.312 L599.796 193.891 Q605.028 194.886 607.505 197.409 Q610.005 199.909 610.005 204.122 Q610.005 209.145 606.625 211.738 Q603.269 214.33 596.764 214.33 Q594.31 214.33 591.532 213.775 Q588.778 213.219 585.815 212.131 L585.815 207.317 Q588.662 208.914 591.394 209.724 Q594.125 210.534 596.764 210.534 Q600.769 210.534 602.944 208.96 Q605.12 207.386 605.12 204.469 Q605.12 201.923 603.546 200.488 Q601.995 199.053 598.431 198.335 L595.583 197.78 Q590.352 196.738 588.014 194.516 Q585.676 192.294 585.676 188.335 Q585.676 183.752 588.894 181.113 Q592.134 178.474 597.806 178.474 Q600.236 178.474 602.759 178.914 Q605.282 179.354 607.921 180.233 Z" fill="#000000" fill-rule="nonzero" fill-opacity="1" /><path clip-path="url(#clip520)" d="M628.893 200.627 Q623.731 200.627 621.741 201.807 Q619.75 202.988 619.75 205.835 Q619.75 208.104 621.231 209.446 Q622.736 210.766 625.305 210.766 Q628.847 210.766 630.977 208.266 Q633.129 205.743 633.129 201.576 L633.129 200.627 L628.893 200.627 M637.389 198.868 L637.389 213.659 L633.129 213.659 L633.129 209.724 Q631.671 212.085 629.495 213.219 Q627.319 214.33 624.171 214.33 Q620.19 214.33 617.829 212.108 Q615.491 209.863 615.491 206.113 Q615.491 201.738 618.407 199.516 Q621.347 197.294 627.157 197.294 L633.129 197.294 L633.129 196.877 Q633.129 193.937 631.185 192.34 Q629.264 190.719 625.768 190.719 Q623.546 190.719 621.44 191.252 Q619.333 191.784 617.389 192.849 L617.389 188.914 Q619.727 188.011 621.926 187.571 Q624.125 187.108 626.208 187.108 Q631.833 187.108 634.611 190.025 Q637.389 192.942 637.389 198.868 Z" fill="#000000" fill-rule="nonzero" fill-opacity="1" /><path clip-path="url(#clip520)" d="M650.375 180.372 L650.375 187.733 L659.148 187.733 L659.148 191.044 L650.375 191.044 L650.375 205.118 Q650.375 208.289 651.231 209.192 Q652.111 210.094 654.773 210.094 L659.148 210.094 L659.148 213.659 L654.773 213.659 Q649.842 213.659 647.967 211.83 Q646.092 209.979 646.092 205.118 L646.092 191.044 L642.967 191.044 L642.967 187.733 L646.092 187.733 L646.092 180.372 L650.375 180.372 Z" fill="#000000" fill-rule="nonzero" fill-opacity="1" /><path clip-path="url(#clip520)" d="M664.31 203.428 L664.31 187.733 L668.569 187.733 L668.569 203.266 Q668.569 206.946 670.004 208.798 Q671.439 210.627 674.31 210.627 Q677.759 210.627 679.75 208.428 Q681.763 206.229 681.763 202.432 L681.763 187.733 L686.023 187.733 L686.023 213.659 L681.763 213.659 L681.763 209.678 Q680.213 212.039 678.152 213.196 Q676.115 214.33 673.407 214.33 Q668.939 214.33 666.625 211.553 Q664.31 208.775 664.31 203.428 M675.027 187.108 L675.027 187.108 Z" fill="#000000" fill-rule="nonzero" fill-opacity="1" /><path clip-path="url(#clip520)" d="M709.819 191.715 Q709.101 191.298 708.245 191.113 Q707.411 190.905 706.393 190.905 Q702.782 190.905 700.837 193.266 Q698.916 195.604 698.916 200.002 L698.916 213.659 L694.634 213.659 L694.634 187.733 L698.916 187.733 L698.916 191.761 Q700.259 189.4 702.411 188.266 Q704.564 187.108 707.643 187.108 Q708.083 187.108 708.615 187.178 Q709.148 187.224 709.796 187.34 L709.819 191.715 Z" fill="#000000" fill-rule="nonzero" fill-opacity="1" /><path clip-path="url(#clip520)" d="M726.069 200.627 Q720.907 200.627 718.916 201.807 Q716.925 202.988 716.925 205.835 Q716.925 208.104 718.407 209.446 Q719.911 210.766 722.481 210.766 Q726.022 210.766 728.152 208.266 Q730.305 205.743 730.305 201.576 L730.305 200.627 L726.069 200.627 M734.564 198.868 L734.564 213.659 L730.305 213.659 L730.305 209.724 Q728.847 212.085 726.671 213.219 Q724.495 214.33 721.347 214.33 Q717.365 214.33 715.004 212.108 Q712.666 209.863 712.666 206.113 Q712.666 201.738 715.583 199.516 Q718.523 197.294 724.333 197.294 L730.305 197.294 L730.305 196.877 Q730.305 193.937 728.36 192.34 Q726.439 190.719 722.944 190.719 Q720.722 190.719 718.615 191.252 Q716.509 191.784 714.564 192.849 L714.564 188.914 Q716.902 188.011 719.101 187.571 Q721.3 187.108 723.384 187.108 Q729.009 187.108 731.786 190.025 Q734.564 192.942 734.564 198.868 Z" fill="#000000" fill-rule="nonzero" fill-opacity="1" /><path clip-path="url(#clip520)" d="M747.55 180.372 L747.55 187.733 L756.323 187.733 L756.323 191.044 L747.55 191.044 L747.55 205.118 Q747.55 208.289 748.407 209.192 Q749.286 210.094 751.948 210.094 L756.323 210.094 L756.323 213.659 L751.948 213.659 Q747.018 213.659 745.143 211.83 Q743.268 209.979 743.268 205.118 L743.268 191.044 L740.143 191.044 L740.143 187.733 L743.268 187.733 L743.268 180.372 L747.55 180.372 Z" fill="#000000" fill-rule="nonzero" fill-opacity="1" /><path clip-path="url(#clip520)" d="M761.925 187.733 L766.184 187.733 L766.184 213.659 L761.925 213.659 L761.925 187.733 M761.925 177.641 L766.184 177.641 L766.184 183.034 L761.925 183.034 L761.925 177.641 Z" fill="#000000" fill-rule="nonzero" fill-opacity="1" /><path clip-path="url(#clip520)" d="M785.143 190.719 Q781.717 190.719 779.726 193.405 Q777.735 196.067 777.735 200.719 Q777.735 205.372 779.703 208.057 Q781.693 210.719 785.143 210.719 Q788.545 210.719 790.536 208.034 Q792.527 205.349 792.527 200.719 Q792.527 196.113 790.536 193.428 Q788.545 190.719 785.143 190.719 M785.143 187.108 Q790.698 187.108 793.869 190.719 Q797.041 194.331 797.041 200.719 Q797.041 207.085 793.869 210.719 Q790.698 214.33 785.143 214.33 Q779.564 214.33 776.393 210.719 Q773.244 207.085 773.244 200.719 Q773.244 194.331 776.393 190.719 Q779.564 187.108 785.143 187.108 Z" fill="#000000" fill-rule="nonzero" fill-opacity="1" /><path clip-path="url(#clip520)" d="M825.652 198.011 L825.652 213.659 L821.392 213.659 L821.392 198.15 Q821.392 194.469 819.957 192.641 Q818.522 190.812 815.652 190.812 Q812.203 190.812 810.212 193.011 Q808.221 195.21 808.221 199.006 L808.221 213.659 L803.939 213.659 L803.939 187.733 L808.221 187.733 L808.221 191.761 Q809.749 189.423 811.809 188.266 Q813.892 187.108 816.601 187.108 Q821.068 187.108 823.36 189.886 Q825.652 192.641 825.652 198.011 Z" fill="#000000" fill-rule="nonzero" fill-opacity="1" /><path clip-path="url(#clip520)" d="M875.281 181.761 L875.281 186.692 Q872.92 184.493 870.235 183.405 Q867.573 182.317 864.563 182.317 Q858.638 182.317 855.489 185.951 Q852.341 189.562 852.341 196.414 Q852.341 203.243 855.489 206.877 Q858.638 210.488 864.563 210.488 Q867.573 210.488 870.235 209.4 Q872.92 208.312 875.281 206.113 L875.281 210.997 Q872.827 212.664 870.073 213.497 Q867.341 214.33 864.286 214.33 Q856.438 214.33 851.925 209.539 Q847.411 204.724 847.411 196.414 Q847.411 188.081 851.925 183.289 Q856.438 178.474 864.286 178.474 Q867.387 178.474 870.119 179.308 Q872.874 180.118 875.281 181.761 Z" fill="#000000" fill-rule="nonzero" fill-opacity="1" /><path clip-path="url(#clip520)" d="M881.878 203.428 L881.878 187.733 L886.137 187.733 L886.137 203.266 Q886.137 206.946 887.573 208.798 Q889.008 210.627 891.878 210.627 Q895.327 210.627 897.318 208.428 Q899.332 206.229 899.332 202.432 L899.332 187.733 L903.591 187.733 L903.591 213.659 L899.332 213.659 L899.332 209.678 Q897.781 212.039 895.721 213.196 Q893.684 214.33 890.975 214.33 Q886.508 214.33 884.193 211.553 Q881.878 208.775 881.878 203.428 M892.596 187.108 L892.596 187.108 Z" fill="#000000" fill-rule="nonzero" fill-opacity="1" /><path clip-path="url(#clip520)" d="M927.387 191.715 Q926.67 191.298 925.813 191.113 Q924.98 190.905 923.961 190.905 Q920.35 190.905 918.406 193.266 Q916.484 195.604 916.484 200.002 L916.484 213.659 L912.202 213.659 L912.202 187.733 L916.484 187.733 L916.484 191.761 Q917.827 189.4 919.98 188.266 Q922.133 187.108 925.211 187.108 Q925.651 187.108 926.183 187.178 Q926.716 187.224 927.364 187.34 L927.387 191.715 Z" fill="#000000" fill-rule="nonzero" fill-opacity="1" /><path clip-path="url(#clip520)" d="M928.799 187.733 L933.313 187.733 L941.415 209.493 L949.517 187.733 L954.031 187.733 L944.308 213.659 L938.521 213.659 L928.799 187.733 Z" fill="#000000" fill-rule="nonzero" fill-opacity="1" /><path clip-path="url(#clip520)" d="M982.086 199.631 L982.086 201.715 L962.503 201.715 Q962.78 206.113 965.142 208.428 Q967.526 210.719 971.762 210.719 Q974.216 210.719 976.507 210.118 Q978.822 209.516 981.091 208.312 L981.091 212.34 Q978.799 213.312 976.392 213.821 Q973.984 214.33 971.507 214.33 Q965.304 214.33 961.669 210.719 Q958.058 207.108 958.058 200.951 Q958.058 194.585 961.484 190.858 Q964.933 187.108 970.767 187.108 Q975.998 187.108 979.03 190.488 Q982.086 193.844 982.086 199.631 M977.827 198.381 Q977.78 194.886 975.859 192.803 Q973.961 190.719 970.813 190.719 Q967.248 190.719 965.095 192.733 Q962.966 194.747 962.642 198.405 L977.827 198.381 Z" fill="#000000" fill-rule="nonzero" fill-opacity="1" /><path clip-path="url(#clip520)" d="M1021.21 200.395 Q1021.21 195.766 1019.28 193.219 Q1017.39 190.673 1013.94 190.673 Q1010.51 190.673 1008.59 193.219 Q1006.69 195.766 1006.69 200.395 Q1006.69 205.002 1008.59 207.548 Q1010.51 210.094 1013.94 210.094 Q1017.39 210.094 1019.28 207.548 Q1021.21 205.002 1021.21 200.395 M1025.47 210.442 Q1025.47 217.062 1022.53 220.28 Q1019.59 223.52 1013.52 223.52 Q1011.28 223.52 1009.28 223.173 Q1007.29 222.849 1005.42 222.155 L1005.42 218.011 Q1007.29 219.03 1009.12 219.516 Q1010.95 220.002 1012.85 220.002 Q1017.04 220.002 1019.12 217.803 Q1021.21 215.627 1021.21 211.205 L1021.21 209.099 Q1019.89 211.391 1017.83 212.525 Q1015.77 213.659 1012.9 213.659 Q1008.13 213.659 1005.21 210.025 Q1002.29 206.391 1002.29 200.395 Q1002.29 194.377 1005.21 190.743 Q1008.13 187.108 1012.9 187.108 Q1015.77 187.108 1017.83 188.243 Q1019.89 189.377 1021.21 191.669 L1021.21 187.733 L1025.47 187.733 L1025.47 210.442 Z" fill="#000000" fill-rule="nonzero" fill-opacity="1" /><path clip-path="url(#clip520)" d="M1046.02 200.627 Q1040.86 200.627 1038.87 201.807 Q1036.88 202.988 1036.88 205.835 Q1036.88 208.104 1038.36 209.446 Q1039.86 210.766 1042.43 210.766 Q1045.97 210.766 1048.1 208.266 Q1050.26 205.743 1050.26 201.576 L1050.26 200.627 L1046.02 200.627 M1054.52 198.868 L1054.52 213.659 L1050.26 213.659 L1050.26 209.724 Q1048.8 212.085 1046.62 213.219 Q1044.45 214.33 1041.3 214.33 Q1037.32 214.33 1034.96 212.108 Q1032.62 209.863 1032.62 206.113 Q1032.62 201.738 1035.53 199.516 Q1038.47 197.294 1044.28 197.294 L1050.26 197.294 L1050.26 196.877 Q1050.26 193.937 1048.31 192.34 Q1046.39 190.719 1042.9 190.719 Q1040.67 190.719 1038.57 191.252 Q1036.46 191.784 1034.52 192.849 L1034.52 188.914 Q1036.85 188.011 1039.05 187.571 Q1041.25 187.108 1043.34 187.108 Q1048.96 187.108 1051.74 190.025 Q1054.52 192.942 1054.52 198.868 Z" fill="#000000" fill-rule="nonzero" fill-opacity="1" /><path clip-path="url(#clip520)" d="M1079.82 188.497 L1079.82 192.525 Q1078.01 191.599 1076.07 191.136 Q1074.12 190.673 1072.04 190.673 Q1068.87 190.673 1067.27 191.645 Q1065.7 192.618 1065.7 194.562 Q1065.7 196.044 1066.83 196.9 Q1067.97 197.733 1071.39 198.497 L1072.85 198.821 Q1077.39 199.794 1079.28 201.576 Q1081.21 203.335 1081.21 206.506 Q1081.21 210.118 1078.34 212.224 Q1075.49 214.33 1070.49 214.33 Q1068.4 214.33 1066.14 213.914 Q1063.89 213.52 1061.39 212.71 L1061.39 208.312 Q1063.75 209.539 1066.04 210.164 Q1068.34 210.766 1070.58 210.766 Q1073.59 210.766 1075.21 209.747 Q1076.83 208.706 1076.83 206.831 Q1076.83 205.094 1075.65 204.168 Q1074.49 203.243 1070.53 202.386 L1069.05 202.039 Q1065.09 201.206 1063.34 199.493 Q1061.58 197.756 1061.58 194.747 Q1061.58 191.09 1064.17 189.099 Q1066.76 187.108 1071.53 187.108 Q1073.89 187.108 1075.97 187.456 Q1078.06 187.803 1079.82 188.497 Z" fill="#000000" fill-rule="nonzero" fill-opacity="1" /><circle clip-path="url(#clip520)" cx="496.204" cy="248.219" r="20.48" fill="#3da44d" fill-rule="evenodd" fill-opacity="1" stroke="#000000" stroke-opacity="1" stroke-width="4.55111"/>
<path clip-path="url(#clip520)" d="M613.546 233.601 L613.546 238.532 Q611.185 236.333 608.5 235.245 Q605.838 234.157 602.829 234.157 Q596.903 234.157 593.755 237.791 Q590.607 241.402 590.607 248.254 Q590.607 255.083 593.755 258.717 Q596.903 262.328 602.829 262.328 Q605.838 262.328 608.5 261.24 Q611.185 260.152 613.546 257.953 L613.546 262.837 Q611.093 264.504 608.338 265.337 Q605.606 266.17 602.551 266.17 Q594.704 266.17 590.19 261.379 Q585.676 256.564 585.676 248.254 Q585.676 239.921 590.19 235.129 Q594.704 230.314 602.551 230.314 Q605.653 230.314 608.384 231.148 Q611.139 231.958 613.546 233.601 Z" fill="#000000" fill-rule="nonzero" fill-opacity="1" /><path clip-path="url(#clip520)" d="M631.37 267.907 Q629.565 272.536 627.852 273.948 Q626.139 275.36 623.268 275.36 L619.866 275.36 L619.866 271.795 L622.366 271.795 Q624.125 271.795 625.097 270.962 Q626.069 270.129 627.25 267.027 L628.014 265.083 L617.528 239.573 L622.042 239.573 L630.143 259.851 L638.245 239.573 L642.759 239.573 L631.37 267.907 Z" fill="#000000" fill-rule="nonzero" fill-opacity="1" /><path clip-path="url(#clip520)" d="M667.296 240.569 L667.296 244.55 Q665.49 243.555 663.662 243.069 Q661.856 242.559 660.004 242.559 Q655.861 242.559 653.569 245.198 Q651.278 247.814 651.278 252.559 Q651.278 257.305 653.569 259.944 Q655.861 262.559 660.004 262.559 Q661.856 262.559 663.662 262.073 Q665.49 261.564 667.296 260.569 L667.296 264.504 Q665.514 265.337 663.592 265.754 Q661.694 266.17 659.541 266.17 Q653.685 266.17 650.236 262.49 Q646.787 258.809 646.787 252.559 Q646.787 246.217 650.259 242.583 Q653.754 238.948 659.819 238.948 Q661.787 238.948 663.662 239.365 Q665.537 239.759 667.296 240.569 Z" fill="#000000" fill-rule="nonzero" fill-opacity="1" /><path clip-path="url(#clip520)" d="M674.703 229.481 L678.963 229.481 L678.963 265.499 L674.703 265.499 L674.703 229.481 Z" fill="#000000" fill-rule="nonzero" fill-opacity="1" /><path clip-path="url(#clip520)" d="M710.05 251.471 L710.05 253.555 L690.467 253.555 Q690.745 257.953 693.106 260.268 Q695.49 262.559 699.726 262.559 Q702.18 262.559 704.472 261.958 Q706.786 261.356 709.055 260.152 L709.055 264.18 Q706.763 265.152 704.356 265.661 Q701.949 266.17 699.472 266.17 Q693.268 266.17 689.634 262.559 Q686.023 258.948 686.023 252.791 Q686.023 246.425 689.449 242.698 Q692.898 238.948 698.731 238.948 Q703.962 238.948 706.995 242.328 Q710.05 245.684 710.05 251.471 M705.791 250.221 Q705.745 246.726 703.824 244.643 Q701.925 242.559 698.777 242.559 Q695.212 242.559 693.06 244.573 Q690.93 246.587 690.606 250.245 L705.791 250.221 Z" fill="#000000" fill-rule="nonzero" fill-opacity="1" /><path clip-path="url(#clip520)" d="M736.971 234.782 L736.971 247.768 L742.851 247.768 Q746.115 247.768 747.897 246.078 Q749.68 244.388 749.68 241.263 Q749.68 238.161 747.897 236.472 Q746.115 234.782 742.851 234.782 L736.971 234.782 M732.296 230.939 L742.851 230.939 Q748.661 230.939 751.624 233.578 Q754.61 236.194 754.61 241.263 Q754.61 246.379 751.624 248.995 Q748.661 251.61 742.851 251.61 L736.971 251.61 L736.971 265.499 L732.296 265.499 L732.296 230.939 Z" fill="#000000" fill-rule="nonzero" fill-opacity="1" /><path clip-path="url(#clip520)" d="M769.055 242.559 Q765.629 242.559 763.638 245.245 Q761.647 247.907 761.647 252.559 Q761.647 257.212 763.615 259.897 Q765.606 262.559 769.055 262.559 Q772.457 262.559 774.448 259.874 Q776.439 257.189 776.439 252.559 Q776.439 247.953 774.448 245.268 Q772.457 242.559 769.055 242.559 M769.055 238.948 Q774.61 238.948 777.781 242.559 Q780.953 246.171 780.953 252.559 Q780.953 258.925 777.781 262.559 Q774.61 266.17 769.055 266.17 Q763.476 266.17 760.305 262.559 Q757.157 258.925 757.157 252.559 Q757.157 246.171 760.305 242.559 Q763.476 238.948 769.055 238.948 Z" fill="#000000" fill-rule="nonzero" fill-opacity="1" /><path clip-path="url(#clip520)" d="M788.013 239.573 L792.272 239.573 L792.272 265.499 L788.013 265.499 L788.013 239.573 M788.013 229.481 L792.272 229.481 L792.272 234.874 L788.013 234.874 L788.013 229.481 Z" fill="#000000" fill-rule="nonzero" fill-opacity="1" /><path clip-path="url(#clip520)" d="M822.735 249.851 L822.735 265.499 L818.476 265.499 L818.476 249.99 Q818.476 246.309 817.041 244.481 Q815.605 242.652 812.735 242.652 Q809.286 242.652 807.295 244.851 Q805.304 247.05 805.304 250.846 L805.304 265.499 L801.022 265.499 L801.022 239.573 L805.304 239.573 L805.304 243.601 Q806.832 241.263 808.892 240.106 Q810.976 238.948 813.684 238.948 Q818.152 238.948 820.443 241.726 Q822.735 244.481 822.735 249.851 Z" fill="#000000" fill-rule="nonzero" fill-opacity="1" /><path clip-path="url(#clip520)" d="M835.443 232.212 L835.443 239.573 L844.216 239.573 L844.216 242.884 L835.443 242.884 L835.443 256.958 Q835.443 260.129 836.3 261.032 Q837.179 261.934 839.841 261.934 L844.216 261.934 L844.216 265.499 L839.841 265.499 Q834.911 265.499 833.036 263.67 Q831.161 261.819 831.161 256.958 L831.161 242.884 L828.036 242.884 L828.036 239.573 L831.161 239.573 L831.161 232.212 L835.443 232.212 Z" fill="#000000" fill-rule="nonzero" fill-opacity="1" /><path clip-path="url(#clip520)" d="M866.346 240.337 L866.346 244.365 Q864.54 243.439 862.596 242.976 Q860.651 242.513 858.568 242.513 Q855.397 242.513 853.8 243.485 Q852.226 244.458 852.226 246.402 Q852.226 247.884 853.36 248.74 Q854.494 249.573 857.92 250.337 L859.378 250.661 Q863.915 251.634 865.813 253.416 Q867.735 255.175 867.735 258.346 Q867.735 261.958 864.864 264.064 Q862.017 266.17 857.017 266.17 Q854.934 266.17 852.665 265.754 Q850.42 265.36 847.92 264.55 L847.92 260.152 Q850.281 261.379 852.573 262.004 Q854.864 262.606 857.11 262.606 Q860.119 262.606 861.739 261.587 Q863.36 260.546 863.36 258.671 Q863.36 256.934 862.179 256.008 Q861.022 255.083 857.063 254.226 L855.582 253.879 Q851.624 253.046 849.864 251.333 Q848.105 249.596 848.105 246.587 Q848.105 242.93 850.698 240.939 Q853.29 238.948 858.059 238.948 Q860.42 238.948 862.503 239.296 Q864.587 239.643 866.346 240.337 Z" fill="#000000" fill-rule="nonzero" fill-opacity="1" /><polyline clip-path="url(#clip520)" style="stroke:#c271d2; stroke-linecap:round; stroke-linejoin:round; stroke-width:4; stroke-opacity:1; fill:none" points="429.099,300.059 563.308,300.059 "/>
<path clip-path="url(#clip520)" d="M613.546 285.441 L613.546 290.372 Q611.185 288.173 608.5 287.085 Q605.838 285.997 602.829 285.997 Q596.903 285.997 593.755 289.631 Q590.607 293.242 590.607 300.094 Q590.607 306.923 593.755 310.557 Q596.903 314.168 602.829 314.168 Q605.838 314.168 608.5 313.08 Q611.185 311.992 613.546 309.793 L613.546 314.677 Q611.093 316.344 608.338 317.177 Q605.606 318.01 602.551 318.01 Q594.704 318.01 590.19 313.219 Q585.676 308.404 585.676 300.094 Q585.676 291.761 590.19 286.969 Q594.704 282.154 602.551 282.154 Q605.653 282.154 608.384 282.988 Q611.139 283.798 613.546 285.441 Z" fill="#000000" fill-rule="nonzero" fill-opacity="1" /><path clip-path="url(#clip520)" d="M631.37 319.747 Q629.565 324.376 627.852 325.788 Q626.139 327.2 623.268 327.2 L619.866 327.2 L619.866 323.635 L622.366 323.635 Q624.125 323.635 625.097 322.802 Q626.069 321.969 627.25 318.867 L628.014 316.923 L617.528 291.413 L622.042 291.413 L630.143 311.691 L638.245 291.413 L642.759 291.413 L631.37 319.747 Z" fill="#000000" fill-rule="nonzero" fill-opacity="1" /><path clip-path="url(#clip520)" d="M667.296 292.409 L667.296 296.39 Q665.49 295.395 663.662 294.909 Q661.856 294.399 660.004 294.399 Q655.861 294.399 653.569 297.038 Q651.278 299.654 651.278 304.399 Q651.278 309.145 653.569 311.784 Q655.861 314.399 660.004 314.399 Q661.856 314.399 663.662 313.913 Q665.49 313.404 667.296 312.409 L667.296 316.344 Q665.514 317.177 663.592 317.594 Q661.694 318.01 659.541 318.01 Q653.685 318.01 650.236 314.33 Q646.787 310.649 646.787 304.399 Q646.787 298.057 650.259 294.423 Q653.754 290.788 659.819 290.788 Q661.787 290.788 663.662 291.205 Q665.537 291.599 667.296 292.409 Z" fill="#000000" fill-rule="nonzero" fill-opacity="1" /><path clip-path="url(#clip520)" d="M674.703 281.321 L678.963 281.321 L678.963 317.339 L674.703 317.339 L674.703 281.321 Z" fill="#000000" fill-rule="nonzero" fill-opacity="1" /><path clip-path="url(#clip520)" d="M710.05 303.311 L710.05 305.395 L690.467 305.395 Q690.745 309.793 693.106 312.108 Q695.49 314.399 699.726 314.399 Q702.18 314.399 704.472 313.798 Q706.786 313.196 709.055 311.992 L709.055 316.02 Q706.763 316.992 704.356 317.501 Q701.949 318.01 699.472 318.01 Q693.268 318.01 689.634 314.399 Q686.023 310.788 686.023 304.631 Q686.023 298.265 689.449 294.538 Q692.898 290.788 698.731 290.788 Q703.962 290.788 706.995 294.168 Q710.05 297.524 710.05 303.311 M705.791 302.061 Q705.745 298.566 703.824 296.483 Q701.925 294.399 698.777 294.399 Q695.212 294.399 693.06 296.413 Q690.93 298.427 690.606 302.085 L705.791 302.061 Z" fill="#000000" fill-rule="nonzero" fill-opacity="1" /></svg>
