<?xml version="1.0" encoding="utf-8"?>
<svg xmlns="http://www.w3.org/2000/svg" xmlns:xlink="http://www.w3.org/1999/xlink" width="600" height="400" viewBox="0 0 2400 1600">
<defs>
  <clipPath id="clip490">
    <rect x="0" y="0" width="2400" height="1600"/>
  </clipPath>
</defs>
<path clip-path="url(#clip490)" d="M0 1600 L2400 1600 L2400 0 L0 0  Z" fill="#ffffff" fill-rule="evenodd" fill-opacity="1"/>
<defs>
  <clipPath id="clip491">
    <rect x="480" y="0" width="1681" height="1600"/>
  </clipPath>
</defs>
<path clip-path="url(#clip490)" d="M233.987 1423.18 L2352.76 1423.18 L2352.76 47.2441 L233.987 47.2441  Z" fill="#ffffff" fill-rule="evenodd" fill-opacity="1"/>
<defs>
  <clipPath id="clip492">
    <rect x="233" y="47" width="2120" height="1377"/>
  </clipPath>
</defs>
<polyline clip-path="url(#clip492)" style="stroke:#000000; stroke-linecap:round; stroke-linejoin:round; stroke-width:2; stroke-opacity:0.1; fill:none" points="351.098,1423.18 351.098,47.2441 "/>
<polyline clip-path="url(#clip492)" style="stroke:#000000; stroke-linecap:round; stroke-linejoin:round; stroke-width:2; stroke-opacity:0.1; fill:none" points="652.152,1423.18 652.152,47.2441 "/>
<polyline clip-path="url(#clip492)" style="stroke:#000000; stroke-linecap:round; stroke-linejoin:round; stroke-width:2; stroke-opacity:0.1; fill:none" points="953.207,1423.18 953.207,47.2441 "/>
<polyline clip-path="url(#clip492)" style="stroke:#000000; stroke-linecap:round; stroke-linejoin:round; stroke-width:2; stroke-opacity:0.1; fill:none" points="1254.26,1423.18 1254.26,47.2441 "/>
<polyline clip-path="url(#clip492)" style="stroke:#000000; stroke-linecap:round; stroke-linejoin:round; stroke-width:2; stroke-opacity:0.1; fill:none" points="1555.32,1423.18 1555.32,47.2441 "/>
<polyline clip-path="url(#clip492)" style="stroke:#000000; stroke-linecap:round; stroke-linejoin:round; stroke-width:2; stroke-opacity:0.1; fill:none" points="1856.37,1423.18 1856.37,47.2441 "/>
<polyline clip-path="url(#clip492)" style="stroke:#000000; stroke-linecap:round; stroke-linejoin:round; stroke-width:2; stroke-opacity:0.1; fill:none" points="2157.42,1423.18 2157.42,47.2441 "/>
<polyline clip-path="url(#clip492)" style="stroke:#000000; stroke-linecap:round; stroke-linejoin:round; stroke-width:2; stroke-opacity:0.1; fill:none" points="233.987,1230.09 2352.76,1230.09 "/>
<polyline clip-path="url(#clip492)" style="stroke:#000000; stroke-linecap:round; stroke-linejoin:round; stroke-width:2; stroke-opacity:0.1; fill:none" points="233.987,921.804 2352.76,921.804 "/>
<polyline clip-path="url(#clip492)" style="stroke:#000000; stroke-linecap:round; stroke-linejoin:round; stroke-width:2; stroke-opacity:0.1; fill:none" points="233.987,613.515 2352.76,613.515 "/>
<polyline clip-path="url(#clip492)" style="stroke:#000000; stroke-linecap:round; stroke-linejoin:round; stroke-width:2; stroke-opacity:0.1; fill:none" points="233.987,305.225 2352.76,305.225 "/>
<polyline clip-path="url(#clip490)" style="stroke:#000000; stroke-linecap:round; stroke-linejoin:round; stroke-width:4; stroke-opacity:1; fill:none" points="233.987,1423.18 2352.76,1423.18 "/>
<polyline clip-path="url(#clip490)" style="stroke:#000000; stroke-linecap:round; stroke-linejoin:round; stroke-width:4; stroke-opacity:1; fill:none" points="351.098,1423.18 351.098,1404.28 "/>
<polyline clip-path="url(#clip490)" style="stroke:#000000; stroke-linecap:round; stroke-linejoin:round; stroke-width:4; stroke-opacity:1; fill:none" points="652.152,1423.18 652.152,1404.28 "/>
<polyline clip-path="url(#clip490)" style="stroke:#000000; stroke-linecap:round; stroke-linejoin:round; stroke-width:4; stroke-opacity:1; fill:none" points="953.207,1423.18 953.207,1404.28 "/>
<polyline clip-path="url(#clip490)" style="stroke:#000000; stroke-linecap:round; stroke-linejoin:round; stroke-width:4; stroke-opacity:1; fill:none" points="1254.26,1423.18 1254.26,1404.28 "/>
<polyline clip-path="url(#clip490)" style="stroke:#000000; stroke-linecap:round; stroke-linejoin:round; stroke-width:4; stroke-opacity:1; fill:none" points="1555.32,1423.18 1555.32,1404.28 "/>
<polyline clip-path="url(#clip490)" style="stroke:#000000; stroke-linecap:round; stroke-linejoin:round; stroke-width:4; stroke-opacity:1; fill:none" points="1856.37,1423.18 1856.37,1404.28 "/>
<polyline clip-path="url(#clip490)" style="stroke:#000000; stroke-linecap:round; stroke-linejoin:round; stroke-width:4; stroke-opacity:1; fill:none" points="2157.42,1423.18 2157.42,1404.28 "/>
<path clip-path="url(#clip490)" d="M295.624 1481.64 L303.262 1481.64 L303.262 1455.28 L294.952 1456.95 L294.952 1452.69 L303.216 1451.02 L307.892 1451.02 L307.892 1481.64 L315.531 1481.64 L315.531 1485.58 L295.624 1485.58 L295.624 1481.64 Z" fill="#000000" fill-rule="nonzero" fill-opacity="1" /><path clip-path="url(#clip490)" d="M325.786 1481.64 L333.424 1481.64 L333.424 1455.28 L325.114 1456.95 L325.114 1452.69 L333.378 1451.02 L338.054 1451.02 L338.054 1481.64 L345.693 1481.64 L345.693 1485.58 L325.786 1485.58 L325.786 1481.64 Z" fill="#000000" fill-rule="nonzero" fill-opacity="1" /><path clip-path="url(#clip490)" d="M365.137 1454.1 Q361.526 1454.1 359.697 1457.66 Q357.892 1461.2 357.892 1468.33 Q357.892 1475.44 359.697 1479.01 Q361.526 1482.55 365.137 1482.55 Q368.771 1482.55 370.577 1479.01 Q372.406 1475.44 372.406 1468.33 Q372.406 1461.2 370.577 1457.66 Q368.771 1454.1 365.137 1454.1 M365.137 1450.39 Q370.947 1450.39 374.003 1455 Q377.082 1459.58 377.082 1468.33 Q377.082 1477.06 374.003 1481.67 Q370.947 1486.25 365.137 1486.25 Q359.327 1486.25 356.248 1481.67 Q353.193 1477.06 353.193 1468.33 Q353.193 1459.58 356.248 1455 Q359.327 1450.39 365.137 1450.39 Z" fill="#000000" fill-rule="nonzero" fill-opacity="1" /><path clip-path="url(#clip490)" d="M395.299 1454.1 Q391.688 1454.1 389.859 1457.66 Q388.054 1461.2 388.054 1468.33 Q388.054 1475.44 389.859 1479.01 Q391.688 1482.55 395.299 1482.55 Q398.933 1482.55 400.739 1479.01 Q402.568 1475.44 402.568 1468.33 Q402.568 1461.2 400.739 1457.66 Q398.933 1454.1 395.299 1454.1 M395.299 1450.39 Q401.109 1450.39 404.165 1455 Q407.243 1459.58 407.243 1468.33 Q407.243 1477.06 404.165 1481.67 Q401.109 1486.25 395.299 1486.25 Q389.489 1486.25 386.41 1481.67 Q383.355 1477.06 383.355 1468.33 Q383.355 1459.58 386.41 1455 Q389.489 1450.39 395.299 1450.39 Z" fill="#000000" fill-rule="nonzero" fill-opacity="1" /><path clip-path="url(#clip490)" d="M596.678 1481.64 L604.317 1481.64 L604.317 1455.28 L596.007 1456.95 L596.007 1452.69 L604.271 1451.02 L608.947 1451.02 L608.947 1481.64 L616.585 1481.64 L616.585 1485.58 L596.678 1485.58 L596.678 1481.64 Z" fill="#000000" fill-rule="nonzero" fill-opacity="1" /><path clip-path="url(#clip490)" d="M630.058 1481.64 L646.377 1481.64 L646.377 1485.58 L624.433 1485.58 L624.433 1481.64 Q627.095 1478.89 631.678 1474.26 Q636.284 1469.61 637.465 1468.27 Q639.71 1465.74 640.59 1464.01 Q641.493 1462.25 641.493 1460.56 Q641.493 1457.8 639.548 1456.07 Q637.627 1454.33 634.525 1454.33 Q632.326 1454.33 629.872 1455.09 Q627.442 1455.86 624.664 1457.41 L624.664 1452.69 Q627.488 1451.55 629.942 1450.97 Q632.395 1450.39 634.432 1450.39 Q639.803 1450.39 642.997 1453.08 Q646.192 1455.77 646.192 1460.26 Q646.192 1462.39 645.382 1464.31 Q644.594 1466.2 642.488 1468.8 Q641.909 1469.47 638.807 1472.69 Q635.706 1475.88 630.058 1481.64 Z" fill="#000000" fill-rule="nonzero" fill-opacity="1" /><path clip-path="url(#clip490)" d="M666.192 1454.1 Q662.58 1454.1 660.752 1457.66 Q658.946 1461.2 658.946 1468.33 Q658.946 1475.44 660.752 1479.01 Q662.58 1482.55 666.192 1482.55 Q669.826 1482.55 671.631 1479.01 Q673.46 1475.44 673.46 1468.33 Q673.46 1461.2 671.631 1457.66 Q669.826 1454.1 666.192 1454.1 M666.192 1450.39 Q672.002 1450.39 675.057 1455 Q678.136 1459.58 678.136 1468.33 Q678.136 1477.06 675.057 1481.67 Q672.002 1486.25 666.192 1486.25 Q660.381 1486.25 657.303 1481.67 Q654.247 1477.06 654.247 1468.33 Q654.247 1459.58 657.303 1455 Q660.381 1450.39 666.192 1450.39 Z" fill="#000000" fill-rule="nonzero" fill-opacity="1" /><path clip-path="url(#clip490)" d="M696.353 1454.1 Q692.742 1454.1 690.914 1457.66 Q689.108 1461.2 689.108 1468.33 Q689.108 1475.44 690.914 1479.01 Q692.742 1482.55 696.353 1482.55 Q699.988 1482.55 701.793 1479.01 Q703.622 1475.44 703.622 1468.33 Q703.622 1461.2 701.793 1457.66 Q699.988 1454.1 696.353 1454.1 M696.353 1450.39 Q702.164 1450.39 705.219 1455 Q708.298 1459.58 708.298 1468.33 Q708.298 1477.06 705.219 1481.67 Q702.164 1486.25 696.353 1486.25 Q690.543 1486.25 687.465 1481.67 Q684.409 1477.06 684.409 1468.33 Q684.409 1459.58 687.465 1455 Q690.543 1450.39 696.353 1450.39 Z" fill="#000000" fill-rule="nonzero" fill-opacity="1" /><path clip-path="url(#clip490)" d="M897.732 1481.64 L905.371 1481.64 L905.371 1455.28 L897.061 1456.95 L897.061 1452.69 L905.325 1451.02 L910.001 1451.02 L910.001 1481.64 L917.64 1481.64 L917.64 1485.58 L897.732 1485.58 L897.732 1481.64 Z" fill="#000000" fill-rule="nonzero" fill-opacity="1" /><path clip-path="url(#clip490)" d="M941.251 1466.95 Q944.607 1467.66 946.482 1469.93 Q948.38 1472.2 948.38 1475.53 Q948.38 1480.65 944.862 1483.45 Q941.343 1486.25 934.862 1486.25 Q932.686 1486.25 930.371 1485.81 Q928.08 1485.39 925.626 1484.54 L925.626 1480.02 Q927.57 1481.16 929.885 1481.74 Q932.2 1482.32 934.723 1482.32 Q939.121 1482.32 941.413 1480.58 Q943.728 1478.84 943.728 1475.53 Q943.728 1472.48 941.575 1470.77 Q939.445 1469.03 935.626 1469.03 L931.598 1469.03 L931.598 1465.19 L935.811 1465.19 Q939.26 1465.19 941.089 1463.82 Q942.917 1462.43 942.917 1459.84 Q942.917 1457.18 941.019 1455.77 Q939.144 1454.33 935.626 1454.33 Q933.705 1454.33 931.505 1454.75 Q929.306 1455.16 926.668 1456.04 L926.668 1451.88 Q929.33 1451.14 931.644 1450.77 Q933.982 1450.39 936.042 1450.39 Q941.367 1450.39 944.468 1452.83 Q947.57 1455.23 947.57 1459.35 Q947.57 1462.22 945.927 1464.21 Q944.283 1466.18 941.251 1466.95 Z" fill="#000000" fill-rule="nonzero" fill-opacity="1" /><path clip-path="url(#clip490)" d="M967.246 1454.1 Q963.635 1454.1 961.806 1457.66 Q960.001 1461.2 960.001 1468.33 Q960.001 1475.44 961.806 1479.01 Q963.635 1482.55 967.246 1482.55 Q970.88 1482.55 972.686 1479.01 Q974.514 1475.44 974.514 1468.33 Q974.514 1461.2 972.686 1457.66 Q970.88 1454.1 967.246 1454.1 M967.246 1450.39 Q973.056 1450.39 976.112 1455 Q979.19 1459.58 979.19 1468.33 Q979.19 1477.06 976.112 1481.67 Q973.056 1486.25 967.246 1486.25 Q961.436 1486.25 958.357 1481.67 Q955.302 1477.06 955.302 1468.33 Q955.302 1459.58 958.357 1455 Q961.436 1450.39 967.246 1450.39 Z" fill="#000000" fill-rule="nonzero" fill-opacity="1" /><path clip-path="url(#clip490)" d="M997.408 1454.1 Q993.797 1454.1 991.968 1457.66 Q990.163 1461.2 990.163 1468.33 Q990.163 1475.44 991.968 1479.01 Q993.797 1482.55 997.408 1482.55 Q1001.04 1482.55 1002.85 1479.01 Q1004.68 1475.44 1004.68 1468.33 Q1004.68 1461.2 1002.85 1457.66 Q1001.04 1454.1 997.408 1454.1 M997.408 1450.39 Q1003.22 1450.39 1006.27 1455 Q1009.35 1459.58 1009.35 1468.33 Q1009.35 1477.06 1006.27 1481.67 Q1003.22 1486.25 997.408 1486.25 Q991.598 1486.25 988.519 1481.67 Q985.464 1477.06 985.464 1468.33 Q985.464 1459.58 988.519 1455 Q991.598 1450.39 997.408 1450.39 Z" fill="#000000" fill-rule="nonzero" fill-opacity="1" /><path clip-path="url(#clip490)" d="M1198.79 1481.64 L1206.43 1481.64 L1206.43 1455.28 L1198.12 1456.95 L1198.12 1452.69 L1206.38 1451.02 L1211.06 1451.02 L1211.06 1481.64 L1218.69 1481.64 L1218.69 1485.58 L1198.79 1485.58 L1198.79 1481.64 Z" fill="#000000" fill-rule="nonzero" fill-opacity="1" /><path clip-path="url(#clip490)" d="M1240.99 1455.09 L1229.18 1473.54 L1240.99 1473.54 L1240.99 1455.09 M1239.76 1451.02 L1245.64 1451.02 L1245.64 1473.54 L1250.57 1473.54 L1250.57 1477.43 L1245.64 1477.43 L1245.64 1485.58 L1240.99 1485.58 L1240.99 1477.43 L1225.38 1477.43 L1225.38 1472.92 L1239.76 1451.02 Z" fill="#000000" fill-rule="nonzero" fill-opacity="1" /><path clip-path="url(#clip490)" d="M1268.3 1454.1 Q1264.69 1454.1 1262.86 1457.66 Q1261.06 1461.2 1261.06 1468.33 Q1261.06 1475.44 1262.86 1479.01 Q1264.69 1482.55 1268.3 1482.55 Q1271.93 1482.55 1273.74 1479.01 Q1275.57 1475.44 1275.57 1468.33 Q1275.57 1461.2 1273.74 1457.66 Q1271.93 1454.1 1268.3 1454.1 M1268.3 1450.39 Q1274.11 1450.39 1277.17 1455 Q1280.24 1459.58 1280.24 1468.33 Q1280.24 1477.06 1277.17 1481.67 Q1274.11 1486.25 1268.3 1486.25 Q1262.49 1486.25 1259.41 1481.67 Q1256.36 1477.06 1256.36 1468.33 Q1256.36 1459.58 1259.41 1455 Q1262.49 1450.39 1268.3 1450.39 Z" fill="#000000" fill-rule="nonzero" fill-opacity="1" /><path clip-path="url(#clip490)" d="M1298.46 1454.1 Q1294.85 1454.1 1293.02 1457.66 Q1291.22 1461.2 1291.22 1468.33 Q1291.22 1475.44 1293.02 1479.01 Q1294.85 1482.55 1298.46 1482.55 Q1302.1 1482.55 1303.9 1479.01 Q1305.73 1475.44 1305.73 1468.33 Q1305.73 1461.2 1303.9 1457.66 Q1302.1 1454.1 1298.46 1454.1 M1298.46 1450.39 Q1304.27 1450.39 1307.33 1455 Q1310.41 1459.58 1310.41 1468.33 Q1310.41 1477.06 1307.33 1481.67 Q1304.27 1486.25 1298.46 1486.25 Q1292.65 1486.25 1289.57 1481.67 Q1286.52 1477.06 1286.52 1468.33 Q1286.52 1459.58 1289.57 1455 Q1292.65 1450.39 1298.46 1450.39 Z" fill="#000000" fill-rule="nonzero" fill-opacity="1" /><path clip-path="url(#clip490)" d="M1499.84 1481.64 L1507.48 1481.64 L1507.48 1455.28 L1499.17 1456.95 L1499.17 1452.69 L1507.43 1451.02 L1512.11 1451.02 L1512.11 1481.64 L1519.75 1481.64 L1519.75 1485.58 L1499.84 1485.58 L1499.84 1481.64 Z" fill="#000000" fill-rule="nonzero" fill-opacity="1" /><path clip-path="url(#clip490)" d="M1529.24 1451.02 L1547.6 1451.02 L1547.6 1454.96 L1533.52 1454.96 L1533.52 1463.43 Q1534.54 1463.08 1535.56 1462.92 Q1536.58 1462.73 1537.6 1462.73 Q1543.38 1462.73 1546.76 1465.9 Q1550.14 1469.08 1550.14 1474.49 Q1550.14 1480.07 1546.67 1483.17 Q1543.2 1486.25 1536.88 1486.25 Q1534.7 1486.25 1532.43 1485.88 Q1530.19 1485.51 1527.78 1484.77 L1527.78 1480.07 Q1529.86 1481.2 1532.09 1481.76 Q1534.31 1482.32 1536.79 1482.32 Q1540.79 1482.32 1543.13 1480.21 Q1545.47 1478.1 1545.47 1474.49 Q1545.47 1470.88 1543.13 1468.77 Q1540.79 1466.67 1536.79 1466.67 Q1534.91 1466.67 1533.04 1467.08 Q1531.18 1467.5 1529.24 1468.38 L1529.24 1451.02 Z" fill="#000000" fill-rule="nonzero" fill-opacity="1" /><path clip-path="url(#clip490)" d="M1569.35 1454.1 Q1565.74 1454.1 1563.92 1457.66 Q1562.11 1461.2 1562.11 1468.33 Q1562.11 1475.44 1563.92 1479.01 Q1565.74 1482.55 1569.35 1482.55 Q1572.99 1482.55 1574.79 1479.01 Q1576.62 1475.44 1576.62 1468.33 Q1576.62 1461.2 1574.79 1457.66 Q1572.99 1454.1 1569.35 1454.1 M1569.35 1450.39 Q1575.17 1450.39 1578.22 1455 Q1581.3 1459.58 1581.3 1468.33 Q1581.3 1477.06 1578.22 1481.67 Q1575.17 1486.25 1569.35 1486.25 Q1563.54 1486.25 1560.47 1481.67 Q1557.41 1477.06 1557.41 1468.33 Q1557.41 1459.58 1560.47 1455 Q1563.54 1450.39 1569.35 1450.39 Z" fill="#000000" fill-rule="nonzero" fill-opacity="1" /><path clip-path="url(#clip490)" d="M1599.52 1454.1 Q1595.91 1454.1 1594.08 1457.66 Q1592.27 1461.2 1592.27 1468.33 Q1592.27 1475.44 1594.08 1479.01 Q1595.91 1482.55 1599.52 1482.55 Q1603.15 1482.55 1604.96 1479.01 Q1606.79 1475.44 1606.79 1468.33 Q1606.79 1461.2 1604.96 1457.66 Q1603.15 1454.1 1599.52 1454.1 M1599.52 1450.39 Q1605.33 1450.39 1608.38 1455 Q1611.46 1459.58 1611.46 1468.33 Q1611.46 1477.06 1608.38 1481.67 Q1605.33 1486.25 1599.52 1486.25 Q1593.71 1486.25 1590.63 1481.67 Q1587.57 1477.06 1587.57 1468.33 Q1587.57 1459.58 1590.63 1455 Q1593.71 1450.39 1599.52 1450.39 Z" fill="#000000" fill-rule="nonzero" fill-opacity="1" /><path clip-path="url(#clip490)" d="M1800.9 1481.64 L1808.53 1481.64 L1808.53 1455.28 L1800.22 1456.95 L1800.22 1452.69 L1808.49 1451.02 L1813.16 1451.02 L1813.16 1481.64 L1820.8 1481.64 L1820.8 1485.58 L1800.9 1485.58 L1800.9 1481.64 Z" fill="#000000" fill-rule="nonzero" fill-opacity="1" /><path clip-path="url(#clip490)" d="M1840.83 1466.44 Q1837.68 1466.44 1835.83 1468.59 Q1834 1470.74 1834 1474.49 Q1834 1478.22 1835.83 1480.39 Q1837.68 1482.55 1840.83 1482.55 Q1843.97 1482.55 1845.8 1480.39 Q1847.65 1478.22 1847.65 1474.49 Q1847.65 1470.74 1845.8 1468.59 Q1843.97 1466.44 1840.83 1466.44 M1850.11 1451.78 L1850.11 1456.04 Q1848.35 1455.21 1846.54 1454.77 Q1844.76 1454.33 1843 1454.33 Q1838.37 1454.33 1835.92 1457.45 Q1833.49 1460.58 1833.14 1466.9 Q1834.51 1464.89 1836.57 1463.82 Q1838.63 1462.73 1841.1 1462.73 Q1846.31 1462.73 1849.32 1465.9 Q1852.35 1469.05 1852.35 1474.49 Q1852.35 1479.82 1849.21 1483.03 Q1846.06 1486.25 1840.83 1486.25 Q1834.83 1486.25 1831.66 1481.67 Q1828.49 1477.06 1828.49 1468.33 Q1828.49 1460.14 1832.38 1455.28 Q1836.27 1450.39 1842.82 1450.39 Q1844.58 1450.39 1846.36 1450.74 Q1848.16 1451.09 1850.11 1451.78 Z" fill="#000000" fill-rule="nonzero" fill-opacity="1" /><path clip-path="url(#clip490)" d="M1870.41 1454.1 Q1866.8 1454.1 1864.97 1457.66 Q1863.16 1461.2 1863.16 1468.33 Q1863.16 1475.44 1864.97 1479.01 Q1866.8 1482.55 1870.41 1482.55 Q1874.04 1482.55 1875.85 1479.01 Q1877.68 1475.44 1877.68 1468.33 Q1877.68 1461.2 1875.85 1457.66 Q1874.04 1454.1 1870.41 1454.1 M1870.41 1450.39 Q1876.22 1450.39 1879.27 1455 Q1882.35 1459.58 1882.35 1468.33 Q1882.35 1477.06 1879.27 1481.67 Q1876.22 1486.25 1870.41 1486.25 Q1864.6 1486.25 1861.52 1481.67 Q1858.46 1477.06 1858.46 1468.33 Q1858.46 1459.58 1861.52 1455 Q1864.6 1450.39 1870.41 1450.39 Z" fill="#000000" fill-rule="nonzero" fill-opacity="1" /><path clip-path="url(#clip490)" d="M1900.57 1454.1 Q1896.96 1454.1 1895.13 1457.66 Q1893.33 1461.2 1893.33 1468.33 Q1893.33 1475.44 1895.13 1479.01 Q1896.96 1482.55 1900.57 1482.55 Q1904.21 1482.55 1906.01 1479.01 Q1907.84 1475.44 1907.84 1468.33 Q1907.84 1461.2 1906.01 1457.66 Q1904.21 1454.1 1900.57 1454.1 M1900.57 1450.39 Q1906.38 1450.39 1909.44 1455 Q1912.52 1459.58 1912.52 1468.33 Q1912.52 1477.06 1909.44 1481.67 Q1906.38 1486.25 1900.57 1486.25 Q1894.76 1486.25 1891.68 1481.67 Q1888.63 1477.06 1888.63 1468.33 Q1888.63 1459.58 1891.68 1455 Q1894.76 1450.39 1900.57 1450.39 Z" fill="#000000" fill-rule="nonzero" fill-opacity="1" /><path clip-path="url(#clip490)" d="M2101.95 1481.64 L2109.59 1481.64 L2109.59 1455.28 L2101.28 1456.95 L2101.28 1452.69 L2109.54 1451.02 L2114.22 1451.02 L2114.22 1481.64 L2121.86 1481.64 L2121.86 1485.58 L2101.95 1485.58 L2101.95 1481.64 Z" fill="#000000" fill-rule="nonzero" fill-opacity="1" /><path clip-path="url(#clip490)" d="M2130.12 1451.02 L2152.34 1451.02 L2152.34 1453.01 L2139.8 1485.58 L2134.91 1485.58 L2146.72 1454.96 L2130.12 1454.96 L2130.12 1451.02 Z" fill="#000000" fill-rule="nonzero" fill-opacity="1" /><path clip-path="url(#clip490)" d="M2171.46 1454.1 Q2167.85 1454.1 2166.02 1457.66 Q2164.22 1461.2 2164.22 1468.33 Q2164.22 1475.44 2166.02 1479.01 Q2167.85 1482.55 2171.46 1482.55 Q2175.1 1482.55 2176.9 1479.01 Q2178.73 1475.44 2178.73 1468.33 Q2178.73 1461.2 2176.9 1457.66 Q2175.1 1454.1 2171.46 1454.1 M2171.46 1450.39 Q2177.27 1450.39 2180.33 1455 Q2183.41 1459.58 2183.41 1468.33 Q2183.41 1477.06 2180.33 1481.67 Q2177.27 1486.25 2171.46 1486.25 Q2165.65 1486.25 2162.57 1481.67 Q2159.52 1477.06 2159.52 1468.33 Q2159.52 1459.58 2162.57 1455 Q2165.65 1450.39 2171.46 1450.39 Z" fill="#000000" fill-rule="nonzero" fill-opacity="1" /><path clip-path="url(#clip490)" d="M2201.63 1454.1 Q2198.01 1454.1 2196.19 1457.66 Q2194.38 1461.2 2194.38 1468.33 Q2194.38 1475.44 2196.19 1479.01 Q2198.01 1482.55 2201.63 1482.55 Q2205.26 1482.55 2207.07 1479.01 Q2208.89 1475.44 2208.89 1468.33 Q2208.89 1461.2 2207.07 1457.66 Q2205.26 1454.1 2201.63 1454.1 M2201.63 1450.39 Q2207.44 1450.39 2210.49 1455 Q2213.57 1459.58 2213.57 1468.33 Q2213.57 1477.06 2210.49 1481.67 Q2207.44 1486.25 2201.63 1486.25 Q2195.82 1486.25 2192.74 1481.67 Q2189.68 1477.06 2189.68 1468.33 Q2189.68 1459.58 2192.74 1455 Q2195.82 1450.39 2201.63 1450.39 Z" fill="#000000" fill-rule="nonzero" fill-opacity="1" /><path clip-path="url(#clip490)" d="M1044.44 1520.52 L1074.49 1520.52 L1074.49 1525.93 L1050.87 1525.93 L1050.87 1540 L1073.5 1540 L1073.5 1545.41 L1050.87 1545.41 L1050.87 1562.63 L1075.06 1562.63 L1075.06 1568.04 L1044.44 1568.04 L1044.44 1520.52 Z" fill="#000000" fill-rule="nonzero" fill-opacity="1" /><path clip-path="url(#clip490)" d="M1115 1546.53 L1115 1568.04 L1109.15 1568.04 L1109.15 1546.72 Q1109.15 1541.66 1107.17 1539.14 Q1105.2 1536.63 1101.25 1536.63 Q1096.51 1536.63 1093.77 1539.65 Q1091.04 1542.68 1091.04 1547.9 L1091.04 1568.04 L1085.15 1568.04 L1085.15 1532.4 L1091.04 1532.4 L1091.04 1537.93 Q1093.14 1534.72 1095.97 1533.13 Q1098.84 1531.54 1102.56 1531.54 Q1108.7 1531.54 1111.85 1535.36 Q1115 1539.14 1115 1546.53 Z" fill="#000000" fill-rule="nonzero" fill-opacity="1" /><path clip-path="url(#clip490)" d="M1132.48 1522.27 L1132.48 1532.4 L1144.54 1532.4 L1144.54 1536.95 L1132.48 1536.95 L1132.48 1556.3 Q1132.48 1560.66 1133.66 1561.9 Q1134.87 1563.14 1138.53 1563.14 L1144.54 1563.14 L1144.54 1568.04 L1138.53 1568.04 Q1131.75 1568.04 1129.17 1565.53 Q1126.59 1562.98 1126.59 1556.3 L1126.59 1536.95 L1122.29 1536.95 L1122.29 1532.4 L1126.59 1532.4 L1126.59 1522.27 L1132.48 1522.27 Z" fill="#000000" fill-rule="nonzero" fill-opacity="1" /><path clip-path="url(#clip490)" d="M1172.9 1537.87 Q1171.91 1537.3 1170.74 1537.04 Q1169.59 1536.76 1168.19 1536.76 Q1163.22 1536.76 1160.55 1540 Q1157.91 1543.22 1157.91 1549.27 L1157.91 1568.04 L1152.02 1568.04 L1152.02 1532.4 L1157.91 1532.4 L1157.91 1537.93 Q1159.76 1534.69 1162.72 1533.13 Q1165.68 1531.54 1169.91 1531.54 Q1170.51 1531.54 1171.25 1531.63 Q1171.98 1531.7 1172.87 1531.85 L1172.9 1537.87 Z" fill="#000000" fill-rule="nonzero" fill-opacity="1" /><path clip-path="url(#clip490)" d="M1191.42 1536.5 Q1186.71 1536.5 1183.98 1540.19 Q1181.24 1543.85 1181.24 1550.25 Q1181.24 1556.65 1183.94 1560.34 Q1186.68 1564 1191.42 1564 Q1196.1 1564 1198.84 1560.31 Q1201.58 1556.62 1201.58 1550.25 Q1201.58 1543.92 1198.84 1540.23 Q1196.1 1536.5 1191.42 1536.5 M1191.42 1531.54 Q1199.06 1531.54 1203.42 1536.5 Q1207.78 1541.47 1207.78 1550.25 Q1207.78 1559 1203.42 1564 Q1199.06 1568.97 1191.42 1568.97 Q1183.75 1568.97 1179.39 1564 Q1175.06 1559 1175.06 1550.25 Q1175.06 1541.47 1179.39 1536.5 Q1183.75 1531.54 1191.42 1531.54 Z" fill="#000000" fill-rule="nonzero" fill-opacity="1" /><path clip-path="url(#clip490)" d="M1223.16 1562.7 L1223.16 1581.6 L1217.27 1581.6 L1217.27 1532.4 L1223.16 1532.4 L1223.16 1537.81 Q1225 1534.62 1227.8 1533.1 Q1230.64 1531.54 1234.55 1531.54 Q1241.05 1531.54 1245.09 1536.69 Q1249.16 1541.85 1249.16 1550.25 Q1249.16 1558.65 1245.09 1563.81 Q1241.05 1568.97 1234.55 1568.97 Q1230.64 1568.97 1227.8 1567.44 Q1225 1565.88 1223.16 1562.7 M1243.08 1550.25 Q1243.08 1543.79 1240.41 1540.13 Q1237.77 1536.44 1233.12 1536.44 Q1228.47 1536.44 1225.8 1540.13 Q1223.16 1543.79 1223.16 1550.25 Q1223.16 1556.71 1225.8 1560.4 Q1228.47 1564.07 1233.12 1564.07 Q1237.77 1564.07 1240.41 1560.4 Q1243.08 1556.71 1243.08 1550.25 Z" fill="#000000" fill-rule="nonzero" fill-opacity="1" /><path clip-path="url(#clip490)" d="M1273.7 1571.35 Q1271.22 1577.72 1268.86 1579.66 Q1266.51 1581.6 1262.56 1581.6 L1257.88 1581.6 L1257.88 1576.7 L1261.32 1576.7 Q1263.74 1576.7 1265.08 1575.56 Q1266.41 1574.41 1268.04 1570.14 L1269.09 1567.47 L1254.67 1532.4 L1260.87 1532.4 L1272.01 1560.28 L1283.15 1532.4 L1289.36 1532.4 L1273.7 1571.35 Z" fill="#000000" fill-rule="nonzero" fill-opacity="1" /><path clip-path="url(#clip490)" d="M1332.23 1518.58 Q1327.97 1525.9 1325.9 1533.06 Q1323.83 1540.23 1323.83 1547.58 Q1323.83 1554.93 1325.9 1562.16 Q1328 1569.35 1332.23 1576.64 L1327.14 1576.64 Q1322.37 1569.16 1319.98 1561.93 Q1317.62 1554.71 1317.62 1547.58 Q1317.62 1540.48 1319.98 1533.29 Q1322.34 1526.09 1327.14 1518.58 L1332.23 1518.58 Z" fill="#000000" fill-rule="nonzero" fill-opacity="1" /><path clip-path="url(#clip490)" d="M1343.85 1520.52 L1350.28 1520.52 L1350.28 1564.73 Q1350.28 1573.33 1347 1577.21 Q1343.76 1581.09 1336.53 1581.09 L1334.08 1581.09 L1334.08 1575.68 L1336.09 1575.68 Q1340.35 1575.68 1342.1 1573.3 Q1343.85 1570.91 1343.85 1564.73 L1343.85 1520.52 Z" fill="#000000" fill-rule="nonzero" fill-opacity="1" /><path clip-path="url(#clip490)" d="M1373.23 1520.52 L1378.64 1520.52 L1362.09 1574.09 L1356.68 1574.09 L1373.23 1520.52 Z" fill="#000000" fill-rule="nonzero" fill-opacity="1" /><path clip-path="url(#clip490)" d="M1384.56 1518.52 L1390.45 1518.52 L1390.45 1547.77 L1407.92 1532.4 L1415.4 1532.4 L1396.5 1549.07 L1416.2 1568.04 L1408.56 1568.04 L1390.45 1550.63 L1390.45 1568.04 L1384.56 1568.04 L1384.56 1518.52 Z" fill="#000000" fill-rule="nonzero" fill-opacity="1" /><path clip-path="url(#clip490)" d="M1445.99 1549.81 Q1445.99 1543.44 1443.35 1539.94 Q1440.74 1536.44 1435.99 1536.44 Q1431.28 1536.44 1428.64 1539.94 Q1426.03 1543.44 1426.03 1549.81 Q1426.03 1556.14 1428.64 1559.64 Q1431.28 1563.14 1435.99 1563.14 Q1440.74 1563.14 1443.35 1559.64 Q1445.99 1556.14 1445.99 1549.81 M1451.85 1563.62 Q1451.85 1572.72 1447.8 1577.15 Q1443.76 1581.6 1435.42 1581.6 Q1432.33 1581.6 1429.6 1581.13 Q1426.86 1580.68 1424.28 1579.72 L1424.28 1574.03 Q1426.86 1575.43 1429.37 1576.1 Q1431.89 1576.76 1434.5 1576.76 Q1440.26 1576.76 1443.12 1573.74 Q1445.99 1570.75 1445.99 1564.67 L1445.99 1561.77 Q1444.17 1564.92 1441.34 1566.48 Q1438.51 1568.04 1434.56 1568.04 Q1428.01 1568.04 1424 1563.05 Q1419.99 1558.05 1419.99 1549.81 Q1419.99 1541.53 1424 1536.53 Q1428.01 1531.54 1434.56 1531.54 Q1438.51 1531.54 1441.34 1533.1 Q1444.17 1534.66 1445.99 1537.81 L1445.99 1532.4 L1451.85 1532.4 L1451.85 1563.62 Z" fill="#000000" fill-rule="nonzero" fill-opacity="1" /><path clip-path="url(#clip490)" d="M1474.32 1520.52 L1479.73 1520.52 L1463.18 1574.09 L1457.77 1574.09 L1474.32 1520.52 Z" fill="#000000" fill-rule="nonzero" fill-opacity="1" /><path clip-path="url(#clip490)" d="M1486.12 1520.52 L1492.55 1520.52 L1492.55 1540.61 L1513.88 1520.52 L1522.15 1520.52 L1498.57 1542.68 L1523.84 1568.04 L1515.38 1568.04 L1492.55 1545.16 L1492.55 1568.04 L1486.12 1568.04 L1486.12 1520.52 Z" fill="#000000" fill-rule="nonzero" fill-opacity="1" /><path clip-path="url(#clip490)" d="M1527.69 1518.58 L1532.79 1518.58 Q1537.56 1526.09 1539.92 1533.29 Q1542.3 1540.48 1542.3 1547.58 Q1542.3 1554.71 1539.92 1561.93 Q1537.56 1569.16 1532.79 1576.64 L1527.69 1576.64 Q1531.93 1569.35 1533.99 1562.16 Q1536.1 1554.93 1536.1 1547.58 Q1536.1 1540.23 1533.99 1533.06 Q1531.93 1525.9 1527.69 1518.58 Z" fill="#000000" fill-rule="nonzero" fill-opacity="1" /><polyline clip-path="url(#clip490)" style="stroke:#000000; stroke-linecap:round; stroke-linejoin:round; stroke-width:4; stroke-opacity:1; fill:none" points="233.987,1423.18 233.987,47.2441 "/>
<polyline clip-path="url(#clip490)" style="stroke:#000000; stroke-linecap:round; stroke-linejoin:round; stroke-width:4; stroke-opacity:1; fill:none" points="233.987,1230.09 252.884,1230.09 "/>
<polyline clip-path="url(#clip490)" style="stroke:#000000; stroke-linecap:round; stroke-linejoin:round; stroke-width:4; stroke-opacity:1; fill:none" points="233.987,921.804 252.884,921.804 "/>
<polyline clip-path="url(#clip490)" style="stroke:#000000; stroke-linecap:round; stroke-linejoin:round; stroke-width:4; stroke-opacity:1; fill:none" points="233.987,613.515 252.884,613.515 "/>
<polyline clip-path="url(#clip490)" style="stroke:#000000; stroke-linecap:round; stroke-linejoin:round; stroke-width:4; stroke-opacity:1; fill:none" points="233.987,305.225 252.884,305.225 "/>
<path clip-path="url(#clip490)" d="M129.885 1228.74 Q133.242 1229.46 135.117 1231.73 Q137.015 1233.99 137.015 1237.33 Q137.015 1242.44 133.496 1245.24 Q129.978 1248.04 123.496 1248.04 Q121.32 1248.04 119.006 1247.61 Q116.714 1247.19 114.26 1246.33 L114.26 1241.82 Q116.205 1242.95 118.519 1243.53 Q120.834 1244.11 123.357 1244.11 Q127.755 1244.11 130.047 1242.37 Q132.362 1240.64 132.362 1237.33 Q132.362 1234.27 130.209 1232.56 Q128.08 1230.82 124.26 1230.82 L120.232 1230.82 L120.232 1226.98 L124.445 1226.98 Q127.894 1226.98 129.723 1225.61 Q131.552 1224.23 131.552 1221.63 Q131.552 1218.97 129.654 1217.56 Q127.779 1216.12 124.26 1216.12 Q122.339 1216.12 120.14 1216.54 Q117.941 1216.96 115.302 1217.84 L115.302 1213.67 Q117.964 1212.93 120.279 1212.56 Q122.617 1212.19 124.677 1212.19 Q130.001 1212.19 133.103 1214.62 Q136.204 1217.03 136.204 1221.15 Q136.204 1224.02 134.561 1226.01 Q132.917 1227.98 129.885 1228.74 Z" fill="#000000" fill-rule="nonzero" fill-opacity="1" /><path clip-path="url(#clip490)" d="M155.88 1215.89 Q152.269 1215.89 150.441 1219.46 Q148.635 1223 148.635 1230.13 Q148.635 1237.23 150.441 1240.8 Q152.269 1244.34 155.88 1244.34 Q159.515 1244.34 161.32 1240.8 Q163.149 1237.23 163.149 1230.13 Q163.149 1223 161.32 1219.46 Q159.515 1215.89 155.88 1215.89 M155.88 1212.19 Q161.69 1212.19 164.746 1216.8 Q167.825 1221.38 167.825 1230.13 Q167.825 1238.86 164.746 1243.46 Q161.69 1248.04 155.88 1248.04 Q150.07 1248.04 146.991 1243.46 Q143.936 1238.86 143.936 1230.13 Q143.936 1221.38 146.991 1216.8 Q150.07 1212.19 155.88 1212.19 Z" fill="#000000" fill-rule="nonzero" fill-opacity="1" /><path clip-path="url(#clip490)" d="M186.042 1215.89 Q182.431 1215.89 180.602 1219.46 Q178.797 1223 178.797 1230.13 Q178.797 1237.23 180.602 1240.8 Q182.431 1244.34 186.042 1244.34 Q189.676 1244.34 191.482 1240.8 Q193.311 1237.23 193.311 1230.13 Q193.311 1223 191.482 1219.46 Q189.676 1215.89 186.042 1215.89 M186.042 1212.19 Q191.852 1212.19 194.908 1216.8 Q197.987 1221.38 197.987 1230.13 Q197.987 1238.86 194.908 1243.46 Q191.852 1248.04 186.042 1248.04 Q180.232 1248.04 177.153 1243.46 Q174.098 1238.86 174.098 1230.13 Q174.098 1221.38 177.153 1216.8 Q180.232 1212.19 186.042 1212.19 Z" fill="#000000" fill-rule="nonzero" fill-opacity="1" /><path clip-path="url(#clip490)" d="M129.885 920.45 Q133.242 921.168 135.117 923.436 Q137.015 925.705 137.015 929.038 Q137.015 934.154 133.496 936.955 Q129.978 939.755 123.496 939.755 Q121.32 939.755 119.006 939.316 Q116.714 938.899 114.26 938.042 L114.26 933.529 Q116.205 934.663 118.519 935.242 Q120.834 935.82 123.357 935.82 Q127.755 935.82 130.047 934.084 Q132.362 932.348 132.362 929.038 Q132.362 925.982 130.209 924.269 Q128.08 922.533 124.26 922.533 L120.232 922.533 L120.232 918.691 L124.445 918.691 Q127.894 918.691 129.723 917.325 Q131.552 915.936 131.552 913.344 Q131.552 910.682 129.654 909.269 Q127.779 907.834 124.26 907.834 Q122.339 907.834 120.14 908.251 Q117.941 908.668 115.302 909.547 L115.302 905.381 Q117.964 904.64 120.279 904.27 Q122.617 903.899 124.677 903.899 Q130.001 903.899 133.103 906.33 Q136.204 908.737 136.204 912.857 Q136.204 915.728 134.561 917.719 Q132.917 919.686 129.885 920.45 Z" fill="#000000" fill-rule="nonzero" fill-opacity="1" /><path clip-path="url(#clip490)" d="M149.908 935.149 L166.227 935.149 L166.227 939.084 L144.283 939.084 L144.283 935.149 Q146.945 932.394 151.528 927.765 Q156.135 923.112 157.315 921.769 Q159.561 919.246 160.44 917.51 Q161.343 915.751 161.343 914.061 Q161.343 911.307 159.399 909.57 Q157.478 907.834 154.376 907.834 Q152.177 907.834 149.723 908.598 Q147.292 909.362 144.515 910.913 L144.515 906.191 Q147.339 905.057 149.792 904.478 Q152.246 903.899 154.283 903.899 Q159.653 903.899 162.848 906.584 Q166.042 909.269 166.042 913.76 Q166.042 915.89 165.232 917.811 Q164.445 919.709 162.339 922.302 Q161.76 922.973 158.658 926.191 Q155.556 929.385 149.908 935.149 Z" fill="#000000" fill-rule="nonzero" fill-opacity="1" /><path clip-path="url(#clip490)" d="M186.042 907.603 Q182.431 907.603 180.602 911.168 Q178.797 914.709 178.797 921.839 Q178.797 928.945 180.602 932.51 Q182.431 936.052 186.042 936.052 Q189.676 936.052 191.482 932.51 Q193.311 928.945 193.311 921.839 Q193.311 914.709 191.482 911.168 Q189.676 907.603 186.042 907.603 M186.042 903.899 Q191.852 903.899 194.908 908.506 Q197.987 913.089 197.987 921.839 Q197.987 930.566 194.908 935.172 Q191.852 939.755 186.042 939.755 Q180.232 939.755 177.153 935.172 Q174.098 930.566 174.098 921.839 Q174.098 913.089 177.153 908.506 Q180.232 903.899 186.042 903.899 Z" fill="#000000" fill-rule="nonzero" fill-opacity="1" /><path clip-path="url(#clip490)" d="M129.885 612.161 Q133.242 612.878 135.117 615.147 Q137.015 617.415 137.015 620.748 Q137.015 625.864 133.496 628.665 Q129.978 631.466 123.496 631.466 Q121.32 631.466 119.006 631.026 Q116.714 630.61 114.26 629.753 L114.26 625.239 Q116.205 626.373 118.519 626.952 Q120.834 627.531 123.357 627.531 Q127.755 627.531 130.047 625.795 Q132.362 624.059 132.362 620.748 Q132.362 617.693 130.209 615.98 Q128.08 614.244 124.26 614.244 L120.232 614.244 L120.232 610.401 L124.445 610.401 Q127.894 610.401 129.723 609.036 Q131.552 607.647 131.552 605.054 Q131.552 602.392 129.654 600.98 Q127.779 599.545 124.26 599.545 Q122.339 599.545 120.14 599.962 Q117.941 600.378 115.302 601.258 L115.302 597.091 Q117.964 596.35 120.279 595.98 Q122.617 595.61 124.677 595.61 Q130.001 595.61 133.103 598.04 Q136.204 600.448 136.204 604.568 Q136.204 607.438 134.561 609.429 Q132.917 611.397 129.885 612.161 Z" fill="#000000" fill-rule="nonzero" fill-opacity="1" /><path clip-path="url(#clip490)" d="M158.728 600.309 L146.922 618.758 L158.728 618.758 L158.728 600.309 M157.501 596.235 L163.38 596.235 L163.38 618.758 L168.311 618.758 L168.311 622.647 L163.38 622.647 L163.38 630.795 L158.728 630.795 L158.728 622.647 L143.126 622.647 L143.126 618.133 L157.501 596.235 Z" fill="#000000" fill-rule="nonzero" fill-opacity="1" /><path clip-path="url(#clip490)" d="M186.042 599.313 Q182.431 599.313 180.602 602.878 Q178.797 606.42 178.797 613.549 Q178.797 620.656 180.602 624.221 Q182.431 627.762 186.042 627.762 Q189.676 627.762 191.482 624.221 Q193.311 620.656 193.311 613.549 Q193.311 606.42 191.482 602.878 Q189.676 599.313 186.042 599.313 M186.042 595.61 Q191.852 595.61 194.908 600.216 Q197.987 604.799 197.987 613.549 Q197.987 622.276 194.908 626.883 Q191.852 631.466 186.042 631.466 Q180.232 631.466 177.153 626.883 Q174.098 622.276 174.098 613.549 Q174.098 604.799 177.153 600.216 Q180.232 595.61 186.042 595.61 Z" fill="#000000" fill-rule="nonzero" fill-opacity="1" /><path clip-path="url(#clip490)" d="M129.885 303.871 Q133.242 304.589 135.117 306.857 Q137.015 309.126 137.015 312.459 Q137.015 317.575 133.496 320.376 Q129.978 323.177 123.496 323.177 Q121.32 323.177 119.006 322.737 Q116.714 322.32 114.26 321.464 L114.26 316.95 Q116.205 318.084 118.519 318.663 Q120.834 319.241 123.357 319.241 Q127.755 319.241 130.047 317.505 Q132.362 315.769 132.362 312.459 Q132.362 309.404 130.209 307.691 Q128.08 305.954 124.26 305.954 L120.232 305.954 L120.232 302.112 L124.445 302.112 Q127.894 302.112 129.723 300.746 Q131.552 299.357 131.552 296.765 Q131.552 294.103 129.654 292.691 Q127.779 291.255 124.26 291.255 Q122.339 291.255 120.14 291.672 Q117.941 292.089 115.302 292.968 L115.302 288.802 Q117.964 288.061 120.279 287.691 Q122.617 287.32 124.677 287.32 Q130.001 287.32 133.103 289.751 Q136.204 292.158 136.204 296.279 Q136.204 299.149 134.561 301.14 Q132.917 303.107 129.885 303.871 Z" fill="#000000" fill-rule="nonzero" fill-opacity="1" /><path clip-path="url(#clip490)" d="M156.459 303.362 Q153.311 303.362 151.459 305.515 Q149.63 307.667 149.63 311.417 Q149.63 315.144 151.459 317.32 Q153.311 319.473 156.459 319.473 Q159.607 319.473 161.436 317.32 Q163.288 315.144 163.288 311.417 Q163.288 307.667 161.436 305.515 Q159.607 303.362 156.459 303.362 M165.741 288.709 L165.741 292.968 Q163.982 292.135 162.177 291.695 Q160.394 291.255 158.635 291.255 Q154.005 291.255 151.552 294.38 Q149.121 297.505 148.774 303.825 Q150.14 301.811 152.2 300.746 Q154.26 299.658 156.737 299.658 Q161.945 299.658 164.954 302.829 Q167.987 305.978 167.987 311.417 Q167.987 316.741 164.839 319.959 Q161.69 323.177 156.459 323.177 Q150.464 323.177 147.292 318.593 Q144.121 313.987 144.121 305.26 Q144.121 297.066 148.01 292.205 Q151.899 287.32 158.45 287.32 Q160.209 287.32 161.991 287.668 Q163.797 288.015 165.741 288.709 Z" fill="#000000" fill-rule="nonzero" fill-opacity="1" /><path clip-path="url(#clip490)" d="M186.042 291.024 Q182.431 291.024 180.602 294.589 Q178.797 298.13 178.797 305.26 Q178.797 312.366 180.602 315.931 Q182.431 319.473 186.042 319.473 Q189.676 319.473 191.482 315.931 Q193.311 312.366 193.311 305.26 Q193.311 298.13 191.482 294.589 Q189.676 291.024 186.042 291.024 M186.042 287.32 Q191.852 287.32 194.908 291.927 Q197.987 296.51 197.987 305.26 Q197.987 313.987 194.908 318.593 Q191.852 323.177 186.042 323.177 Q180.232 323.177 177.153 318.593 Q174.098 313.987 174.098 305.26 Q174.098 296.51 177.153 291.927 Q180.232 287.32 186.042 287.32 Z" fill="#000000" fill-rule="nonzero" fill-opacity="1" /><path clip-path="url(#clip490)" d="M16.4842 996.126 L16.4842 955.927 L21.895 955.927 L21.895 972.796 L64.0042 972.796 L64.0042 979.257 L21.895 979.257 L21.895 996.126 L16.4842 996.126 Z" fill="#000000" fill-rule="nonzero" fill-opacity="1" /><path clip-path="url(#clip490)" d="M44.7161 930.56 L47.5806 930.56 L47.5806 957.487 Q53.6281 957.105 56.8109 953.858 Q59.9619 950.58 59.9619 944.755 Q59.9619 941.381 59.1344 938.23 Q58.3069 935.047 56.6518 931.928 L62.1899 931.928 Q63.5267 935.079 64.227 938.389 Q64.9272 941.7 64.9272 945.105 Q64.9272 953.635 59.9619 958.632 Q54.9967 963.598 46.5303 963.598 Q37.7774 963.598 32.6531 958.887 Q27.4968 954.145 27.4968 946.124 Q27.4968 938.93 32.1438 934.761 Q36.7589 930.56 44.7161 930.56 M42.9973 936.416 Q38.1912 936.48 35.3266 939.121 Q32.4621 941.731 32.4621 946.06 Q32.4621 950.962 35.2312 953.922 Q38.0002 956.85 43.0292 957.296 L42.9973 936.416 Z" fill="#000000" fill-rule="nonzero" fill-opacity="1" /><path clip-path="url(#clip490)" d="M35.1993 893.193 Q31.2526 890.997 29.3747 887.941 Q27.4968 884.886 27.4968 880.748 Q27.4968 875.178 31.4117 872.154 Q35.2948 869.131 42.4881 869.131 L64.0042 869.131 L64.0042 875.019 L42.679 875.019 Q37.5546 875.019 35.072 876.833 Q32.5894 878.647 32.5894 882.371 Q32.5894 886.923 35.6131 889.564 Q38.6368 892.206 43.8567 892.206 L64.0042 892.206 L64.0042 898.094 L42.679 898.094 Q37.5228 898.094 35.072 899.909 Q32.5894 901.723 32.5894 905.511 Q32.5894 909.998 35.6449 912.64 Q38.6686 915.282 43.8567 915.282 L64.0042 915.282 L64.0042 921.17 L28.3562 921.17 L28.3562 915.282 L33.8944 915.282 Q30.616 913.277 29.0564 910.476 Q27.4968 907.675 27.4968 903.824 Q27.4968 899.941 29.4702 897.235 Q31.4436 894.498 35.1993 893.193 Z" fill="#000000" fill-rule="nonzero" fill-opacity="1" /><path clip-path="url(#clip490)" d="M58.657 851.784 L77.5631 851.784 L77.5631 857.672 L28.3562 857.672 L28.3562 851.784 L33.7671 851.784 Q30.5842 849.938 29.0564 847.137 Q27.4968 844.304 27.4968 840.389 Q27.4968 833.896 32.6531 829.854 Q37.8093 825.78 46.212 825.78 Q54.6147 825.78 59.771 829.854 Q64.9272 833.896 64.9272 840.389 Q64.9272 844.304 63.3994 847.137 Q61.8398 849.938 58.657 851.784 M46.212 831.859 Q39.7508 831.859 36.0905 834.533 Q32.3984 837.175 32.3984 841.822 Q32.3984 846.469 36.0905 849.142 Q39.7508 851.784 46.212 851.784 Q52.6732 851.784 56.3653 849.142 Q60.0256 846.469 60.0256 841.822 Q60.0256 837.175 56.3653 834.533 Q52.6732 831.859 46.212 831.859 Z" fill="#000000" fill-rule="nonzero" fill-opacity="1" /><path clip-path="url(#clip490)" d="M44.7161 785.581 L47.5806 785.581 L47.5806 812.508 Q53.6281 812.126 56.8109 808.879 Q59.9619 805.601 59.9619 799.776 Q59.9619 796.402 59.1344 793.251 Q58.3069 790.068 56.6518 786.949 L62.1899 786.949 Q63.5267 790.1 64.227 793.41 Q64.9272 796.721 64.9272 800.126 Q64.9272 808.656 59.9619 813.653 Q54.9967 818.619 46.5303 818.619 Q37.7774 818.619 32.6531 813.908 Q27.4968 809.166 27.4968 801.145 Q27.4968 793.952 32.1438 789.782 Q36.7589 785.581 44.7161 785.581 M42.9973 791.437 Q38.1912 791.501 35.3266 794.142 Q32.4621 796.752 32.4621 801.081 Q32.4621 805.983 35.2312 808.943 Q38.0002 811.871 43.0292 812.317 L42.9973 791.437 Z" fill="#000000" fill-rule="nonzero" fill-opacity="1" /><path clip-path="url(#clip490)" d="M33.8307 755.312 Q33.2578 756.298 33.0032 757.476 Q32.7167 758.622 32.7167 760.022 Q32.7167 764.988 35.9632 767.661 Q39.1779 770.303 45.2253 770.303 L64.0042 770.303 L64.0042 776.191 L28.3562 776.191 L28.3562 770.303 L33.8944 770.303 Q30.6479 768.457 29.0883 765.497 Q27.4968 762.537 27.4968 758.304 Q27.4968 757.699 27.5923 756.967 Q27.656 756.235 27.8151 755.344 L33.8307 755.312 Z" fill="#000000" fill-rule="nonzero" fill-opacity="1" /><path clip-path="url(#clip490)" d="M46.0847 732.968 Q46.0847 740.066 47.7079 742.803 Q49.3312 745.54 53.2461 745.54 Q56.3653 745.54 58.2114 743.503 Q60.0256 741.434 60.0256 737.901 Q60.0256 733.032 56.5881 730.103 Q53.1188 727.143 47.3897 727.143 L46.0847 727.143 L46.0847 732.968 M43.6657 721.287 L64.0042 721.287 L64.0042 727.143 L58.5933 727.143 Q61.8398 729.149 63.3994 732.141 Q64.9272 735.132 64.9272 739.461 Q64.9272 744.936 61.8716 748.182 Q58.7843 751.397 53.6281 751.397 Q47.6125 751.397 44.5569 747.386 Q41.5014 743.344 41.5014 735.355 L41.5014 727.143 L40.9285 727.143 Q36.8862 727.143 34.6901 729.817 Q32.4621 732.459 32.4621 737.265 Q32.4621 740.32 33.1941 743.217 Q33.9262 746.113 35.3903 748.787 L29.9795 748.787 Q28.7381 745.572 28.1334 742.548 Q27.4968 739.525 27.4968 736.66 Q27.4968 728.926 31.5072 725.106 Q35.5176 721.287 43.6657 721.287 Z" fill="#000000" fill-rule="nonzero" fill-opacity="1" /><path clip-path="url(#clip490)" d="M18.2347 703.431 L28.3562 703.431 L28.3562 691.368 L32.9077 691.368 L32.9077 703.431 L52.2594 703.431 Q56.6199 703.431 57.8613 702.254 Q59.1026 701.044 59.1026 697.384 L59.1026 691.368 L64.0042 691.368 L64.0042 697.384 Q64.0042 704.163 61.4897 706.741 Q58.9434 709.319 52.2594 709.319 L32.9077 709.319 L32.9077 713.616 L28.3562 713.616 L28.3562 709.319 L18.2347 709.319 L18.2347 703.431 Z" fill="#000000" fill-rule="nonzero" fill-opacity="1" /><path clip-path="url(#clip490)" d="M49.9359 684.27 L28.3562 684.27 L28.3562 678.414 L49.7131 678.414 Q54.7739 678.414 57.3202 676.441 Q59.8346 674.467 59.8346 670.52 Q59.8346 665.778 56.8109 663.041 Q53.7872 660.272 48.5673 660.272 L28.3562 660.272 L28.3562 654.415 L64.0042 654.415 L64.0042 660.272 L58.5296 660.272 Q61.7762 662.404 63.3676 665.237 Q64.9272 668.038 64.9272 671.762 Q64.9272 677.905 61.1078 681.088 Q57.2883 684.27 49.9359 684.27 M27.4968 669.534 L27.4968 669.534 Z" fill="#000000" fill-rule="nonzero" fill-opacity="1" /><path clip-path="url(#clip490)" d="M33.8307 621.696 Q33.2578 622.682 33.0032 623.86 Q32.7167 625.006 32.7167 626.406 Q32.7167 631.371 35.9632 634.045 Q39.1779 636.687 45.2253 636.687 L64.0042 636.687 L64.0042 642.575 L28.3562 642.575 L28.3562 636.687 L33.8944 636.687 Q30.6479 634.841 29.0883 631.881 Q27.4968 628.921 27.4968 624.687 Q27.4968 624.083 27.5923 623.351 Q27.656 622.619 27.8151 621.727 L33.8307 621.696 Z" fill="#000000" fill-rule="nonzero" fill-opacity="1" /><path clip-path="url(#clip490)" d="M44.7161 586.493 L47.5806 586.493 L47.5806 613.42 Q53.6281 613.038 56.8109 609.792 Q59.9619 606.513 59.9619 600.689 Q59.9619 597.315 59.1344 594.164 Q58.3069 590.981 56.6518 587.862 L62.1899 587.862 Q63.5267 591.013 64.227 594.323 Q64.9272 597.633 64.9272 601.039 Q64.9272 609.569 59.9619 614.566 Q54.9967 619.531 46.5303 619.531 Q37.7774 619.531 32.6531 614.821 Q27.4968 610.078 27.4968 602.057 Q27.4968 594.864 32.1438 590.695 Q36.7589 586.493 44.7161 586.493 M42.9973 592.35 Q38.1912 592.413 35.3266 595.055 Q32.4621 597.665 32.4621 601.994 Q32.4621 606.895 35.2312 609.855 Q38.0002 612.784 43.0292 613.229 L42.9973 592.35 Z" fill="#000000" fill-rule="nonzero" fill-opacity="1" /><path clip-path="url(#clip490)" d="M14.5426 542.092 Q21.8632 546.357 29.0246 548.426 Q36.186 550.495 43.5384 550.495 Q50.8908 550.495 58.1159 548.426 Q65.3091 546.326 72.5979 542.092 L72.5979 547.185 Q65.1182 551.959 57.8931 554.346 Q50.668 556.702 43.5384 556.702 Q36.4406 556.702 29.2474 554.346 Q22.0542 551.991 14.5426 547.185 L14.5426 542.092 Z" fill="#000000" fill-rule="nonzero" fill-opacity="1" /><path clip-path="url(#clip490)" d="M16.4842 530.475 L16.4842 524.046 L36.568 524.046 L16.4842 502.72 L16.4842 494.445 L38.6368 518.03 L64.0042 492.758 L64.0042 501.225 L41.1194 524.046 L64.0042 524.046 L64.0042 530.475 L16.4842 530.475 Z" fill="#000000" fill-rule="nonzero" fill-opacity="1" /><path clip-path="url(#clip490)" d="M14.5426 488.907 L14.5426 483.814 Q22.0542 479.04 29.2474 476.685 Q36.4406 474.298 43.5384 474.298 Q50.668 474.298 57.8931 476.685 Q65.1182 479.04 72.5979 483.814 L72.5979 488.907 Q65.3091 484.674 58.1159 482.605 Q50.8908 480.504 43.5384 480.504 Q36.186 480.504 29.0246 482.605 Q21.8632 484.674 14.5426 488.907 Z" fill="#000000" fill-rule="nonzero" fill-opacity="1" /><polyline clip-path="url(#clip492)" style="stroke:#009af9; stroke-linecap:round; stroke-linejoin:round; stroke-width:4; stroke-opacity:1; fill:none" points="293.952,1384.24 294.048,1384.05 294.144,1383.86 294.24,1383.67 294.336,1383.47 294.432,1383.28 294.528,1383.09 294.624,1382.9 294.72,1382.71 294.816,1382.52 294.913,1382.33 295.009,1382.14 295.105,1381.95 295.201,1381.76 295.297,1381.57 295.393,1381.37 295.489,1381.18 295.585,1380.99 295.681,1380.8 295.777,1380.61 295.873,1380.42 295.969,1380.23 296.065,1380.04 296.161,1379.85 296.257,1379.66 296.353,1379.47 296.449,1379.28 296.545,1379.08 296.641,1378.89 296.737,1378.7 296.833,1378.51 296.929,1378.32 297.025,1378.13 297.121,1377.94 297.217,1377.75 297.313,1377.56 297.409,1377.37 297.505,1377.18 297.601,1376.99 297.697,1376.8 297.793,1376.61 297.889,1376.41 297.985,1376.22 298.081,1376.03 298.177,1375.84 298.273,1375.65 298.369,1375.46 298.465,1375.27 298.561,1375.08 298.657,1374.89 298.753,1374.7 298.849,1374.51 298.945,1374.32 299.041,1374.13 299.136,1373.94 299.232,1373.75 299.328,1373.56 299.424,1373.37 299.52,1373.17 299.616,1372.98 299.712,1372.79 299.808,1372.6 299.904,1372.41 300,1372.22 300.096,1372.03 300.192,1371.84 300.287,1371.65 300.383,1371.46 300.479,1371.27 300.575,1371.08 300.671,1370.89 300.767,1370.7 300.863,1370.51 300.959,1370.32 301.055,1370.13 301.15,1369.94 301.246,1369.75 301.342,1369.56 301.438,1369.37 301.534,1369.18 301.63,1368.99 301.726,1368.79 301.821,1368.6 301.917,1368.41 302.013,1368.22 302.109,1368.03 302.205,1367.84 302.301,1367.65 302.396,1367.46 302.492,1367.27 302.588,1367.08 302.684,1366.89 302.78,1366.7 302.876,1366.51 302.971,1366.32 303.067,1366.13 303.163,1365.94 303.259,1365.75 303.355,1365.56 303.45,1365.37 324.805,1342.39 346.052,1319.51 367.192,1296.71 388.227,1273.99 409.158,1251.38 429.987,1228.85 450.714,1206.42 471.342,1184.09 491.872,1161.85 512.305,1139.72 532.642,1117.69 552.886,1095.77 573.036,1073.96 593.095,1052.25 613.064,1030.66 632.944,1009.19 652.736,987.838 672.442,966.608 692.063,945.504 711.6,924.53 731.054,903.69 750.426,882.988 769.719,862.429 788.932,842.016 808.068,821.756 827.127,801.653 846.11,781.714 865.02,761.944 883.856,742.35 902.621,722.94 921.316,703.721 939.944,691.052 958.558,691.052 977.172,691.052 995.786,691.052 1014.4,691.052 1033.01,691.052 1051.63,691.052 1070.24,691.052 1088.85,691.052 1107.47,691.052 1126.08,691.052 1144.69,691.052 1163.31,691.052 1181.92,691.052 1200.54,691.052 1219.15,691.052 1237.76,691.052 1256.38,691.052 1274.99,691.052 1293.6,691.052 1312.22,691.052 1330.83,691.052 1349.45,691.052 1368.06,691.052 1386.67,691.052 1405.29,691.052 1423.9,691.052 1442.51,691.052 1461.13,691.052 1479.74,691.052 1498.35,691.052 1516.97,691.052 1535.58,691.052 1554.2,691.052 1572.81,691.052 1591.42,691.052 1610.04,691.052 1628.65,691.052 1647.26,691.052 1665.88,691.052 1684.49,691.052 1703.11,691.052 1721.72,691.052 1740.33,691.052 1758.95,691.052 1777.56,691.052 1796.17,691.052 1814.79,691.052 1833.4,691.052 1852.01,691.052 1870.63,691.052 1889.24,691.052 1907.86,691.052 1926.47,691.052 1945.08,691.052 1963.7,691.052 1982.31,691.052 2000.92,691.052 2019.54,691.052 2038.15,691.052 2056.77,691.052 2075.38,691.052 2093.99,691.052 2112.61,691.052 2131.22,691.052 2149.83,691.052 2168.44,682.673 2186.98,659.712 2187.18,664.333 2187.39,668.963 2187.6,673.603 2187.83,678.252 2188.06,682.91 2188.3,687.578 2188.55,692.255 2188.81,696.942 2189.08,701.639 2189.36,706.345 2189.66,711.061 2189.96,715.786 2190.27,720.521 2190.59,725.265 2190.92,730.02 2191.27,734.784 2191.62,739.558 2191.99,744.341 2192.37,749.135 2192.76,753.938 2193.16,758.752 2193.57,763.575 2194,768.408 2194.44,773.251 2194.89,778.104 2195.35,782.968 2195.83,787.841 2196.32,792.724 2196.83,797.618 2197.34,802.522 2197.88,807.436 2198.42,812.36 2198.99,817.295 2199.56,822.24 2200.16,827.195 2200.76,832.16 2201.39,837.137 2202.03,842.123 2202.68,847.12 2203.36,852.128 2204.05,857.146 2204.75,862.175 2205.48,867.214 2206.22,872.265 2206.98,877.326 2207.76,882.397 2208.57,887.48 2209.39,892.574 2210.23,897.678 2211.09,902.793 2211.97,907.92 2212.87,913.057 2213.8,918.205 2214.74,923.365 2215.71,928.536 2216.71,933.718 2217.72,938.911 2218.76,944.115 2219.83,949.331 2220.92,954.558 2222.04,959.797 2223.19,965.047 2224.36,970.309 2225.56,975.582 2226.79,980.867 2228.05,986.163 2229.34,991.471 2230.66,996.791 2232.01,1002.12 2233.39,1007.47 2234.81,1012.82 2236.26,1018.19 2237.75,1023.57 2239.27,1028.96 2240.83,1034.36 2242.43,1039.78 2244.07,1045.21 2245.74,1050.65 2247.46,1056.1 2249.22,1061.56 2251.03,1067.04 2252.88,1072.53 2254.77,1078.03 2256.72,1083.55 2258.71,1089.07 2260.76,1094.61 2262.85,1100.17 2265,1105.73 2267.21,1111.31 2269.47,1116.9 2271.8,1122.5 2274.18,1128.12 2276.63,1133.75 2279.14,1139.39 2281.73,1145.04 2284.38,1150.71 2287.11,1156.39 2289.91,1162.09 2292.79,1167.8 2273.09,1198.64 2253.25,1229.32 2233.28,1259.81 2213.18,1290.08 2192.99,1296.45 2172.8,1296.45 2152.6,1296.45 2132.41,1296.45 2112.22,1296.45 2092.02,1296.45 2071.83,1296.45 2051.63,1296.45 2031.44,1296.45 2011.25,1296.45 1991.05,1296.45 1970.86,1296.45 1950.66,1296.45 1930.47,1296.45 1910.27,1296.45 1890.08,1296.45 1869.89,1296.45 1849.69,1296.45 1829.5,1296.45 1809.3,1296.45 1789.11,1296.45 1768.92,1296.45 1748.72,1296.45 1728.53,1296.45 1708.33,1296.45 1688.14,1296.45 1667.95,1296.45 1647.75,1296.45 1627.56,1296.45 1607.36,1296.45 1587.17,1296.45 1566.97,1296.45 1546.78,1296.45 1526.59,1296.45 1506.39,1296.45 1486.2,1296.45 1466,1296.45 1445.81,1296.45 1425.62,1296.45 1405.42,1296.45 1385.23,1296.45 1365.03,1296.45 1344.84,1296.45 1324.64,1296.45 1304.45,1296.45 1284.26,1296.45 1264.06,1296.45 1243.87,1296.45 1223.67,1296.45 1203.48,1296.45 1183.29,1296.45 1163.09,1296.45 1142.9,1296.45 1122.7,1296.45 1102.51,1296.45 1082.32,1296.45 1062.12,1296.45 1041.93,1296.45 1021.73,1296.45 1001.54,1296.45 981.344,1296.45 961.15,1296.45 940.956,1296.45 920.762,1296.45 900.568,1296.45 880.374,1296.45 860.18,1296.45 839.985,1296.45 819.791,1296.45 799.597,1296.45 779.403,1296.45 759.209,1296.45 739.015,1296.45 718.82,1296.45 698.626,1296.45 678.432,1296.45 658.238,1296.45 638.044,1296.45 617.85,1296.45 597.656,1296.45 577.461,1296.45 557.267,1296.45 537.073,1296.45 516.879,1296.45 496.685,1296.45 476.491,1296.45 456.297,1296.45 436.102,1296.45 415.908,1296.45 395.714,1296.45 375.52,1297.09 355.275,1318.74 334.933,1340.49 314.492,1362.32 293.952,1384.24 "/>
<circle clip-path="url(#clip492)" cx="293.952" cy="1384.24" r="14.4" fill="#e26f46" fill-rule="evenodd" fill-opacity="1" stroke="#000000" stroke-opacity="1" stroke-width="3.2"/>
<circle clip-path="url(#clip492)" cx="303.45" cy="1365.37" r="14.4" fill="#e26f46" fill-rule="evenodd" fill-opacity="1" stroke="#000000" stroke-opacity="1" stroke-width="3.2"/>
<circle clip-path="url(#clip492)" cx="2186.98" cy="659.712" r="14.4" fill="#e26f46" fill-rule="evenodd" fill-opacity="1" stroke="#000000" stroke-opacity="1" stroke-width="3.2"/>
<circle clip-path="url(#clip492)" cx="2292.79" cy="1167.8" r="14.4" fill="#e26f46" fill-rule="evenodd" fill-opacity="1" stroke="#000000" stroke-opacity="1" stroke-width="3.2"/>
<polyline clip-path="url(#clip492)" style="stroke:#3da44d; stroke-linecap:round; stroke-linejoin:round; stroke-width:4; stroke-opacity:1; fill:none" points="376.116,1296.45 401.984,1268.46 426.792,1241.57 450.639,1215.68 473.61,1190.72 495.776,1166.61 517.204,1143.28 537.95,1120.68 558.064,1098.76 577.592,1077.46 596.574,1056.75 615.047,1036.6 633.042,1016.96 650.59,997.814 667.719,979.127 684.451,960.876 700.811,943.039 716.819,925.593 732.494,908.519 747.853,891.8 762.913,875.418 777.688,859.359 792.194,843.607 806.442,828.151 820.446,812.976 834.216,798.072 847.763,783.427 861.097,769.033 874.228,754.878 887.164,740.954 899.913,727.252 912.484,713.765 924.885,700.486 937.121,687.406 949.2,674.52 961.129,661.82 972.912,649.302 984.557,636.958 996.069,624.785 1007.45,612.776 1018.71,600.927 1029.86,589.233 1040.88,577.69 1051.8,566.294 1062.62,555.04 1073.34,543.924 1083.96,532.944 1094.48,522.094 1104.92,511.373 1115.28,500.777 1125.55,490.303 1135.75,479.947 1145.87,469.708 1155.93,459.581 1165.91,449.566 1175.84,439.658 1185.7,429.856 1195.51,420.158 1205.26,410.561 1214.97,401.063 1224.63,391.663 1234.25,382.357 1243.82,373.145 1253.37,364.024 1262.88,354.992 1272.36,346.049 1281.82,337.192 1291.25,328.419 1300.67,319.73 1310.08,311.123 1319.49,302.596 1328.89,294.148 1338.29,285.778 1347.7,277.485 1357.12,269.266 1366.57,261.123 1376.04,253.052 1385.55,245.054 1395.1,237.126 1404.7,229.269 1414.37,221.481 1424.11,213.762 1433.93,206.111 1443.87,198.526 1453.92,191.008 1464.12,183.556 1474.48,176.169 1485.04,168.847 1495.84,161.59 1506.92,154.397 1518.35,147.267 1530.19,140.203 1542.58,133.202 1555.64,126.267 1569.63,119.398 1584.9,112.596 1602.12,105.864 1622.69,99.205 1684.06,92.062 1742.27,86.1857 "/>
<polyline clip-path="url(#clip492)" style="stroke:#c271d2; stroke-linecap:round; stroke-linejoin:round; stroke-width:4; stroke-opacity:1; fill:none" points="2208.92,1296.45 2206.95,1268.46 2205.1,1241.57 2203.35,1215.68 2201.67,1190.72 2200.06,1166.61 2198.51,1143.28 2197,1120.68 2195.54,1098.76 2194.11,1077.46 2192.72,1056.75 2191.34,1036.6 2189.99,1016.96 2188.65,997.814 2187.32,979.127 2186,960.876 2184.68,943.039 2183.37,925.593 2182.05,908.519 2180.74,891.8 2179.42,875.418 2178.09,859.359 2176.76,843.607 2175.42,828.151 2174.06,812.976 2172.69,798.072 2171.31,783.427 2169.91,769.033 2168.5,754.878 2167.06,740.954 2165.61,727.252 2164.13,713.765 2162.64,700.486 2161.12,687.406 2159.57,674.52 2158.01,661.82 2156.41,649.302 2154.79,636.958 2153.14,624.785 2151.45,612.776 2149.74,600.927 2148,589.233 2146.22,577.69 2144.41,566.294 2142.56,555.04 2140.68,543.924 2138.75,532.944 2136.79,522.094 2134.79,511.373 2132.75,500.777 2130.66,490.303 2128.52,479.947 2126.34,469.708 2124.11,459.581 2121.84,449.566 2119.5,439.658 2117.12,429.856 2114.68,420.158 2112.18,410.561 2109.62,401.063 2107,391.663 2104.31,382.357 2101.56,373.145 2098.73,364.024 2095.83,354.992 2092.85,346.049 2089.8,337.192 2086.65,328.419 2083.42,319.73 2080.1,311.123 2076.67,302.596 2073.14,294.148 2069.51,285.778 2065.75,277.485 2061.88,269.266 2057.87,261.123 2053.73,253.052 2049.43,245.054 2044.97,237.126 2040.34,229.269 2035.53,221.481 2030.51,213.762 2025.27,206.111 2019.79,198.526 2014.04,191.008 2008,183.556 2001.62,176.169 1994.87,168.847 1987.69,161.59 1980.02,154.397 1971.77,147.267 1962.84,140.203 1953.06,133.202 1942.23,126.267 1930.04,119.398 1915.99,112.596 1899.19,105.864 1877.82,99.205 1684.14,92.062 1742.27,86.1857 "/>
<path clip-path="url(#clip490)" d="M304.612 352.309 L1055.93 352.309 L1055.93 93.1086 L304.612 93.1086  Z" fill="#ffffff" fill-rule="evenodd" fill-opacity="1"/>
<polyline clip-path="url(#clip490)" style="stroke:#000000; stroke-linecap:round; stroke-linejoin:round; stroke-width:4; stroke-opacity:1; fill:none" points="304.612,352.309 1055.93,352.309 1055.93,93.1086 304.612,93.1086 304.612,352.309 "/>
<polyline clip-path="url(#clip490)" style="stroke:#009af9; stroke-linecap:round; stroke-linejoin:round; stroke-width:4; stroke-opacity:1; fill:none" points="328.154,144.949 469.405,144.949 "/>
<path clip-path="url(#clip490)" d="M520.817 130.331 L520.817 135.261 Q518.456 133.062 515.771 131.974 Q513.109 130.886 510.1 130.886 Q504.174 130.886 501.026 134.52 Q497.878 138.132 497.878 144.983 Q497.878 151.812 501.026 155.446 Q504.174 159.057 510.1 159.057 Q513.109 159.057 515.771 157.969 Q518.456 156.881 520.817 154.682 L520.817 159.567 Q518.364 161.233 515.609 162.067 Q512.878 162.9 509.822 162.9 Q501.975 162.9 497.461 158.108 Q492.947 153.293 492.947 144.983 Q492.947 136.65 497.461 131.858 Q501.975 127.044 509.822 127.044 Q512.924 127.044 515.655 127.877 Q518.41 128.687 520.817 130.331 Z" fill="#000000" fill-rule="nonzero" fill-opacity="1" /><path clip-path="url(#clip490)" d="M538.641 164.636 Q536.836 169.266 535.123 170.678 Q533.41 172.09 530.54 172.09 L527.137 172.09 L527.137 168.525 L529.637 168.525 Q531.396 168.525 532.368 167.692 Q533.341 166.858 534.521 163.756 L535.285 161.812 L524.799 136.303 L529.313 136.303 L537.415 156.581 L545.516 136.303 L550.03 136.303 L538.641 164.636 Z" fill="#000000" fill-rule="nonzero" fill-opacity="1" /><path clip-path="url(#clip490)" d="M574.567 137.298 L574.567 141.28 Q572.762 140.284 570.933 139.798 Q569.127 139.289 567.276 139.289 Q563.132 139.289 560.84 141.928 Q558.549 144.544 558.549 149.289 Q558.549 154.034 560.84 156.673 Q563.132 159.289 567.276 159.289 Q569.127 159.289 570.933 158.803 Q572.762 158.293 574.567 157.298 L574.567 161.233 Q572.785 162.067 570.864 162.483 Q568.965 162.9 566.813 162.9 Q560.956 162.9 557.507 159.219 Q554.058 155.539 554.058 149.289 Q554.058 142.946 557.53 139.312 Q561.026 135.678 567.09 135.678 Q569.058 135.678 570.933 136.095 Q572.808 136.488 574.567 137.298 Z" fill="#000000" fill-rule="nonzero" fill-opacity="1" /><path clip-path="url(#clip490)" d="M581.975 126.21 L586.234 126.21 L586.234 162.229 L581.975 162.229 L581.975 126.21 Z" fill="#000000" fill-rule="nonzero" fill-opacity="1" /><path clip-path="url(#clip490)" d="M617.322 148.201 L617.322 150.284 L597.738 150.284 Q598.016 154.682 600.377 156.997 Q602.761 159.289 606.998 159.289 Q609.451 159.289 611.743 158.687 Q614.058 158.085 616.326 156.881 L616.326 160.909 Q614.035 161.881 611.627 162.391 Q609.22 162.9 606.743 162.9 Q600.539 162.9 596.905 159.289 Q593.294 155.678 593.294 149.52 Q593.294 143.155 596.72 139.428 Q600.169 135.678 606.002 135.678 Q611.234 135.678 614.266 139.057 Q617.322 142.414 617.322 148.201 M613.062 146.951 Q613.016 143.456 611.095 141.372 Q609.197 139.289 606.049 139.289 Q602.484 139.289 600.331 141.303 Q598.201 143.317 597.877 146.974 L613.062 146.951 Z" fill="#000000" fill-rule="nonzero" fill-opacity="1" /><circle clip-path="url(#clip490)" cx="398.78" cy="196.789" r="20.48" fill="#e26f46" fill-rule="evenodd" fill-opacity="1" stroke="#000000" stroke-opacity="1" stroke-width="4.55111"/>
<path clip-path="url(#clip490)" d="M520.817 182.171 L520.817 187.101 Q518.456 184.902 515.771 183.814 Q513.109 182.726 510.1 182.726 Q504.174 182.726 501.026 186.36 Q497.878 189.972 497.878 196.823 Q497.878 203.652 501.026 207.286 Q504.174 210.897 510.1 210.897 Q513.109 210.897 515.771 209.809 Q518.456 208.721 520.817 206.522 L520.817 211.407 Q518.364 213.073 515.609 213.907 Q512.878 214.74 509.822 214.74 Q501.975 214.74 497.461 209.948 Q492.947 205.133 492.947 196.823 Q492.947 188.49 497.461 183.698 Q501.975 178.884 509.822 178.884 Q512.924 178.884 515.655 179.717 Q518.41 180.527 520.817 182.171 Z" fill="#000000" fill-rule="nonzero" fill-opacity="1" /><path clip-path="url(#clip490)" d="M538.641 216.476 Q536.836 221.106 535.123 222.518 Q533.41 223.93 530.54 223.93 L527.137 223.93 L527.137 220.365 L529.637 220.365 Q531.396 220.365 532.368 219.532 Q533.341 218.698 534.521 215.596 L535.285 213.652 L524.799 188.143 L529.313 188.143 L537.415 208.421 L545.516 188.143 L550.03 188.143 L538.641 216.476 Z" fill="#000000" fill-rule="nonzero" fill-opacity="1" /><path clip-path="url(#clip490)" d="M574.567 189.138 L574.567 193.12 Q572.762 192.124 570.933 191.638 Q569.127 191.129 567.276 191.129 Q563.132 191.129 560.84 193.768 Q558.549 196.384 558.549 201.129 Q558.549 205.874 560.84 208.513 Q563.132 211.129 567.276 211.129 Q569.127 211.129 570.933 210.643 Q572.762 210.133 574.567 209.138 L574.567 213.073 Q572.785 213.907 570.864 214.323 Q568.965 214.74 566.813 214.74 Q560.956 214.74 557.507 211.059 Q554.058 207.379 554.058 201.129 Q554.058 194.786 557.53 191.152 Q561.026 187.518 567.09 187.518 Q569.058 187.518 570.933 187.935 Q572.808 188.328 574.567 189.138 Z" fill="#000000" fill-rule="nonzero" fill-opacity="1" /><path clip-path="url(#clip490)" d="M581.975 178.05 L586.234 178.05 L586.234 214.069 L581.975 214.069 L581.975 178.05 Z" fill="#000000" fill-rule="nonzero" fill-opacity="1" /><path clip-path="url(#clip490)" d="M617.322 200.041 L617.322 202.124 L597.738 202.124 Q598.016 206.522 600.377 208.837 Q602.761 211.129 606.998 211.129 Q609.451 211.129 611.743 210.527 Q614.058 209.925 616.326 208.721 L616.326 212.749 Q614.035 213.721 611.627 214.231 Q609.22 214.74 606.743 214.74 Q600.539 214.74 596.905 211.129 Q593.294 207.518 593.294 201.36 Q593.294 194.995 596.72 191.268 Q600.169 187.518 606.002 187.518 Q611.234 187.518 614.266 190.897 Q617.322 194.254 617.322 200.041 M613.062 198.791 Q613.016 195.296 611.095 193.212 Q609.197 191.129 606.049 191.129 Q602.484 191.129 600.331 193.143 Q598.201 195.157 597.877 198.814 L613.062 198.791 Z" fill="#000000" fill-rule="nonzero" fill-opacity="1" /><path clip-path="url(#clip490)" d="M644.243 183.351 L644.243 196.337 L650.122 196.337 Q653.386 196.337 655.169 194.647 Q656.951 192.958 656.951 189.833 Q656.951 186.731 655.169 185.041 Q653.386 183.351 650.122 183.351 L644.243 183.351 M639.567 179.509 L650.122 179.509 Q655.932 179.509 658.895 182.147 Q661.882 184.763 661.882 189.833 Q661.882 194.948 658.895 197.564 Q655.932 200.18 650.122 200.18 L644.243 200.18 L644.243 214.069 L639.567 214.069 L639.567 179.509 Z" fill="#000000" fill-rule="nonzero" fill-opacity="1" /><path clip-path="url(#clip490)" d="M676.326 191.129 Q672.9 191.129 670.909 193.814 Q668.919 196.476 668.919 201.129 Q668.919 205.782 670.886 208.467 Q672.877 211.129 676.326 211.129 Q679.729 211.129 681.719 208.444 Q683.71 205.758 683.71 201.129 Q683.71 196.522 681.719 193.837 Q679.729 191.129 676.326 191.129 M676.326 187.518 Q681.881 187.518 685.053 191.129 Q688.224 194.74 688.224 201.129 Q688.224 207.495 685.053 211.129 Q681.881 214.74 676.326 214.74 Q670.747 214.74 667.576 211.129 Q664.428 207.495 664.428 201.129 Q664.428 194.74 667.576 191.129 Q670.747 187.518 676.326 187.518 Z" fill="#000000" fill-rule="nonzero" fill-opacity="1" /><path clip-path="url(#clip490)" d="M695.284 188.143 L699.543 188.143 L699.543 214.069 L695.284 214.069 L695.284 188.143 M695.284 178.05 L699.543 178.05 L699.543 183.444 L695.284 183.444 L695.284 178.05 Z" fill="#000000" fill-rule="nonzero" fill-opacity="1" /><path clip-path="url(#clip490)" d="M730.006 198.421 L730.006 214.069 L725.747 214.069 L725.747 198.559 Q725.747 194.879 724.312 193.05 Q722.877 191.222 720.006 191.222 Q716.557 191.222 714.566 193.421 Q712.576 195.62 712.576 199.416 L712.576 214.069 L708.293 214.069 L708.293 188.143 L712.576 188.143 L712.576 192.171 Q714.103 189.833 716.164 188.675 Q718.247 187.518 720.955 187.518 Q725.423 187.518 727.715 190.296 Q730.006 193.05 730.006 198.421 Z" fill="#000000" fill-rule="nonzero" fill-opacity="1" /><path clip-path="url(#clip490)" d="M742.714 180.782 L742.714 188.143 L751.488 188.143 L751.488 191.453 L742.714 191.453 L742.714 205.527 Q742.714 208.698 743.571 209.601 Q744.451 210.504 747.113 210.504 L751.488 210.504 L751.488 214.069 L747.113 214.069 Q742.182 214.069 740.307 212.24 Q738.432 210.388 738.432 205.527 L738.432 191.453 L735.307 191.453 L735.307 188.143 L738.432 188.143 L738.432 180.782 L742.714 180.782 Z" fill="#000000" fill-rule="nonzero" fill-opacity="1" /><path clip-path="url(#clip490)" d="M773.617 188.907 L773.617 192.934 Q771.812 192.009 769.867 191.546 Q767.923 191.083 765.839 191.083 Q762.668 191.083 761.071 192.055 Q759.497 193.027 759.497 194.971 Q759.497 196.453 760.631 197.309 Q761.765 198.143 765.191 198.907 L766.649 199.231 Q771.187 200.203 773.085 201.985 Q775.006 203.745 775.006 206.916 Q775.006 210.527 772.136 212.633 Q769.288 214.74 764.288 214.74 Q762.205 214.74 759.937 214.323 Q757.691 213.93 755.191 213.12 L755.191 208.721 Q757.552 209.948 759.844 210.573 Q762.136 211.175 764.381 211.175 Q767.39 211.175 769.011 210.157 Q770.631 209.115 770.631 207.24 Q770.631 205.504 769.45 204.578 Q768.293 203.652 764.335 202.796 L762.853 202.448 Q758.895 201.615 757.136 199.902 Q755.376 198.166 755.376 195.157 Q755.376 191.499 757.969 189.509 Q760.562 187.518 765.33 187.518 Q767.691 187.518 769.774 187.865 Q771.858 188.212 773.617 188.907 Z" fill="#000000" fill-rule="nonzero" fill-opacity="1" /><polyline clip-path="url(#clip490)" style="stroke:#3da44d; stroke-linecap:round; stroke-linejoin:round; stroke-width:4; stroke-opacity:1; fill:none" points="328.154,248.629 469.405,248.629 "/>
<path clip-path="url(#clip490)" d="M515.193 232.483 L515.193 237.043 Q512.53 235.77 510.169 235.145 Q507.808 234.52 505.609 234.52 Q501.79 234.52 499.706 236.001 Q497.646 237.483 497.646 240.214 Q497.646 242.506 499.012 243.687 Q500.401 244.844 504.243 245.562 L507.068 246.14 Q512.299 247.136 514.776 249.659 Q517.276 252.159 517.276 256.372 Q517.276 261.395 513.896 263.987 Q510.54 266.58 504.035 266.58 Q501.581 266.58 498.804 266.024 Q496.049 265.469 493.086 264.381 L493.086 259.566 Q495.933 261.163 498.665 261.973 Q501.396 262.784 504.035 262.784 Q508.04 262.784 510.216 261.21 Q512.392 259.636 512.392 256.719 Q512.392 254.173 510.818 252.737 Q509.267 251.302 505.702 250.585 L502.855 250.029 Q497.623 248.987 495.285 246.765 Q492.947 244.543 492.947 240.585 Q492.947 236.001 496.165 233.362 Q499.406 230.724 505.077 230.724 Q507.507 230.724 510.031 231.163 Q512.554 231.603 515.193 232.483 Z" fill="#000000" fill-rule="nonzero" fill-opacity="1" /><path clip-path="url(#clip490)" d="M536.165 252.876 Q531.003 252.876 529.012 254.057 Q527.021 255.237 527.021 258.085 Q527.021 260.353 528.503 261.696 Q530.007 263.015 532.577 263.015 Q536.118 263.015 538.248 260.515 Q540.401 257.992 540.401 253.825 L540.401 252.876 L536.165 252.876 M544.66 251.117 L544.66 265.909 L540.401 265.909 L540.401 261.973 Q538.942 264.335 536.766 265.469 Q534.591 266.58 531.442 266.58 Q527.461 266.58 525.1 264.358 Q522.762 262.112 522.762 258.362 Q522.762 253.987 525.679 251.765 Q528.618 249.543 534.429 249.543 L540.401 249.543 L540.401 249.126 Q540.401 246.187 538.456 244.589 Q536.535 242.969 533.04 242.969 Q530.817 242.969 528.711 243.501 Q526.604 244.034 524.66 245.099 L524.66 241.163 Q526.998 240.261 529.197 239.821 Q531.396 239.358 533.479 239.358 Q539.104 239.358 541.882 242.274 Q544.66 245.191 544.66 251.117 Z" fill="#000000" fill-rule="nonzero" fill-opacity="1" /><path clip-path="url(#clip490)" d="M557.646 232.622 L557.646 239.983 L566.419 239.983 L566.419 243.293 L557.646 243.293 L557.646 257.367 Q557.646 260.538 558.502 261.441 Q559.382 262.344 562.044 262.344 L566.419 262.344 L566.419 265.909 L562.044 265.909 Q557.114 265.909 555.239 264.08 Q553.364 262.228 553.364 257.367 L553.364 243.293 L550.239 243.293 L550.239 239.983 L553.364 239.983 L553.364 232.622 L557.646 232.622 Z" fill="#000000" fill-rule="nonzero" fill-opacity="1" /><path clip-path="url(#clip490)" d="M571.581 255.677 L571.581 239.983 L575.84 239.983 L575.84 255.515 Q575.84 259.196 577.276 261.048 Q578.711 262.876 581.581 262.876 Q585.03 262.876 587.021 260.677 Q589.035 258.478 589.035 254.682 L589.035 239.983 L593.294 239.983 L593.294 265.909 L589.035 265.909 L589.035 261.927 Q587.484 264.288 585.424 265.446 Q583.387 266.58 580.678 266.58 Q576.211 266.58 573.896 263.802 Q571.581 261.024 571.581 255.677 M582.299 239.358 L582.299 239.358 Z" fill="#000000" fill-rule="nonzero" fill-opacity="1" /><path clip-path="url(#clip490)" d="M617.09 243.964 Q616.373 243.548 615.516 243.362 Q614.683 243.154 613.664 243.154 Q610.053 243.154 608.109 245.515 Q606.187 247.853 606.187 252.251 L606.187 265.909 L601.905 265.909 L601.905 239.983 L606.187 239.983 L606.187 244.011 Q607.53 241.649 609.683 240.515 Q611.836 239.358 614.914 239.358 Q615.354 239.358 615.886 239.427 Q616.419 239.474 617.067 239.589 L617.09 243.964 Z" fill="#000000" fill-rule="nonzero" fill-opacity="1" /><path clip-path="url(#clip490)" d="M633.34 252.876 Q628.178 252.876 626.187 254.057 Q624.197 255.237 624.197 258.085 Q624.197 260.353 625.678 261.696 Q627.183 263.015 629.752 263.015 Q633.294 263.015 635.423 260.515 Q637.576 257.992 637.576 253.825 L637.576 252.876 L633.34 252.876 M641.835 251.117 L641.835 265.909 L637.576 265.909 L637.576 261.973 Q636.118 264.335 633.942 265.469 Q631.766 266.58 628.618 266.58 Q624.636 266.58 622.275 264.358 Q619.937 262.112 619.937 258.362 Q619.937 253.987 622.854 251.765 Q625.794 249.543 631.604 249.543 L637.576 249.543 L637.576 249.126 Q637.576 246.187 635.632 244.589 Q633.71 242.969 630.215 242.969 Q627.993 242.969 625.886 243.501 Q623.78 244.034 621.835 245.099 L621.835 241.163 Q624.173 240.261 626.372 239.821 Q628.572 239.358 630.655 239.358 Q636.28 239.358 639.058 242.274 Q641.835 245.191 641.835 251.117 Z" fill="#000000" fill-rule="nonzero" fill-opacity="1" /><path clip-path="url(#clip490)" d="M654.821 232.622 L654.821 239.983 L663.594 239.983 L663.594 243.293 L654.821 243.293 L654.821 257.367 Q654.821 260.538 655.678 261.441 Q656.557 262.344 659.22 262.344 L663.594 262.344 L663.594 265.909 L659.22 265.909 Q654.289 265.909 652.414 264.08 Q650.539 262.228 650.539 257.367 L650.539 243.293 L647.414 243.293 L647.414 239.983 L650.539 239.983 L650.539 232.622 L654.821 232.622 Z" fill="#000000" fill-rule="nonzero" fill-opacity="1" /><path clip-path="url(#clip490)" d="M669.196 239.983 L673.456 239.983 L673.456 265.909 L669.196 265.909 L669.196 239.983 M669.196 229.89 L673.456 229.89 L673.456 235.284 L669.196 235.284 L669.196 229.89 Z" fill="#000000" fill-rule="nonzero" fill-opacity="1" /><path clip-path="url(#clip490)" d="M692.414 242.969 Q688.988 242.969 686.997 245.654 Q685.006 248.316 685.006 252.969 Q685.006 257.622 686.974 260.307 Q688.965 262.969 692.414 262.969 Q695.817 262.969 697.807 260.284 Q699.798 257.598 699.798 252.969 Q699.798 248.362 697.807 245.677 Q695.817 242.969 692.414 242.969 M692.414 239.358 Q697.969 239.358 701.141 242.969 Q704.312 246.58 704.312 252.969 Q704.312 259.335 701.141 262.969 Q697.969 266.58 692.414 266.58 Q686.835 266.58 683.664 262.969 Q680.516 259.335 680.516 252.969 Q680.516 246.58 683.664 242.969 Q686.835 239.358 692.414 239.358 Z" fill="#000000" fill-rule="nonzero" fill-opacity="1" /><path clip-path="url(#clip490)" d="M732.923 250.261 L732.923 265.909 L728.664 265.909 L728.664 250.399 Q728.664 246.719 727.228 244.89 Q725.793 243.062 722.923 243.062 Q719.474 243.062 717.483 245.261 Q715.492 247.46 715.492 251.256 L715.492 265.909 L711.21 265.909 L711.21 239.983 L715.492 239.983 L715.492 244.011 Q717.02 241.673 719.08 240.515 Q721.164 239.358 723.872 239.358 Q728.34 239.358 730.631 242.136 Q732.923 244.89 732.923 250.261 Z" fill="#000000" fill-rule="nonzero" fill-opacity="1" /><path clip-path="url(#clip490)" d="M782.552 234.011 L782.552 238.941 Q780.191 236.742 777.506 235.654 Q774.844 234.566 771.835 234.566 Q765.909 234.566 762.761 238.2 Q759.612 241.812 759.612 248.663 Q759.612 255.492 762.761 259.126 Q765.909 262.737 771.835 262.737 Q774.844 262.737 777.506 261.649 Q780.191 260.561 782.552 258.362 L782.552 263.247 Q780.098 264.913 777.344 265.747 Q774.612 266.58 771.557 266.58 Q763.71 266.58 759.196 261.788 Q754.682 256.973 754.682 248.663 Q754.682 240.33 759.196 235.538 Q763.71 230.724 771.557 230.724 Q774.659 230.724 777.39 231.557 Q780.145 232.367 782.552 234.011 Z" fill="#000000" fill-rule="nonzero" fill-opacity="1" /><path clip-path="url(#clip490)" d="M789.149 255.677 L789.149 239.983 L793.409 239.983 L793.409 255.515 Q793.409 259.196 794.844 261.048 Q796.279 262.876 799.149 262.876 Q802.598 262.876 804.589 260.677 Q806.603 258.478 806.603 254.682 L806.603 239.983 L810.862 239.983 L810.862 265.909 L806.603 265.909 L806.603 261.927 Q805.052 264.288 802.992 265.446 Q800.955 266.58 798.247 266.58 Q793.779 266.58 791.464 263.802 Q789.149 261.024 789.149 255.677 M799.867 239.358 L799.867 239.358 Z" fill="#000000" fill-rule="nonzero" fill-opacity="1" /><path clip-path="url(#clip490)" d="M834.658 243.964 Q833.941 243.548 833.084 243.362 Q832.251 243.154 831.232 243.154 Q827.621 243.154 825.677 245.515 Q823.756 247.853 823.756 252.251 L823.756 265.909 L819.473 265.909 L819.473 239.983 L823.756 239.983 L823.756 244.011 Q825.098 241.649 827.251 240.515 Q829.404 239.358 832.482 239.358 Q832.922 239.358 833.455 239.427 Q833.987 239.474 834.635 239.589 L834.658 243.964 Z" fill="#000000" fill-rule="nonzero" fill-opacity="1" /><path clip-path="url(#clip490)" d="M836.07 239.983 L840.584 239.983 L848.686 261.742 L856.788 239.983 L861.302 239.983 L851.58 265.909 L845.793 265.909 L836.07 239.983 Z" fill="#000000" fill-rule="nonzero" fill-opacity="1" /><path clip-path="url(#clip490)" d="M889.357 251.881 L889.357 253.964 L869.774 253.964 Q870.052 258.362 872.413 260.677 Q874.797 262.969 879.033 262.969 Q881.487 262.969 883.778 262.367 Q886.093 261.765 888.362 260.561 L888.362 264.589 Q886.07 265.561 883.663 266.071 Q881.255 266.58 878.779 266.58 Q872.575 266.58 868.941 262.969 Q865.33 259.358 865.33 253.2 Q865.33 246.835 868.755 243.108 Q872.204 239.358 878.038 239.358 Q883.269 239.358 886.302 242.737 Q889.357 246.094 889.357 251.881 M885.098 250.631 Q885.052 247.136 883.13 245.052 Q881.232 242.969 878.084 242.969 Q874.519 242.969 872.367 244.983 Q870.237 246.997 869.913 250.654 L885.098 250.631 Z" fill="#000000" fill-rule="nonzero" fill-opacity="1" /><path clip-path="url(#clip490)" d="M911.417 229.89 L915.676 229.89 L915.676 265.909 L911.417 265.909 L911.417 229.89 Z" fill="#000000" fill-rule="nonzero" fill-opacity="1" /><path clip-path="url(#clip490)" d="M924.588 239.983 L928.848 239.983 L928.848 265.909 L924.588 265.909 L924.588 239.983 M924.588 229.89 L928.848 229.89 L928.848 235.284 L924.588 235.284 L924.588 229.89 Z" fill="#000000" fill-rule="nonzero" fill-opacity="1" /><path clip-path="url(#clip490)" d="M940.306 252.969 Q940.306 257.668 942.227 260.353 Q944.172 263.015 947.551 263.015 Q950.931 263.015 952.875 260.353 Q954.82 257.668 954.82 252.969 Q954.82 248.27 952.875 245.608 Q950.931 242.923 947.551 242.923 Q944.172 242.923 942.227 245.608 Q940.306 248.27 940.306 252.969 M954.82 262.02 Q953.477 264.335 951.417 265.469 Q949.38 266.58 946.51 266.58 Q941.811 266.58 938.848 262.83 Q935.908 259.08 935.908 252.969 Q935.908 246.858 938.848 243.108 Q941.811 239.358 946.51 239.358 Q949.38 239.358 951.417 240.492 Q953.477 241.603 954.82 243.918 L954.82 239.983 L959.079 239.983 L959.079 275.77 L954.82 275.77 L954.82 262.02 Z" fill="#000000" fill-rule="nonzero" fill-opacity="1" /><path clip-path="url(#clip490)" d="M967.412 255.677 L967.412 239.983 L971.672 239.983 L971.672 255.515 Q971.672 259.196 973.107 261.048 Q974.542 262.876 977.412 262.876 Q980.861 262.876 982.852 260.677 Q984.866 258.478 984.866 254.682 L984.866 239.983 L989.125 239.983 L989.125 265.909 L984.866 265.909 L984.866 261.927 Q983.315 264.288 981.255 265.446 Q979.218 266.58 976.509 266.58 Q972.042 266.58 969.727 263.802 Q967.412 261.024 967.412 255.677 M978.13 239.358 L978.13 239.358 Z" fill="#000000" fill-rule="nonzero" fill-opacity="1" /><path clip-path="url(#clip490)" d="M997.898 239.983 L1002.16 239.983 L1002.16 265.909 L997.898 265.909 L997.898 239.983 M997.898 229.89 L1002.16 229.89 L1002.16 235.284 L997.898 235.284 L997.898 229.89 Z" fill="#000000" fill-rule="nonzero" fill-opacity="1" /><path clip-path="url(#clip490)" d="M1028.13 243.918 L1028.13 229.89 L1032.39 229.89 L1032.39 265.909 L1028.13 265.909 L1028.13 262.02 Q1026.79 264.335 1024.73 265.469 Q1022.69 266.58 1019.82 266.58 Q1015.12 266.58 1012.16 262.83 Q1009.22 259.08 1009.22 252.969 Q1009.22 246.858 1012.16 243.108 Q1015.12 239.358 1019.82 239.358 Q1022.69 239.358 1024.73 240.492 Q1026.79 241.603 1028.13 243.918 M1013.62 252.969 Q1013.62 257.668 1015.54 260.353 Q1017.48 263.015 1020.86 263.015 Q1024.24 263.015 1026.19 260.353 Q1028.13 257.668 1028.13 252.969 Q1028.13 248.27 1026.19 245.608 Q1024.24 242.923 1020.86 242.923 Q1017.48 242.923 1015.54 245.608 Q1013.62 248.27 1013.62 252.969 Z" fill="#000000" fill-rule="nonzero" fill-opacity="1" /><polyline clip-path="url(#clip490)" style="stroke:#c271d2; stroke-linecap:round; stroke-linejoin:round; stroke-width:4; stroke-opacity:1; fill:none" points="328.154,300.469 469.405,300.469 "/>
<path clip-path="url(#clip490)" d="M515.193 284.323 L515.193 288.883 Q512.53 287.61 510.169 286.985 Q507.808 286.36 505.609 286.36 Q501.79 286.36 499.706 287.841 Q497.646 289.323 497.646 292.054 Q497.646 294.346 499.012 295.527 Q500.401 296.684 504.243 297.402 L507.068 297.98 Q512.299 298.976 514.776 301.499 Q517.276 303.999 517.276 308.212 Q517.276 313.235 513.896 315.827 Q510.54 318.42 504.035 318.42 Q501.581 318.42 498.804 317.864 Q496.049 317.309 493.086 316.221 L493.086 311.406 Q495.933 313.003 498.665 313.813 Q501.396 314.624 504.035 314.624 Q508.04 314.624 510.216 313.05 Q512.392 311.476 512.392 308.559 Q512.392 306.013 510.818 304.577 Q509.267 303.142 505.702 302.425 L502.855 301.869 Q497.623 300.827 495.285 298.605 Q492.947 296.383 492.947 292.425 Q492.947 287.841 496.165 285.202 Q499.406 282.564 505.077 282.564 Q507.507 282.564 510.031 283.003 Q512.554 283.443 515.193 284.323 Z" fill="#000000" fill-rule="nonzero" fill-opacity="1" /><path clip-path="url(#clip490)" d="M536.165 304.716 Q531.003 304.716 529.012 305.897 Q527.021 307.077 527.021 309.925 Q527.021 312.193 528.503 313.536 Q530.007 314.855 532.577 314.855 Q536.118 314.855 538.248 312.355 Q540.401 309.832 540.401 305.665 L540.401 304.716 L536.165 304.716 M544.66 302.957 L544.66 317.749 L540.401 317.749 L540.401 313.813 Q538.942 316.175 536.766 317.309 Q534.591 318.42 531.442 318.42 Q527.461 318.42 525.1 316.198 Q522.762 313.952 522.762 310.202 Q522.762 305.827 525.679 303.605 Q528.618 301.383 534.429 301.383 L540.401 301.383 L540.401 300.966 Q540.401 298.027 538.456 296.429 Q536.535 294.809 533.04 294.809 Q530.817 294.809 528.711 295.341 Q526.604 295.874 524.66 296.939 L524.66 293.003 Q526.998 292.101 529.197 291.661 Q531.396 291.198 533.479 291.198 Q539.104 291.198 541.882 294.114 Q544.66 297.031 544.66 302.957 Z" fill="#000000" fill-rule="nonzero" fill-opacity="1" /><path clip-path="url(#clip490)" d="M557.646 284.462 L557.646 291.823 L566.419 291.823 L566.419 295.133 L557.646 295.133 L557.646 309.207 Q557.646 312.378 558.502 313.281 Q559.382 314.184 562.044 314.184 L566.419 314.184 L566.419 317.749 L562.044 317.749 Q557.114 317.749 555.239 315.92 Q553.364 314.068 553.364 309.207 L553.364 295.133 L550.239 295.133 L550.239 291.823 L553.364 291.823 L553.364 284.462 L557.646 284.462 Z" fill="#000000" fill-rule="nonzero" fill-opacity="1" /><path clip-path="url(#clip490)" d="M571.581 307.517 L571.581 291.823 L575.84 291.823 L575.84 307.355 Q575.84 311.036 577.276 312.888 Q578.711 314.716 581.581 314.716 Q585.03 314.716 587.021 312.517 Q589.035 310.318 589.035 306.522 L589.035 291.823 L593.294 291.823 L593.294 317.749 L589.035 317.749 L589.035 313.767 Q587.484 316.128 585.424 317.286 Q583.387 318.42 580.678 318.42 Q576.211 318.42 573.896 315.642 Q571.581 312.864 571.581 307.517 M582.299 291.198 L582.299 291.198 Z" fill="#000000" fill-rule="nonzero" fill-opacity="1" /><path clip-path="url(#clip490)" d="M617.09 295.804 Q616.373 295.388 615.516 295.202 Q614.683 294.994 613.664 294.994 Q610.053 294.994 608.109 297.355 Q606.187 299.693 606.187 304.091 L606.187 317.749 L601.905 317.749 L601.905 291.823 L606.187 291.823 L606.187 295.851 Q607.53 293.489 609.683 292.355 Q611.836 291.198 614.914 291.198 Q615.354 291.198 615.886 291.267 Q616.419 291.314 617.067 291.429 L617.09 295.804 Z" fill="#000000" fill-rule="nonzero" fill-opacity="1" /><path clip-path="url(#clip490)" d="M633.34 304.716 Q628.178 304.716 626.187 305.897 Q624.197 307.077 624.197 309.925 Q624.197 312.193 625.678 313.536 Q627.183 314.855 629.752 314.855 Q633.294 314.855 635.423 312.355 Q637.576 309.832 637.576 305.665 L637.576 304.716 L633.34 304.716 M641.835 302.957 L641.835 317.749 L637.576 317.749 L637.576 313.813 Q636.118 316.175 633.942 317.309 Q631.766 318.42 628.618 318.42 Q624.636 318.42 622.275 316.198 Q619.937 313.952 619.937 310.202 Q619.937 305.827 622.854 303.605 Q625.794 301.383 631.604 301.383 L637.576 301.383 L637.576 300.966 Q637.576 298.027 635.632 296.429 Q633.71 294.809 630.215 294.809 Q627.993 294.809 625.886 295.341 Q623.78 295.874 621.835 296.939 L621.835 293.003 Q624.173 292.101 626.372 291.661 Q628.572 291.198 630.655 291.198 Q636.28 291.198 639.058 294.114 Q641.835 297.031 641.835 302.957 Z" fill="#000000" fill-rule="nonzero" fill-opacity="1" /><path clip-path="url(#clip490)" d="M654.821 284.462 L654.821 291.823 L663.594 291.823 L663.594 295.133 L654.821 295.133 L654.821 309.207 Q654.821 312.378 655.678 313.281 Q656.557 314.184 659.22 314.184 L663.594 314.184 L663.594 317.749 L659.22 317.749 Q654.289 317.749 652.414 315.92 Q650.539 314.068 650.539 309.207 L650.539 295.133 L647.414 295.133 L647.414 291.823 L650.539 291.823 L650.539 284.462 L654.821 284.462 Z" fill="#000000" fill-rule="nonzero" fill-opacity="1" /><path clip-path="url(#clip490)" d="M669.196 291.823 L673.456 291.823 L673.456 317.749 L669.196 317.749 L669.196 291.823 M669.196 281.73 L673.456 281.73 L673.456 287.124 L669.196 287.124 L669.196 281.73 Z" fill="#000000" fill-rule="nonzero" fill-opacity="1" /><path clip-path="url(#clip490)" d="M692.414 294.809 Q688.988 294.809 686.997 297.494 Q685.006 300.156 685.006 304.809 Q685.006 309.462 686.974 312.147 Q688.965 314.809 692.414 314.809 Q695.817 314.809 697.807 312.124 Q699.798 309.438 699.798 304.809 Q699.798 300.202 697.807 297.517 Q695.817 294.809 692.414 294.809 M692.414 291.198 Q697.969 291.198 701.141 294.809 Q704.312 298.42 704.312 304.809 Q704.312 311.175 701.141 314.809 Q697.969 318.42 692.414 318.42 Q686.835 318.42 683.664 314.809 Q680.516 311.175 680.516 304.809 Q680.516 298.42 683.664 294.809 Q686.835 291.198 692.414 291.198 Z" fill="#000000" fill-rule="nonzero" fill-opacity="1" /><path clip-path="url(#clip490)" d="M732.923 302.101 L732.923 317.749 L728.664 317.749 L728.664 302.239 Q728.664 298.559 727.228 296.73 Q725.793 294.902 722.923 294.902 Q719.474 294.902 717.483 297.101 Q715.492 299.3 715.492 303.096 L715.492 317.749 L711.21 317.749 L711.21 291.823 L715.492 291.823 L715.492 295.851 Q717.02 293.513 719.08 292.355 Q721.164 291.198 723.872 291.198 Q728.34 291.198 730.631 293.976 Q732.923 296.73 732.923 302.101 Z" fill="#000000" fill-rule="nonzero" fill-opacity="1" /><path clip-path="url(#clip490)" d="M782.552 285.851 L782.552 290.781 Q780.191 288.582 777.506 287.494 Q774.844 286.406 771.835 286.406 Q765.909 286.406 762.761 290.04 Q759.612 293.652 759.612 300.503 Q759.612 307.332 762.761 310.966 Q765.909 314.577 771.835 314.577 Q774.844 314.577 777.506 313.489 Q780.191 312.401 782.552 310.202 L782.552 315.087 Q780.098 316.753 777.344 317.587 Q774.612 318.42 771.557 318.42 Q763.71 318.42 759.196 313.628 Q754.682 308.813 754.682 300.503 Q754.682 292.17 759.196 287.378 Q763.71 282.564 771.557 282.564 Q774.659 282.564 777.39 283.397 Q780.145 284.207 782.552 285.851 Z" fill="#000000" fill-rule="nonzero" fill-opacity="1" /><path clip-path="url(#clip490)" d="M789.149 307.517 L789.149 291.823 L793.409 291.823 L793.409 307.355 Q793.409 311.036 794.844 312.888 Q796.279 314.716 799.149 314.716 Q802.598 314.716 804.589 312.517 Q806.603 310.318 806.603 306.522 L806.603 291.823 L810.862 291.823 L810.862 317.749 L806.603 317.749 L806.603 313.767 Q805.052 316.128 802.992 317.286 Q800.955 318.42 798.247 318.42 Q793.779 318.42 791.464 315.642 Q789.149 312.864 789.149 307.517 M799.867 291.198 L799.867 291.198 Z" fill="#000000" fill-rule="nonzero" fill-opacity="1" /><path clip-path="url(#clip490)" d="M834.658 295.804 Q833.941 295.388 833.084 295.202 Q832.251 294.994 831.232 294.994 Q827.621 294.994 825.677 297.355 Q823.756 299.693 823.756 304.091 L823.756 317.749 L819.473 317.749 L819.473 291.823 L823.756 291.823 L823.756 295.851 Q825.098 293.489 827.251 292.355 Q829.404 291.198 832.482 291.198 Q832.922 291.198 833.455 291.267 Q833.987 291.314 834.635 291.429 L834.658 295.804 Z" fill="#000000" fill-rule="nonzero" fill-opacity="1" /><path clip-path="url(#clip490)" d="M836.07 291.823 L840.584 291.823 L848.686 313.582 L856.788 291.823 L861.302 291.823 L851.58 317.749 L845.793 317.749 L836.07 291.823 Z" fill="#000000" fill-rule="nonzero" fill-opacity="1" /><path clip-path="url(#clip490)" d="M889.357 303.721 L889.357 305.804 L869.774 305.804 Q870.052 310.202 872.413 312.517 Q874.797 314.809 879.033 314.809 Q881.487 314.809 883.778 314.207 Q886.093 313.605 888.362 312.401 L888.362 316.429 Q886.07 317.401 883.663 317.911 Q881.255 318.42 878.779 318.42 Q872.575 318.42 868.941 314.809 Q865.33 311.198 865.33 305.04 Q865.33 298.675 868.755 294.948 Q872.204 291.198 878.038 291.198 Q883.269 291.198 886.302 294.577 Q889.357 297.934 889.357 303.721 M885.098 302.471 Q885.052 298.976 883.13 296.892 Q881.232 294.809 878.084 294.809 Q874.519 294.809 872.367 296.823 Q870.237 298.837 869.913 302.494 L885.098 302.471 Z" fill="#000000" fill-rule="nonzero" fill-opacity="1" /><path clip-path="url(#clip490)" d="M928.477 304.485 Q928.477 299.855 926.556 297.309 Q924.658 294.763 921.209 294.763 Q917.783 294.763 915.862 297.309 Q913.964 299.855 913.964 304.485 Q913.964 309.091 915.862 311.638 Q917.783 314.184 921.209 314.184 Q924.658 314.184 926.556 311.638 Q928.477 309.091 928.477 304.485 M932.737 314.531 Q932.737 321.151 929.797 324.369 Q926.857 327.61 920.792 327.61 Q918.547 327.61 916.556 327.262 Q914.565 326.938 912.69 326.244 L912.69 322.1 Q914.565 323.119 916.394 323.605 Q918.223 324.091 920.121 324.091 Q924.311 324.091 926.394 321.892 Q928.477 319.716 928.477 315.295 L928.477 313.188 Q927.158 315.48 925.098 316.614 Q923.038 317.749 920.167 317.749 Q915.399 317.749 912.482 314.114 Q909.565 310.48 909.565 304.485 Q909.565 298.466 912.482 294.832 Q915.399 291.198 920.167 291.198 Q923.038 291.198 925.098 292.332 Q927.158 293.466 928.477 295.758 L928.477 291.823 L932.737 291.823 L932.737 314.531 Z" fill="#000000" fill-rule="nonzero" fill-opacity="1" /><path clip-path="url(#clip490)" d="M953.292 304.716 Q948.13 304.716 946.139 305.897 Q944.149 307.077 944.149 309.925 Q944.149 312.193 945.63 313.536 Q947.135 314.855 949.704 314.855 Q953.246 314.855 955.375 312.355 Q957.528 309.832 957.528 305.665 L957.528 304.716 L953.292 304.716 M961.787 302.957 L961.787 317.749 L957.528 317.749 L957.528 313.813 Q956.07 316.175 953.894 317.309 Q951.718 318.42 948.57 318.42 Q944.588 318.42 942.227 316.198 Q939.889 313.952 939.889 310.202 Q939.889 305.827 942.806 303.605 Q945.746 301.383 951.556 301.383 L957.528 301.383 L957.528 300.966 Q957.528 298.027 955.584 296.429 Q953.662 294.809 950.167 294.809 Q947.945 294.809 945.838 295.341 Q943.732 295.874 941.787 296.939 L941.787 293.003 Q944.125 292.101 946.324 291.661 Q948.524 291.198 950.607 291.198 Q956.232 291.198 959.01 294.114 Q961.787 297.031 961.787 302.957 Z" fill="#000000" fill-rule="nonzero" fill-opacity="1" /><path clip-path="url(#clip490)" d="M987.088 292.587 L987.088 296.614 Q985.283 295.689 983.338 295.226 Q981.394 294.763 979.31 294.763 Q976.139 294.763 974.542 295.735 Q972.968 296.707 972.968 298.651 Q972.968 300.133 974.102 300.989 Q975.236 301.823 978.662 302.587 L980.121 302.911 Q984.658 303.883 986.556 305.665 Q988.477 307.425 988.477 310.596 Q988.477 314.207 985.607 316.313 Q982.759 318.42 977.759 318.42 Q975.676 318.42 973.408 318.003 Q971.162 317.61 968.662 316.8 L968.662 312.401 Q971.023 313.628 973.315 314.253 Q975.607 314.855 977.852 314.855 Q980.861 314.855 982.482 313.837 Q984.102 312.795 984.102 310.92 Q984.102 309.184 982.921 308.258 Q981.764 307.332 977.806 306.476 L976.324 306.128 Q972.366 305.295 970.607 303.582 Q968.847 301.846 968.847 298.837 Q968.847 295.179 971.44 293.189 Q974.033 291.198 978.801 291.198 Q981.162 291.198 983.246 291.545 Q985.329 291.892 987.088 292.587 Z" fill="#000000" fill-rule="nonzero" fill-opacity="1" /></svg>
